<svg xmlns="http://www.w3.org/2000/svg" viewBox="0 0 1162 934" width="1162" height="934">
  <rect x="0" y="0" width="1162" height="934" fill="#FFFFFF"/>
  <rect x="0" y="0" width="220" height="934" fill="#D9D9D9"/>
  <rect x="20" y="20" width="48" height="48" fill="#D0D0D0"/>
  <line x1="20" y1="20" x2="68" y2="68" stroke="#FFFFFF" stroke-width="2"/>
  <line x1="68" y1="20" x2="20" y2="68" stroke="#FFFFFF" stroke-width="2"/>
  <text x="80" y="40" font-family="Arial, sans-serif" font-size="16" font-weight="700" fill="#000000">GripFit ToB</text>
  <text x="80" y="58" font-family="Arial, sans-serif" font-size="11" fill="#7A7A7A">人因工程师</text>
  <text x="20" y="116" font-family="Arial, sans-serif" font-size="11" fill="#7A7A7A">工作区</text>
  <rect x="0" y="162" width="220" height="30" fill="#BFBFBF"/>
  <text x="48" y="144" font-family="Arial, sans-serif" font-size="13" fill="#000000">工作看板</text>
  <text x="48" y="180" font-family="Arial, sans-serif" font-size="13" fill="#000000">我的项目</text>
  <text x="48" y="216" font-family="Arial, sans-serif" font-size="13" fill="#000000">+ 新建项目</text>
  <text x="20" y="258" font-family="Arial, sans-serif" font-size="11" fill="#7A7A7A">资源</text>
  <text x="48" y="285" font-family="Arial, sans-serif" font-size="13" fill="#000000">被试库</text>
  <text x="48" y="317" font-family="Arial, sans-serif" font-size="13" fill="#000000">数据归档</text>
  <text x="48" y="349" font-family="Arial, sans-serif" font-size="13" fill="#000000">系统设置</text>
  <rect x="0" y="852" width="220" height="1" fill="#7A7A7A"/>
  <text x="48" y="876" font-family="Arial, sans-serif" font-size="12" fill="#000000">切换角色</text>
  <rect x="20" y="886" width="36" height="36" fill="#D0D0D0"/>
  <line x1="20" y1="886" x2="56" y2="922" stroke="#FFFFFF" stroke-width="1.5"/>
  <line x1="56" y1="886" x2="20" y2="922" stroke="#FFFFFF" stroke-width="1.5"/>
  <text x="68" y="904" font-family="Arial, sans-serif" font-size="12" fill="#000000">张研究员</text>
  <text x="68" y="920" font-family="Arial, sans-serif" font-size="10" fill="#7A7A7A">人因工程师</text>
  <text x="240" y="30" font-family="Arial, sans-serif" font-size="12" fill="#7A7A7A">GripFit  ›  人因工程师</text>
  <rect x="1122" y="14" width="20" height="20" fill="#D9D9D9"/>
  <text x="240" y="56" font-family="Arial, sans-serif" font-size="13" font-weight="700" fill="#000000">旗舰机握持舒适度研究 A2026</text>
  <rect x="430" y="42" width="64" height="18" fill="#D9D9D9" stroke="#7A7A7A" stroke-width="1"/>
  <text x="462" y="55" font-family="Arial, sans-serif" font-size="9" fill="#000000" text-anchor="middle">招募被试</text>
  <text x="240" y="76" font-family="Arial, sans-serif" font-size="11" fill="#7A7A7A">直板  握持舒适度  形态适配性  |  更新于 xxxx-xx-xx  |  x 人团队</text>
  <text x="240" y="96" font-family="Arial, sans-serif" font-size="11" fill="#7A7A7A">实验范式：主观量表评定 + 比较判断法</text>
  <text x="1000" y="60" font-family="Arial, sans-serif" font-size="11" fill="#7A7A7A">综合进度</text>
  <text x="1000" y="82" font-family="Arial, sans-serif" font-size="28" font-weight="700" fill="#000000">xx%</text>
  <rect x="240" y="112" width="220" height="80" fill="#FFFFFF" stroke="#000000" stroke-width="1"/>
  <text x="252" y="142" font-family="Arial, sans-serif" font-size="11" fill="#7A7A7A">目标被试数</text>
  <text x="252" y="176" font-family="Arial, sans-serif" font-size="24" font-weight="700" fill="#000000">xx 人</text>
  <rect x="472" y="112" width="220" height="80" fill="#FFFFFF" stroke="#000000" stroke-width="1"/>
  <text x="484" y="142" font-family="Arial, sans-serif" font-size="11" fill="#7A7A7A">已确认被试</text>
  <text x="484" y="176" font-family="Arial, sans-serif" font-size="24" font-weight="700" fill="#000000">x 人</text>
  <rect x="704" y="112" width="220" height="80" fill="#FFFFFF" stroke="#000000" stroke-width="1"/>
  <text x="716" y="142" font-family="Arial, sans-serif" font-size="11" fill="#7A7A7A">已采集数据</text>
  <text x="716" y="176" font-family="Arial, sans-serif" font-size="24" font-weight="700" fill="#000000">x 份</text>
  <rect x="936" y="112" width="220" height="80" fill="#FFFFFF" stroke="#000000" stroke-width="1"/>
  <text x="948" y="142" font-family="Arial, sans-serif" font-size="11" fill="#7A7A7A">截止日期</text>
  <text x="948" y="176" font-family="Arial, sans-serif" font-size="24" font-weight="700" fill="#000000">xxxx-xx-xx</text>
  <rect x="240" y="204" width="140" height="30" fill="#D9D9D9" stroke="#000000" stroke-width="1"/>
  <text x="310" y="224" font-family="Arial, sans-serif" font-size="12" fill="#000000" text-anchor="middle">实验进度</text>
  <rect x="382" y="204" width="140" height="30" fill="#FFFFFF" stroke="#BFBFBF" stroke-width="1"/>
  <text x="452" y="224" font-family="Arial, sans-serif" font-size="12" fill="#7A7A7A" text-anchor="middle">研究报告</text>
  <rect x="524" y="204" width="140" height="30" fill="#FFFFFF" stroke="#BFBFBF" stroke-width="1"/>
  <text x="594" y="224" font-family="Arial, sans-serif" font-size="12" fill="#7A7A7A" text-anchor="middle">被试记录</text>
  <rect x="666" y="204" width="140" height="30" fill="#FFFFFF" stroke="#BFBFBF" stroke-width="1"/>
  <text x="736" y="224" font-family="Arial, sans-serif" font-size="12" fill="#7A7A7A" text-anchor="middle">原始数据</text>
  <text x="240" y="268" font-family="Arial, sans-serif" font-size="14" font-weight="700" fill="#000000">实验执行步骤</text>
  <rect x="240" y="292" width="880" height="76" fill="#F5F5F5" stroke="#7A7A7A" stroke-width="1"/>
  <rect x="240" y="292" width="6" height="76" fill="#7A7A7A"/>
  <text x="280" y="322" font-family="Arial, sans-serif" font-size="13" font-weight="700" fill="#7A7A7A">H3-1 量表设计</text>
  <text x="280" y="344" font-family="Arial, sans-serif" font-size="11" fill="#7A7A7A">已完成</text>
  <rect x="1000" y="316" width="60" height="22" fill="#D9D9D9" stroke="#7A7A7A" stroke-width="1"/>
  <text x="1030" y="331" font-family="Arial, sans-serif" font-size="10" fill="#7A7A7A" text-anchor="middle">已完成</text>
  <rect x="240" y="388" width="880" height="76" fill="#F0F0F0" stroke="#000000" stroke-width="1"/>
  <rect x="240" y="388" width="6" height="76" fill="#000000"/>
  <rect x="258" y="414" width="26" height="26" fill="#7A7A7A"/>
  <text x="271" y="432" font-family="Arial, sans-serif" font-size="13" font-weight="700" fill="#FFFFFF" text-anchor="middle">2</text>
  <text x="296" y="418" font-family="Arial, sans-serif" font-size="13" font-weight="700" fill="#000000">H3-2 被试方案</text>
  <text x="296" y="440" font-family="Arial, sans-serif" font-size="11" fill="#7A7A7A">当前步骤，点击进入</text>
  <rect x="1000" y="412" width="80" height="28" fill="#D9D9D9" stroke="#000000" stroke-width="1"/>
  <text x="1040" y="431" font-family="Arial, sans-serif" font-size="11" font-weight="700" fill="#000000" text-anchor="middle">进入 →</text>
  <rect x="240" y="484" width="880" height="76" fill="#FFFFFF" stroke="#BFBFBF" stroke-width="1"/>
  <rect x="258" y="510" width="26" height="26" fill="#FFFFFF" stroke="#BFBFBF" stroke-width="1"/>
  <text x="271" y="528" font-family="Arial, sans-serif" font-size="11" fill="#BFBFBF" text-anchor="middle">3</text>
  <text x="296" y="528" font-family="Arial, sans-serif" font-size="13" fill="#BFBFBF">H3-3 场地安排</text>
  <rect x="240" y="580" width="880" height="76" fill="#FFFFFF" stroke="#BFBFBF" stroke-width="1"/>
  <rect x="258" y="606" width="26" height="26" fill="#FFFFFF" stroke="#BFBFBF" stroke-width="1"/>
  <text x="271" y="624" font-family="Arial, sans-serif" font-size="11" fill="#BFBFBF" text-anchor="middle">4</text>
  <text x="296" y="624" font-family="Arial, sans-serif" font-size="13" fill="#BFBFBF">H3-4 设备准备</text>
  <rect x="240" y="676" width="880" height="76" fill="#FFFFFF" stroke="#BFBFBF" stroke-width="1"/>
  <rect x="258" y="702" width="26" height="26" fill="#FFFFFF" stroke="#BFBFBF" stroke-width="1"/>
  <text x="271" y="720" font-family="Arial, sans-serif" font-size="11" fill="#BFBFBF" text-anchor="middle">5</text>
  <text x="296" y="720" font-family="Arial, sans-serif" font-size="13" fill="#BFBFBF">H3-5 数据采集</text>
  <rect x="240" y="772" width="880" height="76" fill="#FFFFFF" stroke="#BFBFBF" stroke-width="1"/>
  <rect x="258" y="798" width="26" height="26" fill="#FFFFFF" stroke="#BFBFBF" stroke-width="1"/>
  <text x="271" y="816" font-family="Arial, sans-serif" font-size="11" fill="#BFBFBF" text-anchor="middle">6</text>
  <text x="296" y="816" font-family="Arial, sans-serif" font-size="13" fill="#BFBFBF">H3-6 分析报告</text>
</svg>