<svg xmlns="http://www.w3.org/2000/svg" viewBox="0 0 1166 730" width="1166" height="730">
  <rect x="0" y="0" width="1166" height="730" fill="#FFFFFF"/>

  <!-- Left sidebar -->
  <rect x="0" y="0" width="220" height="730" fill="#D9D9D9"/>
  <rect x="20" y="20" width="48" height="48" fill="#D0D0D0"/>
  <line x1="20" y1="20" x2="68" y2="68" stroke="#FFFFFF" stroke-width="2"/>
  <line x1="68" y1="20" x2="20" y2="68" stroke="#FFFFFF" stroke-width="2"/>
  <text x="80" y="40" font-family="Arial, sans-serif" font-size="16" font-weight="700" fill="#000000">GripFit ToB</text>
  <text x="80" y="58" font-family="Arial, sans-serif" font-size="11" fill="#7A7A7A">xxxxxxx</text>
  <text x="20" y="120" font-family="Arial, sans-serif" font-size="11" fill="#7A7A7A" letter-spacing="1">工作区</text>
  <text x="48" y="156" font-family="Arial, sans-serif" font-size="13" fill="#000000">工作看板</text>
  <rect x="0" y="174" width="220" height="36" fill="#BFBFBF"/>
  <text x="48" y="197" font-family="Arial, sans-serif" font-size="13" fill="#000000">我的项目</text>
  <text x="48" y="234" font-family="Arial, sans-serif" font-size="13" fill="#000000">+ 新建项目</text>
  <text x="20" y="290" font-family="Arial, sans-serif" font-size="11" fill="#7A7A7A" letter-spacing="1">资源</text>
  <text x="48" y="325" font-family="Arial, sans-serif" font-size="13" fill="#000000">被试库</text>
  <text x="48" y="360" font-family="Arial, sans-serif" font-size="13" fill="#000000">数据归档</text>
  <text x="48" y="395" font-family="Arial, sans-serif" font-size="13" fill="#000000">系统设置</text>
  <text x="48" y="640" font-family="Arial, sans-serif" font-size="12" fill="#000000">切换角色</text>
  <rect x="20" y="660" width="36" height="36" fill="#D0D0D0"/>
  <line x1="20" y1="660" x2="56" y2="696" stroke="#FFFFFF" stroke-width="2"/>
  <line x1="56" y1="660" x2="20" y2="696" stroke="#FFFFFF" stroke-width="2"/>
  <text x="68" y="678" font-family="Arial, sans-serif" font-size="12" fill="#000000">xxx研究员</text>
  <text x="68" y="694" font-family="Arial, sans-serif" font-size="10" fill="#7A7A7A">xxxxxxx</text>

  <!-- Top breadcrumb -->
  <rect x="220" y="0" width="946" height="56" fill="#FFFFFF"/>
  <text x="252" y="34" font-family="Arial, sans-serif" font-size="12" fill="#7A7A7A">GripFit  &#x203A;  xxxxxxx</text>
  <rect x="1116" y="18" width="20" height="20" fill="#D9D9D9"/>

  <!-- Step indicator -->
  <rect x="294" y="80" width="32" height="32" fill="#7A7A7A"/>
  <text x="310" y="102" font-family="Arial, sans-serif" font-size="14" font-weight="700" fill="#FFFFFF" text-anchor="middle">1</text>
  <text x="338" y="102" font-family="Arial, sans-serif" font-size="13" font-weight="700" fill="#000000">填写项目信息</text>
  <line x1="450" y1="96" x2="500" y2="96" stroke="#7A7A7A" stroke-width="1"/>
  <rect x="510" y="80" width="32" height="32" fill="#FFFFFF" stroke="#7A7A7A" stroke-width="1"/>
  <text x="526" y="102" font-family="Arial, sans-serif" font-size="14" font-weight="700" fill="#7A7A7A" text-anchor="middle">2</text>
  <text x="554" y="102" font-family="Arial, sans-serif" font-size="13" fill="#7A7A7A">选择实验范式</text>

  <!-- Main form card -->
  <rect x="294" y="148" width="556" height="490" fill="#FFFFFF" stroke="#000000" stroke-width="1"/>
  <text x="316" y="184" font-family="Arial, sans-serif" font-size="16" font-weight="700" fill="#000000">项目基础信息</text>

  <!-- 项目名称 -->
  <text x="316" y="222" font-family="Arial, sans-serif" font-size="12" fill="#000000">项目名称 *</text>
  <rect x="316" y="234" width="512" height="38" fill="#FFFFFF" stroke="#7A7A7A" stroke-width="1"/>
  <text x="328" y="258" font-family="Arial, sans-serif" font-size="11" fill="#BFBFBF">xxxxxxxxxxxxxxxxxxxxxxxxxx</text>

  <!-- 目标手机形态 -->
  <text x="316" y="306" font-family="Arial, sans-serif" font-size="12" fill="#000000">目标手机形态 *</text>
  <rect x="316" y="318" width="160" height="58" fill="#D9D9D9" stroke="#000000" stroke-width="1"/>
  <text x="396" y="343" font-family="Arial, sans-serif" font-size="14" font-weight="700" fill="#000000" text-anchor="middle">直板</text>
  <text x="396" y="362" font-family="Arial, sans-serif" font-size="10" fill="#7A7A7A" text-anchor="middle">xxxx</text>
  <rect x="492" y="318" width="160" height="58" fill="#FFFFFF" stroke="#7A7A7A" stroke-width="1"/>
  <text x="572" y="343" font-family="Arial, sans-serif" font-size="14" font-weight="700" fill="#000000" text-anchor="middle">竖折</text>
  <text x="572" y="362" font-family="Arial, sans-serif" font-size="10" fill="#7A7A7A" text-anchor="middle">xxxx</text>
  <rect x="668" y="318" width="160" height="58" fill="#FFFFFF" stroke="#7A7A7A" stroke-width="1"/>
  <text x="748" y="343" font-family="Arial, sans-serif" font-size="14" font-weight="700" fill="#000000" text-anchor="middle">横折</text>
  <text x="748" y="362" font-family="Arial, sans-serif" font-size="10" fill="#7A7A7A" text-anchor="middle">xxxx</text>

  <!-- 预计开始时间 / 预计周期 -->
  <text x="316" y="412" font-family="Arial, sans-serif" font-size="12" fill="#000000">预计开始时间</text>
  <rect x="316" y="424" width="246" height="38" fill="#FFFFFF" stroke="#7A7A7A" stroke-width="1"/>
  <text x="328" y="448" font-family="Arial, sans-serif" font-size="11" fill="#BFBFBF">xxxx-xx-xx</text>
  <text x="582" y="412" font-family="Arial, sans-serif" font-size="12" fill="#000000">预计周期</text>
  <rect x="582" y="424" width="246" height="38" fill="#FFFFFF" stroke="#7A7A7A" stroke-width="1"/>
  <text x="594" y="448" font-family="Arial, sans-serif" font-size="11" fill="#BFBFBF">xxxx</text>

  <!-- 项目说明 -->
  <text x="316" y="498" font-family="Arial, sans-serif" font-size="12" fill="#000000">项目说明</text>
  <rect x="316" y="510" width="512" height="100" fill="#FFFFFF" stroke="#7A7A7A" stroke-width="1"/>
  <text x="328" y="534" font-family="Arial, sans-serif" font-size="11" fill="#BFBFBF">xxxxxxxxxxxxxxxxxxxxxxxxxxxxxxxxxx</text>

  <!-- Right card: 研究类型 -->
  <rect x="876" y="148" width="270" height="490" fill="#FFFFFF" stroke="#000000" stroke-width="1"/>
  <text x="898" y="184" font-family="Arial, sans-serif" font-size="14" font-weight="700" fill="#000000">研究类型 *</text>
  <text x="898" y="202" font-family="Arial, sans-serif" font-size="10" fill="#7A7A7A">xxxxxxxxxxxxxxxxxx</text>
  <rect x="898" y="222" width="226" height="50" fill="#FFFFFF" stroke="#7A7A7A" stroke-width="1"/>
  <rect x="910" y="240" width="14" height="14" fill="#FFFFFF" stroke="#7A7A7A" stroke-width="1"/>
  <text x="934" y="252" font-family="Arial, sans-serif" font-size="12" font-weight="700" fill="#000000">xxxxxx</text>
  <text x="934" y="268" font-family="Arial, sans-serif" font-size="9" fill="#7A7A7A">xxxxxxxxxxxxxxxxxxxx</text>
  <rect x="898" y="282" width="226" height="50" fill="#FFFFFF" stroke="#7A7A7A" stroke-width="1"/>
  <rect x="910" y="300" width="14" height="14" fill="#FFFFFF" stroke="#7A7A7A" stroke-width="1"/>
  <text x="934" y="306" font-family="Arial, sans-serif" font-size="12" font-weight="700" fill="#000000">xxxxxx</text>
  <text x="934" y="322" font-family="Arial, sans-serif" font-size="9" fill="#7A7A7A">xxxxxxxxxxxxxxxxxxxx</text>
  <rect x="898" y="342" width="226" height="50" fill="#FFFFFF" stroke="#7A7A7A" stroke-width="1"/>
  <rect x="910" y="360" width="14" height="14" fill="#FFFFFF" stroke="#7A7A7A" stroke-width="1"/>
  <text x="934" y="366" font-family="Arial, sans-serif" font-size="12" font-weight="700" fill="#000000">xxxxxx</text>
  <text x="934" y="382" font-family="Arial, sans-serif" font-size="9" fill="#7A7A7A">xxxxxxxxxxxxxxxxxxxx</text>
  <rect x="898" y="402" width="226" height="50" fill="#FFFFFF" stroke="#7A7A7A" stroke-width="1"/>
  <rect x="910" y="420" width="14" height="14" fill="#FFFFFF" stroke="#7A7A7A" stroke-width="1"/>
  <text x="934" y="426" font-family="Arial, sans-serif" font-size="12" font-weight="700" fill="#000000">xxxxxx</text>
  <text x="934" y="442" font-family="Arial, sans-serif" font-size="9" fill="#7A7A7A">xxxxxxxxxxxxxxxxxxxx</text>
  <rect x="898" y="462" width="226" height="50" fill="#FFFFFF" stroke="#7A7A7A" stroke-width="1"/>
  <rect x="910" y="480" width="14" height="14" fill="#FFFFFF" stroke="#7A7A7A" stroke-width="1"/>
  <text x="934" y="486" font-family="Arial, sans-serif" font-size="12" font-weight="700" fill="#000000">xxxxxx</text>
  <text x="934" y="502" font-family="Arial, sans-serif" font-size="9" fill="#7A7A7A">xxxxxxxxxxxxxxxxxxxx</text>
  <rect x="898" y="522" width="226" height="50" fill="#FFFFFF" stroke="#7A7A7A" stroke-width="1"/>
  <rect x="910" y="540" width="14" height="14" fill="#FFFFFF" stroke="#7A7A7A" stroke-width="1"/>
  <text x="934" y="546" font-family="Arial, sans-serif" font-size="12" font-weight="700" fill="#000000">xxxxxx</text>
  <text x="934" y="562" font-family="Arial, sans-serif" font-size="9" fill="#7A7A7A">xxxxxxxxxxxxxxxxxxxx</text>

  <!-- Cancel button -->
  <rect x="294" y="668" width="80" height="38" fill="#FFFFFF" stroke="#000000" stroke-width="1"/>
  <text x="334" y="692" font-family="Arial, sans-serif" font-size="12" fill="#000000" text-anchor="middle">取消</text>

  <!-- Next button -->
  <rect x="650" y="668" width="200" height="38" fill="#D9D9D9" stroke="#000000" stroke-width="1"/>
  <text x="750" y="692" font-family="Arial, sans-serif" font-size="12" font-weight="700" fill="#000000" text-anchor="middle">下一步</text>
</svg>