<svg xmlns="http://www.w3.org/2000/svg" viewBox="0 0 1162 730" width="1162" height="730">
  <rect x="0" y="0" width="1162" height="730" fill="#FFFFFF"/>
  <rect x="0" y="0" width="220" height="730" fill="#D9D9D9"/>
  <rect x="20" y="20" width="48" height="48" fill="#D0D0D0"/>
  <line x1="20" y1="20" x2="68" y2="68" stroke="#FFFFFF" stroke-width="2"/>
  <line x1="68" y1="20" x2="20" y2="68" stroke="#FFFFFF" stroke-width="2"/>
  <text x="80" y="40" font-family="Arial, sans-serif" font-size="16" font-weight="700" fill="#000000">GripFit ToB</text>
  <text x="80" y="58" font-family="Arial, sans-serif" font-size="11" fill="#7A7A7A">人因工程师</text>
  <text x="20" y="116" font-family="Arial, sans-serif" font-size="11" fill="#7A7A7A">工作区</text>
  <rect x="0" y="162" width="220" height="30" fill="#BFBFBF"/>
  <text x="48" y="144" font-family="Arial, sans-serif" font-size="13" fill="#000000">工作看板</text>
  <text x="48" y="180" font-family="Arial, sans-serif" font-size="13" fill="#000000">我的项目</text>
  <text x="48" y="216" font-family="Arial, sans-serif" font-size="13" fill="#000000">+ 新建项目</text>
  <text x="20" y="258" font-family="Arial, sans-serif" font-size="11" fill="#7A7A7A">资源</text>
  <text x="48" y="285" font-family="Arial, sans-serif" font-size="13" fill="#000000">被试库</text>
  <text x="48" y="317" font-family="Arial, sans-serif" font-size="13" fill="#000000">数据归档</text>
  <text x="48" y="349" font-family="Arial, sans-serif" font-size="13" fill="#000000">系统设置</text>
  <rect x="0" y="648" width="220" height="1" fill="#7A7A7A"/>
  <text x="48" y="672" font-family="Arial, sans-serif" font-size="12" fill="#000000">切换角色</text>
  <rect x="20" y="682" width="36" height="36" fill="#D0D0D0"/>
  <line x1="20" y1="682" x2="56" y2="718" stroke="#FFFFFF" stroke-width="1.5"/>
  <line x1="56" y1="682" x2="20" y2="718" stroke="#FFFFFF" stroke-width="1.5"/>
  <text x="68" y="700" font-family="Arial, sans-serif" font-size="12" fill="#000000">张研究员</text>
  <text x="68" y="716" font-family="Arial, sans-serif" font-size="10" fill="#7A7A7A">人因工程师</text>
  <text x="240" y="30" font-family="Arial, sans-serif" font-size="12" fill="#7A7A7A">GripFit  ›  人因工程师</text>
  <text x="240" y="50" font-family="Arial, sans-serif" font-size="11" fill="#7A7A7A">← 旗舰机握持舒适度研究 A2026  /  方案执行</text>
  <rect x="1122" y="14" width="20" height="20" fill="#D9D9D9"/>
  <rect x="240" y="58" width="26" height="26" fill="#7A7A7A"/>
  <text x="253" y="76" font-family="Arial, sans-serif" font-size="9" fill="#FFFFFF" text-anchor="middle">1</text>
  <text x="253" y="99" font-family="Arial, sans-serif" font-size="9" fill="#7A7A7A" text-anchor="middle">量表设计</text>
  <line x1="266" y1="71" x2="372" y2="71" stroke="#BFBFBF" stroke-width="1"/>
  <rect x="372" y="58" width="26" height="26" fill="#7A7A7A"/>
  <text x="385" y="76" font-family="Arial, sans-serif" font-size="9" fill="#FFFFFF" text-anchor="middle">2</text>
  <text x="385" y="99" font-family="Arial, sans-serif" font-size="9" fill="#7A7A7A" text-anchor="middle">被试方案</text>
  <line x1="398" y1="71" x2="504" y2="71" stroke="#BFBFBF" stroke-width="1"/>
  <rect x="504" y="58" width="26" height="26" fill="#7A7A7A"/>
  <text x="517" y="76" font-family="Arial, sans-serif" font-size="9" fill="#FFFFFF" text-anchor="middle">3</text>
  <text x="517" y="99" font-family="Arial, sans-serif" font-size="9" fill="#7A7A7A" text-anchor="middle">场地安排</text>
  <line x1="530" y1="71" x2="636" y2="71" stroke="#BFBFBF" stroke-width="1"/>
  <rect x="636" y="58" width="26" height="26" fill="#7A7A7A"/>
  <text x="649" y="76" font-family="Arial, sans-serif" font-size="11" font-weight="700" fill="#FFFFFF" text-anchor="middle">4</text>
  <text x="649" y="99" font-family="Arial, sans-serif" font-size="10" font-weight="700" fill="#000000" text-anchor="middle">设备准备</text>
  <line x1="662" y1="71" x2="768" y2="71" stroke="#BFBFBF" stroke-width="1"/>
  <rect x="768" y="58" width="26" height="26" fill="#FFFFFF" stroke="#BFBFBF" stroke-width="1"/>
  <text x="781" y="76" font-family="Arial, sans-serif" font-size="9" fill="#BFBFBF" text-anchor="middle">5</text>
  <text x="781" y="99" font-family="Arial, sans-serif" font-size="9" fill="#BFBFBF" text-anchor="middle">数据采集</text>
  <line x1="794" y1="71" x2="900" y2="71" stroke="#BFBFBF" stroke-width="1"/>
  <rect x="900" y="58" width="26" height="26" fill="#FFFFFF" stroke="#BFBFBF" stroke-width="1"/>
  <text x="913" y="76" font-family="Arial, sans-serif" font-size="9" fill="#BFBFBF" text-anchor="middle">6</text>
  <text x="913" y="99" font-family="Arial, sans-serif" font-size="9" fill="#BFBFBF" text-anchor="middle">分析报告</text>
  <text x="240" y="122" font-family="Arial, sans-serif" font-size="18" font-weight="700" fill="#000000">设备准备与环境核查</text>
  <text x="240" y="142" font-family="Arial, sans-serif" font-size="11" fill="#7A7A7A">Checklist 0/17 项已完成</text>
  <text x="1060" y="122" font-family="Arial, sans-serif" font-size="11" fill="#7A7A7A">步骤 4/6</text>
  <rect x="240" y="158" width="420" height="450" fill="#FFFFFF" stroke="#000000" stroke-width="1"/>
  <text x="260" y="186" font-family="Arial, sans-serif" font-size="14" font-weight="700" fill="#000000">环境标准参数</text>
  <text x="260" y="200" font-family="Arial, sans-serif" font-size="12" fill="#000000">室温要求</text>
  <rect x="260" y="208" width="384" height="34" fill="#FFFFFF" stroke="#7A7A7A" stroke-width="1"/>
  <text x="272" y="230" font-family="Arial, sans-serif" font-size="12" fill="#000000">22±2°C</text>
  <text x="260" y="256" font-family="Arial, sans-serif" font-size="10" fill="#7A7A7A">影响热控实验结果</text>
  <text x="260" y="280" font-family="Arial, sans-serif" font-size="12" fill="#000000">照明亮度</text>
  <rect x="260" y="288" width="384" height="34" fill="#FFFFFF" stroke="#7A7A7A" stroke-width="1"/>
  <text x="272" y="310" font-family="Arial, sans-serif" font-size="12" fill="#000000">500 lux</text>
  <text x="260" y="336" font-family="Arial, sans-serif" font-size="10" fill="#7A7A7A">标准办公室照明</text>
  <text x="260" y="360" font-family="Arial, sans-serif" font-size="12" fill="#000000">背景噪音上限</text>
  <rect x="260" y="368" width="384" height="34" fill="#FFFFFF" stroke="#7A7A7A" stroke-width="1"/>
  <text x="272" y="390" font-family="Arial, sans-serif" font-size="12" fill="#000000">≤40 dB</text>
  <text x="260" y="416" font-family="Arial, sans-serif" font-size="10" fill="#7A7A7A">声学实验需更低</text>
  <text x="260" y="440" font-family="Arial, sans-serif" font-size="12" fill="#000000">摄像机角度</text>
  <rect x="260" y="448" width="384" height="34" fill="#FFFFFF" stroke="#7A7A7A" stroke-width="1"/>
  <text x="272" y="470" font-family="Arial, sans-serif" font-size="12" fill="#000000">45°正面+侧面</text>
  <text x="260" y="496" font-family="Arial, sans-serif" font-size="10" fill="#7A7A7A">录制握持姿势</text>
  <text x="260" y="520" font-family="Arial, sans-serif" font-size="12" fill="#000000">录音设备放置</text>
  <rect x="260" y="528" width="384" height="34" fill="#FFFFFF" stroke="#7A7A7A" stroke-width="1"/>
  <text x="272" y="550" font-family="Arial, sans-serif" font-size="12" fill="#000000">距被试 30cm</text>
  <text x="260" y="576" font-family="Arial, sans-serif" font-size="10" fill="#7A7A7A">xxxxxxxxx</text>
  <rect x="676" y="158" width="444" height="220" fill="#FFFFFF" stroke="#000000" stroke-width="1"/>
  <text x="696" y="186" font-family="Arial, sans-serif" font-size="14" font-weight="700" fill="#000000">实验前</text>
  <rect x="692" y="198" width="18" height="18" fill="#FFFFFF" stroke="#7A7A7A" stroke-width="1"/>
  <text x="720" y="212" font-family="Arial, sans-serif" font-size="12" fill="#000000">检查室内温度并记录</text>
  <rect x="692" y="236" width="18" height="18" fill="#FFFFFF" stroke="#7A7A7A" stroke-width="1"/>
  <text x="720" y="250" font-family="Arial, sans-serif" font-size="12" fill="#000000">校准压力测量设备</text>
  <rect x="692" y="274" width="18" height="18" fill="#FFFFFF" stroke="#7A7A7A" stroke-width="1"/>
  <text x="720" y="288" font-family="Arial, sans-serif" font-size="12" fill="#000000">启动录音录像设备并测试</text>
  <rect x="692" y="312" width="18" height="18" fill="#FFFFFF" stroke="#7A7A7A" stroke-width="1"/>
  <text x="720" y="326" font-family="Arial, sans-serif" font-size="12" fill="#000000">在桌面摆放知情同意书</text>
  <rect x="692" y="350" width="18" height="18" fill="#FFFFFF" stroke="#7A7A7A" stroke-width="1"/>
  <text x="720" y="364" font-family="Arial, sans-serif" font-size="12" fill="#000000">准备样机并确认编号与状态</text>
  <rect x="676" y="394" width="444" height="214" fill="#FFFFFF" stroke="#000000" stroke-width="1"/>
  <text x="696" y="422" font-family="Arial, sans-serif" font-size="14" font-weight="700" fill="#000000">被试到达时</text>
  <rect x="692" y="436" width="18" height="18" fill="#FFFFFF" stroke="#7A7A7A" stroke-width="1"/>
  <text x="720" y="450" font-family="Arial, sans-serif" font-size="12" fill="#000000">引导被试阅读并签署知情同意书</text>
  <rect x="692" y="478" width="18" height="18" fill="#FFFFFF" stroke="#7A7A7A" stroke-width="1"/>
  <text x="720" y="492" font-family="Arial, sans-serif" font-size="12" fill="#000000">简要说明实验流程（≤5分钟）</text>
  <rect x="692" y="520" width="18" height="18" fill="#FFFFFF" stroke="#7A7A7A" stroke-width="1"/>
  <text x="720" y="534" font-family="Arial, sans-serif" font-size="12" fill="#000000">确认被试已理解评分规则</text>
  <rect x="692" y="562" width="18" height="18" fill="#FFFFFF" stroke="#7A7A7A" stroke-width="1"/>
  <text x="720" y="576" font-family="Arial, sans-serif" font-size="12" fill="#000000">记录被试手型参数（手长/手宽/虎口）</text>
</svg>