<svg xmlns="http://www.w3.org/2000/svg" viewBox="0 0 1162 730" width="1162" height="730">
  <rect x="0" y="0" width="1162" height="730" fill="#FFFFFF"/>
  <rect x="0" y="0" width="220" height="730" fill="#D9D9D9"/>
  <rect x="20" y="20" width="48" height="48" fill="#D0D0D0"/>
  <line x1="20" y1="20" x2="68" y2="68" stroke="#FFFFFF" stroke-width="2"/>
  <line x1="68" y1="20" x2="20" y2="68" stroke="#FFFFFF" stroke-width="2"/>
  <text x="80" y="40" font-family="Arial, sans-serif" font-size="16" font-weight="700" fill="#000000">GripFit ToB</text>
  <text x="80" y="58" font-family="Arial, sans-serif" font-size="11" fill="#7A7A7A">人因工程师</text>
  <text x="20" y="116" font-family="Arial, sans-serif" font-size="11" fill="#7A7A7A">工作区</text>
  <rect x="0" y="162" width="220" height="30" fill="#BFBFBF"/>
  <text x="48" y="144" font-family="Arial, sans-serif" font-size="13" fill="#000000">工作看板</text>
  <text x="48" y="180" font-family="Arial, sans-serif" font-size="13" fill="#000000">我的项目</text>
  <text x="48" y="216" font-family="Arial, sans-serif" font-size="13" fill="#000000">+ 新建项目</text>
  <text x="20" y="266" font-family="Arial, sans-serif" font-size="11" fill="#7A7A7A">资源</text>
  <text x="48" y="286" font-family="Arial, sans-serif" font-size="13" fill="#000000">被试库</text>
  <text x="48" y="322" font-family="Arial, sans-serif" font-size="13" fill="#000000">数据归档</text>
  <text x="48" y="358" font-family="Arial, sans-serif" font-size="13" fill="#000000">系统设置</text>
  <rect x="0" y="648" width="220" height="1" fill="#7A7A7A"/>
  <text x="48" y="672" font-family="Arial, sans-serif" font-size="12" fill="#000000">切换角色</text>
  <rect x="20" y="682" width="36" height="36" fill="#D0D0D0"/>
  <line x1="20" y1="682" x2="56" y2="718" stroke="#FFFFFF" stroke-width="1.5"/>
  <line x1="56" y1="682" x2="20" y2="718" stroke="#FFFFFF" stroke-width="1.5"/>
  <text x="68" y="700" font-family="Arial, sans-serif" font-size="12" fill="#000000">张研究员</text>
  <text x="68" y="716" font-family="Arial, sans-serif" font-size="10" fill="#7A7A7A">人因工程师</text>
  <text x="240" y="30" font-family="Arial, sans-serif" font-size="12" fill="#7A7A7A">GripFit  ›  人因工程师</text>
  <text x="240" y="50" font-family="Arial, sans-serif" font-size="11" fill="#7A7A7A">← 旗舰机握持舒适度研究 A2026  /  方案执行</text>
  <rect x="1122" y="14" width="20" height="20" fill="#D9D9D9"/>
  <rect x="240" y="58" width="26" height="26" fill="#7A7A7A"/>
  <text x="253" y="76" font-family="Arial, sans-serif" font-size="9" fill="#FFFFFF" text-anchor="middle">1</text>
  <text x="253" y="99" font-family="Arial, sans-serif" font-size="9" fill="#7A7A7A" text-anchor="middle">量表设计</text>
  <line x1="266" y1="71" x2="372" y2="71" stroke="#BFBFBF" stroke-width="1"/>
  <rect x="372" y="58" width="26" height="26" fill="#7A7A7A"/>
  <text x="385" y="76" font-family="Arial, sans-serif" font-size="9" fill="#FFFFFF" text-anchor="middle">2</text>
  <text x="385" y="99" font-family="Arial, sans-serif" font-size="9" fill="#7A7A7A" text-anchor="middle">被试方案</text>
  <line x1="398" y1="71" x2="504" y2="71" stroke="#BFBFBF" stroke-width="1"/>
  <rect x="504" y="58" width="26" height="26" fill="#7A7A7A"/>
  <text x="517" y="76" font-family="Arial, sans-serif" font-size="9" fill="#FFFFFF" text-anchor="middle">3</text>
  <text x="517" y="99" font-family="Arial, sans-serif" font-size="9" fill="#7A7A7A" text-anchor="middle">场地安排</text>
  <line x1="530" y1="71" x2="636" y2="71" stroke="#BFBFBF" stroke-width="1"/>
  <rect x="636" y="58" width="26" height="26" fill="#7A7A7A"/>
  <text x="649" y="76" font-family="Arial, sans-serif" font-size="9" fill="#FFFFFF" text-anchor="middle">4</text>
  <text x="649" y="99" font-family="Arial, sans-serif" font-size="9" fill="#7A7A7A" text-anchor="middle">设备准备</text>
  <line x1="662" y1="71" x2="768" y2="71" stroke="#BFBFBF" stroke-width="1"/>
  <rect x="768" y="58" width="26" height="26" fill="#7A7A7A"/>
  <text x="781" y="76" font-family="Arial, sans-serif" font-size="11" font-weight="700" fill="#FFFFFF" text-anchor="middle">5</text>
  <text x="781" y="99" font-family="Arial, sans-serif" font-size="10" font-weight="700" fill="#000000" text-anchor="middle">数据采集</text>
  <line x1="794" y1="71" x2="900" y2="71" stroke="#BFBFBF" stroke-width="1"/>
  <rect x="900" y="58" width="26" height="26" fill="#FFFFFF" stroke="#BFBFBF" stroke-width="1"/>
  <text x="913" y="76" font-family="Arial, sans-serif" font-size="9" fill="#BFBFBF" text-anchor="middle">6</text>
  <text x="913" y="99" font-family="Arial, sans-serif" font-size="9" fill="#BFBFBF" text-anchor="middle">分析报告</text>
  <text x="240" y="122" font-family="Arial, sans-serif" font-size="18" font-weight="700" fill="#000000">自动化数据采集</text>
  <text x="240" y="142" font-family="Arial, sans-serif" font-size="11" fill="#7A7A7A">实验运行中，所有数据流实时自动采集，无需手动导入</text>
  <text x="960" y="132" font-family="Arial, sans-serif" font-size="11" fill="#7A7A7A">步骤 5/6</text>
  <rect x="1040" y="118" width="80" height="24" fill="#D9D9D9" stroke="#7A7A7A" stroke-width="1"/>
  <text x="1080" y="134" font-family="Arial, sans-serif" font-size="10" fill="#000000" text-anchor="middle">采集中</text>
  <rect x="240" y="158" width="880" height="30" fill="#F5F5F5" stroke="#BFBFBF" stroke-width="1"/>
  <text x="256" y="178" font-family="Arial, sans-serif" font-size="11" fill="#7A7A7A">P004 量表作答时间异常（47秒完成18题），建议复测</text>
  <text x="240" y="206" width="880" height="26" fill="#F5F5F5"/>
  <rect x="240" y="196" width="880" height="26" fill="#F5F5F5" stroke="#BFBFBF" stroke-width="1"/>
  <text x="256" y="214" font-family="Arial, sans-serif" font-size="11" fill="#7A7A7A">EDA 信号基线偏高（P007），请检查传感器接触</text>
  <rect x="240" y="232" width="280" height="90" fill="#FFFFFF" stroke="#000000" stroke-width="1"/>
  <rect x="240" y="232" width="4" height="90" fill="#7A7A7A"/>
  <text x="256" y="260" font-family="Arial, sans-serif" font-size="13" font-weight="700" fill="#000000">主观量表</text>
  <text x="460" y="260" font-family="Arial, sans-serif" font-size="14" font-weight="700" fill="#000000">60%</text>
  <text x="256" y="284" font-family="Arial, sans-serif" font-size="10" fill="#7A7A7A">xxxxxxxxxxxxxxxxxxxxxxxxx</text>
  <text x="256" y="302" font-family="Arial, sans-serif" font-size="10" fill="#7A7A7A">xxxxxxxxxxxxxxx</text>
  <rect x="538" y="232" width="280" height="90" fill="#FFFFFF" stroke="#000000" stroke-width="1"/>
  <rect x="538" y="232" width="4" height="90" fill="#7A7A7A"/>
  <text x="554" y="260" font-family="Arial, sans-serif" font-size="13" font-weight="700" fill="#000000">视频录制</text>
  <text x="758" y="260" font-family="Arial, sans-serif" font-size="14" font-weight="700" fill="#000000">15段</text>
  <text x="554" y="284" font-family="Arial, sans-serif" font-size="10" fill="#7A7A7A">xxxxxxxxxxxxxxxxxxxxxxxxx</text>
  <text x="554" y="302" font-family="Arial, sans-serif" font-size="10" fill="#7A7A7A">xxxxxxxxxxxxxxx</text>
  <rect x="836" y="232" width="280" height="90" fill="#FFFFFF" stroke="#000000" stroke-width="1"/>
  <rect x="836" y="232" width="4" height="90" fill="#7A7A7A"/>
  <text x="852" y="260" font-family="Arial, sans-serif" font-size="13" font-weight="700" fill="#000000">音频采集</text>
  <text x="1056" y="260" font-family="Arial, sans-serif" font-size="14" font-weight="700" fill="#000000">0:14</text>
  <text x="852" y="284" font-family="Arial, sans-serif" font-size="10" fill="#7A7A7A">xxxxxxxxxxxxxxxxxxxxxxxxx</text>
  <text x="852" y="302" font-family="Arial, sans-serif" font-size="10" fill="#7A7A7A">xxxxxxxxxxxxxxx</text>
  <rect x="240" y="342" width="280" height="90" fill="#FFFFFF" stroke="#000000" stroke-width="1"/>
  <rect x="240" y="342" width="4" height="90" fill="#7A7A7A"/>
  <text x="256" y="370" font-family="Arial, sans-serif" font-size="13" font-weight="700" fill="#000000">面部情绪识别</text>
  <text x="460" y="370" font-family="Arial, sans-serif" font-size="14" font-weight="700" fill="#000000">LIVE</text>
  <text x="256" y="394" font-family="Arial, sans-serif" font-size="10" fill="#7A7A7A">xxxxxxxxxxxxxxxxxxxxxxxxx</text>
  <text x="256" y="412" font-family="Arial, sans-serif" font-size="10" fill="#7A7A7A">xxxxxxxxxxxxxxx</text>
  <rect x="538" y="342" width="280" height="90" fill="#FFFFFF" stroke="#000000" stroke-width="1"/>
  <rect x="538" y="342" width="4" height="90" fill="#7A7A7A"/>
  <text x="554" y="370" font-family="Arial, sans-serif" font-size="13" font-weight="700" fill="#000000">EEG 脑电</text>
  <text x="758" y="370" font-family="Arial, sans-serif" font-size="14" font-weight="700" fill="#000000">128Hz</text>
  <text x="554" y="394" font-family="Arial, sans-serif" font-size="10" fill="#7A7A7A">xxxxxxxxxxxxxxxxxxxxxxxxx</text>
  <text x="554" y="412" font-family="Arial, sans-serif" font-size="10" fill="#7A7A7A">xxxxxxxxxxxxxxx</text>
  <rect x="836" y="342" width="280" height="90" fill="#FFFFFF" stroke="#000000" stroke-width="1"/>
  <rect x="836" y="342" width="4" height="90" fill="#7A7A7A"/>
  <text x="852" y="370" font-family="Arial, sans-serif" font-size="13" font-weight="700" fill="#000000">皮肤电（EDA）</text>
  <text x="1056" y="370" font-family="Arial, sans-serif" font-size="14" font-weight="700" fill="#000000">4.39μS</text>
  <text x="852" y="394" font-family="Arial, sans-serif" font-size="10" fill="#7A7A7A">xxxxxxxxxxxxxxxxxxxxxxxxx</text>
  <text x="852" y="412" font-family="Arial, sans-serif" font-size="10" fill="#7A7A7A">xxxxxxxxxxxxxxx</text>
  <rect x="240" y="462" width="434" height="180" fill="#FFFFFF" stroke="#000000" stroke-width="1"/>
  <text x="256" y="488" font-family="Arial, sans-serif" font-size="12" font-weight="700" fill="#000000">EEG 实时波形（当前被试）</text>
  <rect x="256" y="496" width="402" height="130" fill="#D0D0D0"/>
  <line x1="256" y1="496" x2="658" y2="626" stroke="#FFFFFF" stroke-width="1.5"/>
  <line x1="658" y1="496" x2="256" y2="626" stroke="#FFFFFF" stroke-width="1.5"/>
  <rect x="692" y="462" width="434" height="180" fill="#FFFFFF" stroke="#000000" stroke-width="1"/>
  <text x="708" y="488" font-family="Arial, sans-serif" font-size="12" font-weight="700" fill="#000000">皮肤电（EDA）实时趋势</text>
  <rect x="708" y="496" width="402" height="130" fill="#D0D0D0"/>
  <line x1="708" y1="496" x2="1110" y2="626" stroke="#FFFFFF" stroke-width="1.5"/>
  <line x1="1110" y1="496" x2="708" y2="626" stroke="#FFFFFF" stroke-width="1.5"/>
</svg>