<svg xmlns="http://www.w3.org/2000/svg" viewBox="0 0 1162 730" width="1162" height="730">
  <rect x="0" y="0" width="1162" height="730" fill="#FFFFFF"/>
  <rect x="0" y="0" width="220" height="730" fill="#D9D9D9"/>
  <rect x="20" y="20" width="48" height="48" fill="#D0D0D0"/>
  <line x1="20" y1="20" x2="68" y2="68" stroke="#FFFFFF" stroke-width="2"/>
  <line x1="68" y1="20" x2="20" y2="68" stroke="#FFFFFF" stroke-width="2"/>
  <text x="80" y="40" font-family="Arial, sans-serif" font-size="16" font-weight="700" fill="#000000">GripFit ToB</text>
  <text x="80" y="58" font-family="Arial, sans-serif" font-size="11" fill="#7A7A7A">人因工程师</text>
  <text x="20" y="116" font-family="Arial, sans-serif" font-size="11" fill="#7A7A7A">工作区</text>
  <rect x="0" y="162" width="220" height="30" fill="#BFBFBF"/>
  <text x="48" y="144" font-family="Arial, sans-serif" font-size="13" fill="#000000">工作看板</text>
  <text x="48" y="180" font-family="Arial, sans-serif" font-size="13" fill="#000000">我的项目</text>
  <text x="48" y="216" font-family="Arial, sans-serif" font-size="13" fill="#000000">+ 新建项目</text>
  <text x="20" y="266" font-family="Arial, sans-serif" font-size="11" fill="#7A7A7A">资源</text>
  <text x="48" y="286" font-family="Arial, sans-serif" font-size="13" fill="#000000">被试库</text>
  <text x="48" y="322" font-family="Arial, sans-serif" font-size="13" fill="#000000">数据归档</text>
  <text x="48" y="358" font-family="Arial, sans-serif" font-size="13" fill="#000000">系统设置</text>
  <rect x="0" y="648" width="220" height="1" fill="#7A7A7A"/>
  <text x="48" y="672" font-family="Arial, sans-serif" font-size="12" fill="#000000">切换角色</text>
  <rect x="20" y="682" width="36" height="36" fill="#D0D0D0"/>
  <line x1="20" y1="682" x2="56" y2="718" stroke="#FFFFFF" stroke-width="1.5"/>
  <line x1="56" y1="682" x2="20" y2="718" stroke="#FFFFFF" stroke-width="1.5"/>
  <text x="68" y="700" font-family="Arial, sans-serif" font-size="12" fill="#000000">张研究员</text>
  <text x="68" y="716" font-family="Arial, sans-serif" font-size="10" fill="#7A7A7A">人因工程师</text>
  <text x="240" y="30" font-family="Arial, sans-serif" font-size="12" fill="#7A7A7A">GripFit  ›  人因工程师</text>
  <text x="240" y="50" font-family="Arial, sans-serif" font-size="11" fill="#7A7A7A">← 旗舰机握持舒适度研究 A2026  /  方案执行</text>
  <rect x="1122" y="14" width="20" height="20" fill="#D9D9D9"/>
  <rect x="240" y="58" width="26" height="26" fill="#7A7A7A"/>
  <text x="253" y="76" font-family="Arial, sans-serif" font-size="9" fill="#FFFFFF" text-anchor="middle">1</text>
  <text x="253" y="99" font-family="Arial, sans-serif" font-size="9" fill="#7A7A7A" text-anchor="middle">量表设计</text>
  <line x1="266" y1="71" x2="372" y2="71" stroke="#BFBFBF" stroke-width="1"/>
  <rect x="372" y="58" width="26" height="26" fill="#7A7A7A"/>
  <text x="385" y="76" font-family="Arial, sans-serif" font-size="9" fill="#FFFFFF" text-anchor="middle">2</text>
  <text x="385" y="99" font-family="Arial, sans-serif" font-size="9" fill="#7A7A7A" text-anchor="middle">被试方案</text>
  <line x1="398" y1="71" x2="504" y2="71" stroke="#BFBFBF" stroke-width="1"/>
  <rect x="504" y="58" width="26" height="26" fill="#7A7A7A"/>
  <text x="517" y="76" font-family="Arial, sans-serif" font-size="9" fill="#FFFFFF" text-anchor="middle">3</text>
  <text x="517" y="99" font-family="Arial, sans-serif" font-size="9" fill="#7A7A7A" text-anchor="middle">场地安排</text>
  <line x1="530" y1="71" x2="636" y2="71" stroke="#BFBFBF" stroke-width="1"/>
  <rect x="636" y="58" width="26" height="26" fill="#7A7A7A"/>
  <text x="649" y="76" font-family="Arial, sans-serif" font-size="9" fill="#FFFFFF" text-anchor="middle">4</text>
  <text x="649" y="99" font-family="Arial, sans-serif" font-size="9" fill="#7A7A7A" text-anchor="middle">设备准备</text>
  <line x1="662" y1="71" x2="768" y2="71" stroke="#BFBFBF" stroke-width="1"/>
  <rect x="768" y="58" width="26" height="26" fill="#7A7A7A"/>
  <text x="781" y="76" font-family="Arial, sans-serif" font-size="9" fill="#FFFFFF" text-anchor="middle">5</text>
  <text x="781" y="99" font-family="Arial, sans-serif" font-size="9" fill="#7A7A7A" text-anchor="middle">数据采集</text>
  <line x1="794" y1="71" x2="900" y2="71" stroke="#BFBFBF" stroke-width="1"/>
  <rect x="900" y="58" width="26" height="26" fill="#7A7A7A"/>
  <text x="913" y="76" font-family="Arial, sans-serif" font-size="11" font-weight="700" fill="#FFFFFF" text-anchor="middle">6</text>
  <text x="913" y="99" font-family="Arial, sans-serif" font-size="10" font-weight="700" fill="#000000" text-anchor="middle">分析报告</text>
  <text x="240" y="122" font-family="Arial, sans-serif" font-size="18" font-weight="700" fill="#000000">自动化数据分析与研究报告</text>
  <text x="240" y="142" font-family="Arial, sans-serif" font-size="11" fill="#7A7A7A">基于 0 份有效数据 · 全自动统计分析 · 多模态数据融合</text>
  <text x="1060" y="122" font-family="Arial, sans-serif" font-size="11" fill="#7A7A7A">步骤 6/6</text>
  <rect x="240" y="152" width="280" height="30" fill="#D9D9D9" stroke="#000000" stroke-width="1"/>
  <text x="380" y="172" font-family="Arial, sans-serif" font-size="11" fill="#000000" text-anchor="middle">统计分析全览</text>
  <rect x="522" y="152" width="280" height="30" fill="#FFFFFF" stroke="#BFBFBF" stroke-width="1"/>
  <text x="662" y="172" font-family="Arial, sans-serif" font-size="11" fill="#7A7A7A" text-anchor="middle">综合研究报告</text>
  <rect x="240" y="196" width="88" height="52" fill="#F5F5F5" stroke="#BFBFBF" stroke-width="1"/>
  <rect x="272" y="204" width="24" height="24" fill="#D9D9D9"/>
  <text x="284" y="264" font-family="Arial, sans-serif" font-size="8" fill="#7A7A7A" text-anchor="middle">数据预处理</text>
  <line x1="328" y1="222" x2="330" y2="222" stroke="#BFBFBF" stroke-width="1"/>
  <rect x="338" y="196" width="88" height="52" fill="#F5F5F5" stroke="#BFBFBF" stroke-width="1"/>
  <rect x="370" y="204" width="24" height="24" fill="#D9D9D9"/>
  <text x="382" y="264" font-family="Arial, sans-serif" font-size="8" fill="#7A7A7A" text-anchor="middle">信效度分析</text>
  <line x1="426" y1="222" x2="428" y2="222" stroke="#BFBFBF" stroke-width="1"/>
  <rect x="436" y="196" width="88" height="52" fill="#F5F5F5" stroke="#BFBFBF" stroke-width="1"/>
  <rect x="468" y="204" width="24" height="24" fill="#D9D9D9"/>
  <text x="480" y="264" font-family="Arial, sans-serif" font-size="8" fill="#7A7A7A" text-anchor="middle">正态性检验</text>
  <line x1="524" y1="222" x2="526" y2="222" stroke="#BFBFBF" stroke-width="1"/>
  <rect x="534" y="196" width="88" height="52" fill="#F5F5F5" stroke="#BFBFBF" stroke-width="1"/>
  <rect x="566" y="204" width="24" height="24" fill="#D9D9D9"/>
  <text x="578" y="264" font-family="Arial, sans-serif" font-size="8" fill="#7A7A7A" text-anchor="middle">描述性统计</text>
  <line x1="622" y1="222" x2="624" y2="222" stroke="#BFBFBF" stroke-width="1"/>
  <rect x="632" y="196" width="88" height="52" fill="#F5F5F5" stroke="#BFBFBF" stroke-width="1"/>
  <rect x="664" y="204" width="24" height="24" fill="#D9D9D9"/>
  <text x="676" y="264" font-family="Arial, sans-serif" font-size="8" fill="#7A7A7A" text-anchor="middle">差异检验</text>
  <line x1="720" y1="222" x2="722" y2="222" stroke="#BFBFBF" stroke-width="1"/>
  <rect x="730" y="196" width="88" height="52" fill="#F5F5F5" stroke="#BFBFBF" stroke-width="1"/>
  <rect x="762" y="204" width="24" height="24" fill="#D9D9D9"/>
  <text x="774" y="264" font-family="Arial, sans-serif" font-size="8" fill="#7A7A7A" text-anchor="middle">方差分析</text>
  <line x1="818" y1="222" x2="820" y2="222" stroke="#BFBFBF" stroke-width="1"/>
  <rect x="828" y="196" width="88" height="52" fill="#F5F5F5" stroke="#BFBFBF" stroke-width="1"/>
  <rect x="860" y="204" width="24" height="24" fill="#D9D9D9"/>
  <text x="872" y="264" font-family="Arial, sans-serif" font-size="8" fill="#7A7A7A" text-anchor="middle">相关与回归</text>
  <line x1="916" y1="222" x2="918" y2="222" stroke="#BFBFBF" stroke-width="1"/>
  <rect x="926" y="196" width="88" height="52" fill="#F5F5F5" stroke="#BFBFBF" stroke-width="1"/>
  <rect x="958" y="204" width="24" height="24" fill="#D9D9D9"/>
  <text x="970" y="264" font-family="Arial, sans-serif" font-size="8" fill="#7A7A7A" text-anchor="middle">探索性因子</text>
  <line x1="1014" y1="222" x2="1016" y2="222" stroke="#BFBFBF" stroke-width="1"/>
  <rect x="1024" y="196" width="88" height="52" fill="#F5F5F5" stroke="#BFBFBF" stroke-width="1"/>
  <rect x="1056" y="204" width="24" height="24" fill="#D9D9D9"/>
  <text x="1068" y="264" font-family="Arial, sans-serif" font-size="8" fill="#7A7A7A" text-anchor="middle">结构方程模型</text>
  <rect x="240" y="282" width="880" height="40" fill="#F5F5F5" stroke="#BFBFBF" stroke-width="1"/>
  <text x="260" y="307" font-family="Arial, sans-serif" font-size="13" font-weight="700" fill="#7A7A7A">① 数据预处理（自动执行）</text>
  <text x="1090" y="307" font-family="Arial, sans-serif" font-size="12" fill="#7A7A7A">›</text>
  <rect x="240" y="332" width="880" height="40" fill="#FFFFFF" stroke="#000000" stroke-width="1"/>
  <text x="260" y="357" font-family="Arial, sans-serif" font-size="13" font-weight="700" fill="#000000">② 量表信效度分析</text>
  <text x="1090" y="357" font-family="Arial, sans-serif" font-size="12" fill="#000000">∧</text>
  <rect x="240" y="372" width="880" height="160" fill="#FFFFFF" stroke="#BFBFBF" stroke-width="1"/>
  <rect x="260" y="388" width="270" height="128" fill="#F5F5F5" stroke="#BFBFBF" stroke-width="1"/>
  <text x="395" y="440" font-family="Arial, sans-serif" font-size="36" font-weight="700" fill="#000000" text-anchor="middle">0.87</text>
  <text x="395" y="464" font-family="Arial, sans-serif" font-size="11" fill="#7A7A7A" text-anchor="middle">Cronbach's α</text>
  <text x="395" y="482" font-family="Arial, sans-serif" font-size="10" fill="#7A7A7A" text-anchor="middle">内部一致性信度</text>
  <text x="395" y="500" font-family="Arial, sans-serif" font-size="10" fill="#7A7A7A" text-anchor="middle">≥x.xx ✓</text>
  <rect x="552" y="388" width="270" height="128" fill="#F5F5F5" stroke="#BFBFBF" stroke-width="1"/>
  <text x="687" y="440" font-family="Arial, sans-serif" font-size="36" font-weight="700" fill="#000000" text-anchor="middle">0.83</text>
  <text x="687" y="464" font-family="Arial, sans-serif" font-size="11" fill="#7A7A7A" text-anchor="middle">分半信度</text>
  <text x="687" y="482" font-family="Arial, sans-serif" font-size="10" fill="#7A7A7A" text-anchor="middle">Spearman-Brown校正</text>
  <text x="687" y="500" font-family="Arial, sans-serif" font-size="10" fill="#7A7A7A" text-anchor="middle">≥x.xx ✓</text>
  <rect x="844" y="388" width="270" height="128" fill="#F5F5F5" stroke="#BFBFBF" stroke-width="1"/>
  <text x="979" y="440" font-family="Arial, sans-serif" font-size="36" font-weight="700" fill="#000000" text-anchor="middle">0.61</text>
  <text x="979" y="464" font-family="Arial, sans-serif" font-size="11" fill="#7A7A7A" text-anchor="middle">AVE 均值</text>
  <text x="979" y="482" font-family="Arial, sans-serif" font-size="10" fill="#7A7A7A" text-anchor="middle">平均方差提取量</text>
  <text x="979" y="500" font-family="Arial, sans-serif" font-size="10" fill="#7A7A7A" text-anchor="middle">≥x.xx ✓</text>
  <rect x="240" y="542" width="880" height="36" fill="#D9D9D9"/>
  <text x="256" y="565" font-family="Arial, sans-serif" font-size="11" font-weight="700" fill="#000000">因子</text>
  <text x="520" y="565" font-family="Arial, sans-serif" font-size="11" font-weight="700" fill="#000000">α值</text>
  <text x="680" y="565" font-family="Arial, sans-serif" font-size="11" font-weight="700" fill="#000000">AVE</text>
  <text x="820" y="565" font-family="Arial, sans-serif" font-size="11" font-weight="700" fill="#000000">判断</text>
  <rect x="240" y="578" width="880" height="32" fill="#FFFFFF" stroke="#BFBFBF" stroke-width="1"/>
  <text x="256" y="599" font-family="Arial, sans-serif" font-size="11" fill="#000000">舒适体验（F1）</text>
  <text x="520" y="599" font-family="Arial, sans-serif" font-size="11" fill="#000000">0.87</text>
  <text x="680" y="599" font-family="Arial, sans-serif" font-size="11" fill="#000000">0.68</text>
  <text x="820" y="599" font-family="Arial, sans-serif" font-size="11" fill="#7A7A7A">通过</text>
  <rect x="240" y="610" width="880" height="32" fill="#F5F5F5" stroke="#BFBFBF" stroke-width="1"/>
  <text x="256" y="631" font-family="Arial, sans-serif" font-size="11" fill="#000000">操控便利（F2）</text>
  <text x="520" y="631" font-family="Arial, sans-serif" font-size="11" fill="#000000">0.82</text>
  <text x="680" y="631" font-family="Arial, sans-serif" font-size="11" fill="#000000">0.58</text>
  <text x="820" y="631" font-family="Arial, sans-serif" font-size="11" fill="#7A7A7A">通过</text>
</svg>