<svg xmlns="http://www.w3.org/2000/svg" viewBox="0 0 1162 730" width="1162" height="730">
  <rect x="0" y="0" width="1162" height="730" fill="#FFFFFF"/>
  <rect x="0" y="0" width="220" height="730" fill="#D9D9D9"/>
  <rect x="20" y="20" width="48" height="48" fill="#D0D0D0"/>
  <line x1="20" y1="20" x2="68" y2="68" stroke="#FFFFFF" stroke-width="2"/>
  <line x1="68" y1="20" x2="20" y2="68" stroke="#FFFFFF" stroke-width="2"/>
  <text x="80" y="40" font-family="Arial, sans-serif" font-size="16" font-weight="700" fill="#000000">GripFit ToB</text>
  <text x="80" y="58" font-family="Arial, sans-serif" font-size="11" fill="#7A7A7A">xxxxxxx</text>
  <text x="20" y="120" font-family="Arial, sans-serif" font-size="11" fill="#7A7A7A" letter-spacing="1">工作区</text>
  <rect x="0" y="159" width="220" height="36" fill="#BFBFBF"/>
  <text x="48" y="140" font-family="Arial, sans-serif" font-size="13" fill="#000000">工作台</text>
  <text x="48" y="177" font-family="Arial, sans-serif" font-size="13" fill="#000000">设计参考工具</text>
  <text x="48" y="214" font-family="Arial, sans-serif" font-size="13" fill="#000000">样机AI评审</text>

  <text x="20" y="290" font-family="Arial, sans-serif" font-size="11" fill="#7A7A7A" letter-spacing="1">资源</text>
  <text x="48" y="325" font-family="Arial, sans-serif" font-size="13" fill="#000000">设计库</text>
  <text x="48" y="360" font-family="Arial, sans-serif" font-size="13" fill="#000000">素材归档</text>
  <text x="48" y="395" font-family="Arial, sans-serif" font-size="13" fill="#000000">系统设置</text>

  <rect x="0" y="610" width="220" height="1" fill="#7A7A7A"/>
  <text x="48" y="640" font-family="Arial, sans-serif" font-size="12" fill="#000000">切换角色</text>
  <rect x="20" y="662" width="36" height="36" fill="#D0D0D0"/>
  <line x1="20" y1="662" x2="56" y2="698" stroke="#FFFFFF" stroke-width="2"/>
  <line x1="56" y1="662" x2="20" y2="698" stroke="#FFFFFF" stroke-width="2"/>
  <text x="68" y="677" font-family="Arial, sans-serif" font-size="12" fill="#000000">xxx设计师</text>
  <text x="68" y="693" font-family="Arial, sans-serif" font-size="10" fill="#7A7A7A">xxxxxxx</text>
  <rect x="220" y="0" width="942" height="56" fill="#FFFFFF"/>
  <text x="252" y="34" font-family="Arial, sans-serif" font-size="12" fill="#7A7A7A">GripFit  ›  xxxxxxx</text>
  <rect x="1112" y="18" width="20" height="20" fill="#D9D9D9"/>
  <text x="252" y="90" font-family="Arial, sans-serif" font-size="22" font-weight="700" fill="#000000">设计参考工具</text>
  <text x="252" y="112" font-family="Arial, sans-serif" font-size="11" fill="#7A7A7A">基于研究数据的设计参考辅助</text>
  <rect x="240" y="148" width="120" height="36" fill="#FFFFFF" stroke="#7A7A7A" stroke-width="1"/>
  <text x="300" y="171" font-family="Arial, sans-serif" font-size="12" fill="#7A7A7A" text-anchor="middle">①目标配置</text>
  <rect x="360" y="148" width="120" height="36" fill="#D9D9D9" stroke="#000000" stroke-width="1"/>
  <text x="420" y="171" font-family="Arial, sans-serif" font-size="12" font-weight="700" fill="#000000" text-anchor="middle">②底模预览</text>
  <rect x="480" y="148" width="120" height="36" fill="#FFFFFF" stroke="#7A7A7A" stroke-width="1"/>
  <text x="540" y="171" font-family="Arial, sans-serif" font-size="12" fill="#7A7A7A" text-anchor="middle">③数据&amp;图表</text>

  <!-- Main content -->
  <rect x="240" y="200" width="900" height="490" fill="#FFFFFF" stroke="#BFBFBF" stroke-width="1"/>
  <text x="264" y="236" font-family="Arial, sans-serif" font-size="14" font-weight="700" fill="#000000">底模预览  —  直板手机（标准尺寸）</text>

  <!-- Front view placeholder -->
  <rect x="280" y="256" width="220" height="360" fill="#D0D0D0"/>
  <line x1="280" y1="256" x2="500" y2="616" stroke="#FFFFFF" stroke-width="2"/>
  <line x1="500" y1="256" x2="280" y2="616" stroke="#FFFFFF" stroke-width="2"/>
  <text x="390" y="442" font-family="Arial, sans-serif" font-size="12" fill="#7A7A7A" text-anchor="middle">正面</text>

  <!-- Side view placeholder -->
  <rect x="540" y="300" width="80" height="280" fill="#D0D0D0"/>
  <line x1="540" y1="300" x2="620" y2="580" stroke="#FFFFFF" stroke-width="2"/>
  <line x1="620" y1="300" x2="540" y2="580" stroke="#FFFFFF" stroke-width="2"/>
  <text x="580" y="444" font-family="Arial, sans-serif" font-size="11" fill="#7A7A7A" text-anchor="middle">侧面</text>

  <!-- Dimensions table -->
  <text x="680" y="264" font-family="Arial, sans-serif" font-size="13" font-weight="700" fill="#000000">关键尺寸参数</text>
  <!-- Table header -->
  <rect x="680" y="276" width="420" height="28" fill="#D9D9D9"/>
  <text x="694" y="295" font-family="Arial, sans-serif" font-size="11" font-weight="700" fill="#000000">参数</text>
  <text x="820" y="295" font-family="Arial, sans-serif" font-size="11" font-weight="700" fill="#000000">数值</text>
  <text x="940" y="295" font-family="Arial, sans-serif" font-size="11" font-weight="700" fill="#000000">设计建议</text>
  <!-- Rows -->
  <rect x="680" y="304" width="420" height="28" fill="#FFFFFF" stroke="#BFBFBF" stroke-width="1"/>
  <text x="694" y="323" font-family="Arial, sans-serif" font-size="11" fill="#000000">整机长度</text>
  <text x="820" y="323" font-family="Arial, sans-serif" font-size="11" fill="#000000">xxx mm</text>
  <text x="940" y="323" font-family="Arial, sans-serif" font-size="11" fill="#7A7A7A">xxxxxxxxxx</text>

  <rect x="680" y="332" width="420" height="28" fill="#F7F7F7" stroke="#BFBFBF" stroke-width="1"/>
  <text x="694" y="351" font-family="Arial, sans-serif" font-size="11" fill="#000000">整机宽度</text>
  <text x="820" y="351" font-family="Arial, sans-serif" font-size="11" fill="#000000">xxx mm</text>
  <text x="940" y="351" font-family="Arial, sans-serif" font-size="11" fill="#7A7A7A">xxxxxxxxxx</text>

  <rect x="680" y="360" width="420" height="28" fill="#FFFFFF" stroke="#BFBFBF" stroke-width="1"/>
  <text x="694" y="379" font-family="Arial, sans-serif" font-size="11" fill="#000000">整机厚度</text>
  <text x="820" y="379" font-family="Arial, sans-serif" font-size="11" fill="#000000">xxx mm</text>
  <text x="940" y="379" font-family="Arial, sans-serif" font-size="11" fill="#7A7A7A">xxxxxxxxxx</text>

  <rect x="680" y="388" width="420" height="28" fill="#F7F7F7" stroke="#BFBFBF" stroke-width="1"/>
  <text x="694" y="407" font-family="Arial, sans-serif" font-size="11" fill="#000000">屏幕尺寸</text>
  <text x="820" y="407" font-family="Arial, sans-serif" font-size="11" fill="#000000">x.x 英寸</text>
  <text x="940" y="407" font-family="Arial, sans-serif" font-size="11" fill="#7A7A7A">xxxxxxxxxx</text>

  <rect x="680" y="416" width="420" height="28" fill="#FFFFFF" stroke="#BFBFBF" stroke-width="1"/>
  <text x="694" y="435" font-family="Arial, sans-serif" font-size="11" fill="#000000">握持宽度</text>
  <text x="820" y="435" font-family="Arial, sans-serif" font-size="11" fill="#000000">xxx mm</text>
  <text x="940" y="435" font-family="Arial, sans-serif" font-size="11" fill="#7A7A7A">xxxxxxxxxx</text>

  <rect x="680" y="444" width="420" height="28" fill="#F7F7F7" stroke="#BFBFBF" stroke-width="1"/>
  <text x="694" y="463" font-family="Arial, sans-serif" font-size="11" fill="#000000">重量</text>
  <text x="820" y="463" font-family="Arial, sans-serif" font-size="11" fill="#000000">xxx g</text>
  <text x="940" y="463" font-family="Arial, sans-serif" font-size="11" fill="#7A7A7A">xxxxxxxxxx</text>

  <!-- Export button -->
  <rect x="968" y="650" width="140" height="36" fill="#D9D9D9" stroke="#000000" stroke-width="1"/>
  <text x="1038" y="673" font-family="Arial, sans-serif" font-size="12" font-weight="700" fill="#000000" text-anchor="middle">导出底模文件</text>
</svg>