<svg xmlns="http://www.w3.org/2000/svg" viewBox="0 0 1162 1046" width="1162" height="1046">
  <rect x="0" y="0" width="1162" height="1046" fill="#FFFFFF"/>
  <rect x="0" y="0" width="220" height="1046" fill="#D9D9D9"/>
  <rect x="20" y="20" width="48" height="48" fill="#D0D0D0"/>
  <line x1="20" y1="20" x2="68" y2="68" stroke="#FFFFFF" stroke-width="2"/>
  <line x1="68" y1="20" x2="20" y2="68" stroke="#FFFFFF" stroke-width="2"/>
  <text x="80" y="40" font-family="Arial, sans-serif" font-size="16" font-weight="700" fill="#000000">GripFit ToB</text>
  <text x="80" y="58" font-family="Arial, sans-serif" font-size="11" fill="#7A7A7A">人因工程师</text>
  <text x="20" y="116" font-family="Arial, sans-serif" font-size="11" fill="#7A7A7A">工作区</text>
  <rect x="0" y="162" width="220" height="30" fill="#BFBFBF"/>
  <text x="48" y="144" font-family="Arial, sans-serif" font-size="13" fill="#000000">工作看板</text>
  <text x="48" y="180" font-family="Arial, sans-serif" font-size="13" fill="#000000">我的项目</text>
  <text x="48" y="216" font-family="Arial, sans-serif" font-size="13" fill="#000000">+ 新建项目</text>
  <text x="20" y="258" font-family="Arial, sans-serif" font-size="11" fill="#7A7A7A">资源</text>
  <text x="48" y="285" font-family="Arial, sans-serif" font-size="13" fill="#000000">被试库</text>
  <text x="48" y="317" font-family="Arial, sans-serif" font-size="13" fill="#000000">数据归档</text>
  <text x="48" y="349" font-family="Arial, sans-serif" font-size="13" fill="#000000">系统设置</text>
  <rect x="0" y="964" width="220" height="1" fill="#7A7A7A"/>
  <text x="48" y="988" font-family="Arial, sans-serif" font-size="12" fill="#000000">切换角色</text>
  <rect x="20" y="998" width="36" height="36" fill="#D0D0D0"/>
  <line x1="20" y1="998" x2="56" y2="1034" stroke="#FFFFFF" stroke-width="1.5"/>
  <line x1="56" y1="998" x2="20" y2="1034" stroke="#FFFFFF" stroke-width="1.5"/>
  <text x="68" y="1016" font-family="Arial, sans-serif" font-size="12" fill="#000000">张研究员</text>
  <text x="68" y="1032" font-family="Arial, sans-serif" font-size="10" fill="#7A7A7A">人因工程师</text>
  <text x="240" y="30" font-family="Arial, sans-serif" font-size="12" fill="#7A7A7A">GripFit  ›  人因工程师</text>
  <text x="240" y="52" font-family="Arial, sans-serif" font-size="11" fill="#7A7A7A">← 旗舰机握持舒适度研究 A2026  /  方案执行</text>
  <rect x="1122" y="14" width="20" height="20" fill="#D9D9D9"/>
  <rect x="240" y="56" width="26" height="26" fill="#7A7A7A"/>
  <text x="253" y="74" font-family="Arial, sans-serif" font-size="11" font-weight="700" fill="#FFFFFF" text-anchor="middle">1</text>
  <text x="253" y="97" font-family="Arial, sans-serif" font-size="10" font-weight="700" fill="#000000" text-anchor="middle">量表设计</text>
  <line x1="266" y1="69" x2="372" y2="69" stroke="#BFBFBF" stroke-width="1"/>
  <rect x="372" y="56" width="26" height="26" fill="#FFFFFF" stroke="#BFBFBF" stroke-width="1"/>
  <text x="385" y="74" font-family="Arial, sans-serif" font-size="9" fill="#BFBFBF" text-anchor="middle">2</text>
  <text x="385" y="97" font-family="Arial, sans-serif" font-size="9" fill="#BFBFBF" text-anchor="middle">被试方案</text>
  <line x1="398" y1="69" x2="504" y2="69" stroke="#BFBFBF" stroke-width="1"/>
  <rect x="504" y="56" width="26" height="26" fill="#FFFFFF" stroke="#BFBFBF" stroke-width="1"/>
  <text x="517" y="74" font-family="Arial, sans-serif" font-size="9" fill="#BFBFBF" text-anchor="middle">3</text>
  <text x="517" y="97" font-family="Arial, sans-serif" font-size="9" fill="#BFBFBF" text-anchor="middle">场地安排</text>
  <line x1="530" y1="69" x2="636" y2="69" stroke="#BFBFBF" stroke-width="1"/>
  <rect x="636" y="56" width="26" height="26" fill="#FFFFFF" stroke="#BFBFBF" stroke-width="1"/>
  <text x="649" y="74" font-family="Arial, sans-serif" font-size="9" fill="#BFBFBF" text-anchor="middle">4</text>
  <text x="649" y="97" font-family="Arial, sans-serif" font-size="9" fill="#BFBFBF" text-anchor="middle">设备准备</text>
  <line x1="662" y1="69" x2="768" y2="69" stroke="#BFBFBF" stroke-width="1"/>
  <rect x="768" y="56" width="26" height="26" fill="#FFFFFF" stroke="#BFBFBF" stroke-width="1"/>
  <text x="781" y="74" font-family="Arial, sans-serif" font-size="9" fill="#BFBFBF" text-anchor="middle">5</text>
  <text x="781" y="97" font-family="Arial, sans-serif" font-size="9" fill="#BFBFBF" text-anchor="middle">数据采集</text>
  <line x1="794" y1="69" x2="900" y2="69" stroke="#BFBFBF" stroke-width="1"/>
  <rect x="900" y="56" width="26" height="26" fill="#FFFFFF" stroke="#BFBFBF" stroke-width="1"/>
  <text x="913" y="74" font-family="Arial, sans-serif" font-size="9" fill="#BFBFBF" text-anchor="middle">6</text>
  <text x="913" y="97" font-family="Arial, sans-serif" font-size="9" fill="#BFBFBF" text-anchor="middle">分析报告</text>
  <text x="240" y="124" font-family="Arial, sans-serif" font-size="18" font-weight="700" fill="#000000">量表设计·方案规划</text>
  <text x="240" y="144" font-family="Arial, sans-serif" font-size="11" fill="#7A7A7A">范式：主观量表评定 + 比较判断法  覆盖 2 个研究维度</text>
  <text x="1060" y="124" font-family="Arial, sans-serif" font-size="11" fill="#7A7A7A">步骤 1/6</text>
  <rect x="240" y="154" width="140" height="30" fill="#D9D9D9" stroke="#000000" stroke-width="1"/>
  <text x="310" y="174" font-family="Arial, sans-serif" font-size="12" fill="#000000" text-anchor="middle">① 测量规划</text>
  <rect x="382" y="154" width="140" height="30" fill="#FFFFFF" stroke="#BFBFBF" stroke-width="1"/>
  <text x="452" y="174" font-family="Arial, sans-serif" font-size="12" fill="#7A7A7A" text-anchor="middle">② 量表配置</text>
  <rect x="524" y="154" width="140" height="30" fill="#FFFFFF" stroke="#BFBFBF" stroke-width="1"/>
  <text x="594" y="174" font-family="Arial, sans-serif" font-size="12" fill="#7A7A7A" text-anchor="middle">③ 发放设置</text>
  <rect x="240" y="196" width="880" height="34" fill="#D9D9D9"/>
  <text x="260" y="218" font-family="Arial, sans-serif" font-size="12" font-weight="700" fill="#000000">测量维度</text>
  <text x="560" y="218" font-family="Arial, sans-serif" font-size="12" font-weight="700" fill="#000000">量表类型</text>
  <text x="720" y="218" font-family="Arial, sans-serif" font-size="12" font-weight="700" fill="#000000">题目数</text>
  <text x="820" y="218" font-family="Arial, sans-serif" font-size="12" font-weight="700" fill="#000000">理论依据</text>
  <rect x="240" y="230" width="880" height="98" fill="#F5F5F5" stroke="#BFBFBF" stroke-width="1"/>
  <text x="260" y="258" font-family="Arial, sans-serif" font-size="13" font-weight="700" fill="#000000">整体握持舒适度</text>
  <text x="560" y="258" font-family="Arial, sans-serif" font-size="12" fill="#000000">Likert 9点</text>
  <rect x="718" y="242" width="50" height="22" fill="#BFBFBF" stroke="#7A7A7A" stroke-width="1"/>
  <text x="743" y="257" font-family="Arial, sans-serif" font-size="11" fill="#000000" text-anchor="middle">3 题</text>
  <text x="820" y="258" font-family="Arial, sans-serif" font-size="11" fill="#7A7A7A">xxxxx...</text>
  <text x="260" y="288" font-family="Arial, sans-serif" font-size="10" fill="#7A7A7A">xxxxxxxxxxxxxxxxxxxxxxxxxx</text>
  <rect x="240" y="338" width="880" height="98" fill="#FFFFFF" stroke="#BFBFBF" stroke-width="1"/>
  <text x="260" y="366" font-family="Arial, sans-serif" font-size="13" font-weight="700" fill="#000000">单手操作便利性</text>
  <text x="560" y="366" font-family="Arial, sans-serif" font-size="12" fill="#000000">Likert 9点</text>
  <rect x="718" y="350" width="50" height="22" fill="#BFBFBF" stroke="#7A7A7A" stroke-width="1"/>
  <text x="743" y="365" font-family="Arial, sans-serif" font-size="11" fill="#000000" text-anchor="middle">3 题</text>
  <text x="820" y="366" font-family="Arial, sans-serif" font-size="11" fill="#7A7A7A">xxxxx...</text>
  <text x="260" y="396" font-family="Arial, sans-serif" font-size="10" fill="#7A7A7A">xxxxxxxxxxxxxxxxxxxxxxxxxx</text>
  <rect x="240" y="446" width="880" height="98" fill="#F5F5F5" stroke="#BFBFBF" stroke-width="1"/>
  <text x="260" y="474" font-family="Arial, sans-serif" font-size="13" font-weight="700" fill="#000000">握持稳定性</text>
  <text x="560" y="474" font-family="Arial, sans-serif" font-size="12" fill="#000000">Likert 9点</text>
  <rect x="718" y="458" width="50" height="22" fill="#BFBFBF" stroke="#7A7A7A" stroke-width="1"/>
  <text x="743" y="473" font-family="Arial, sans-serif" font-size="11" fill="#000000" text-anchor="middle">2 题</text>
  <text x="820" y="474" font-family="Arial, sans-serif" font-size="11" fill="#7A7A7A">xxxxx...</text>
  <text x="260" y="504" font-family="Arial, sans-serif" font-size="10" fill="#7A7A7A">xxxxxxxxxxxxxxxxxxxxxxxxxx</text>
  <rect x="240" y="554" width="880" height="98" fill="#FFFFFF" stroke="#BFBFBF" stroke-width="1"/>
  <text x="260" y="582" font-family="Arial, sans-serif" font-size="13" font-weight="700" fill="#000000">长时间握持疲劳</text>
  <text x="560" y="582" font-family="Arial, sans-serif" font-size="12" fill="#000000">Likert 9点</text>
  <rect x="718" y="566" width="50" height="22" fill="#BFBFBF" stroke="#7A7A7A" stroke-width="1"/>
  <text x="743" y="581" font-family="Arial, sans-serif" font-size="11" fill="#000000" text-anchor="middle">3 题</text>
  <text x="820" y="582" font-family="Arial, sans-serif" font-size="11" fill="#7A7A7A">xxxxx...</text>
  <text x="260" y="612" font-family="Arial, sans-serif" font-size="10" fill="#7A7A7A">xxxxxxxxxxxxxxxxxxxxxxxxxx</text>
  <rect x="240" y="662" width="880" height="98" fill="#F5F5F5" stroke="#BFBFBF" stroke-width="1"/>
  <text x="260" y="690" font-family="Arial, sans-serif" font-size="13" font-weight="700" fill="#000000">外观与形态适配</text>
  <text x="560" y="690" font-family="Arial, sans-serif" font-size="12" fill="#000000">SD语义差异</text>
  <rect x="718" y="674" width="50" height="22" fill="#BFBFBF" stroke="#7A7A7A" stroke-width="1"/>
  <text x="743" y="689" font-family="Arial, sans-serif" font-size="11" fill="#000000" text-anchor="middle">6 题</text>
  <text x="820" y="690" font-family="Arial, sans-serif" font-size="11" fill="#7A7A7A">xxxxx...</text>
  <text x="260" y="720" font-family="Arial, sans-serif" font-size="10" fill="#7A7A7A">xxxxxxxxxxxxxxxxxxxxxxxxxx</text>
  <rect x="240" y="770" width="880" height="98" fill="#FFFFFF" stroke="#BFBFBF" stroke-width="1"/>
  <text x="260" y="798" font-family="Arial, sans-serif" font-size="13" font-weight="700" fill="#000000">综合满意度</text>
  <text x="560" y="798" font-family="Arial, sans-serif" font-size="12" fill="#000000">NPS/总体评分</text>
  <rect x="718" y="782" width="50" height="22" fill="#BFBFBF" stroke="#7A7A7A" stroke-width="1"/>
  <text x="743" y="797" font-family="Arial, sans-serif" font-size="11" fill="#000000" text-anchor="middle">1 题</text>
  <text x="820" y="798" font-family="Arial, sans-serif" font-size="11" fill="#7A7A7A">xxxxx...</text>
  <text x="260" y="828" font-family="Arial, sans-serif" font-size="10" fill="#7A7A7A">xxxxxxxxxxxxxxxxxxxxxxxxxx</text>
  <rect x="240" y="900" width="80" height="34" fill="#FFFFFF" stroke="#000000" stroke-width="1"/>
  <text x="280" y="922" font-family="Arial, sans-serif" font-size="12" fill="#000000" text-anchor="middle">返回项目</text>
  <rect x="820" y="900" width="300" height="34" fill="#D9D9D9" stroke="#000000" stroke-width="1"/>
  <text x="970" y="922" font-family="Arial, sans-serif" font-size="12" font-weight="700" fill="#000000" text-anchor="middle">量表方案确定·下一步：被试方案 →</text>
</svg>