<svg xmlns="http://www.w3.org/2000/svg" viewBox="0 0 1162 730" width="1162" height="730">
  <rect x="0" y="0" width="1162" height="730" fill="#FFFFFF"/>
  <rect x="0" y="0" width="220" height="730" fill="#D9D9D9"/>
  <rect x="20" y="20" width="48" height="48" fill="#D0D0D0"/>
  <line x1="20" y1="20" x2="68" y2="68" stroke="#FFFFFF" stroke-width="2"/>
  <line x1="68" y1="20" x2="20" y2="68" stroke="#FFFFFF" stroke-width="2"/>
  <text x="80" y="40" font-family="Arial, sans-serif" font-size="16" font-weight="700" fill="#000000">GripFit ToB</text>
  <text x="80" y="58" font-family="Arial, sans-serif" font-size="11" fill="#7A7A7A">xxxxxxx</text>
  <text x="20" y="120" font-family="Arial, sans-serif" font-size="11" fill="#7A7A7A" letter-spacing="1">工作区</text>
  <rect x="0" y="122" width="220" height="36" fill="#BFBFBF"/>
  <text x="48" y="140" font-family="Arial, sans-serif" font-size="13" fill="#000000">工作台</text>
  <text x="48" y="177" font-family="Arial, sans-serif" font-size="13" fill="#000000">设计参考工具</text>
  <text x="48" y="214" font-family="Arial, sans-serif" font-size="13" fill="#000000">样机AI评审</text>

  <text x="20" y="290" font-family="Arial, sans-serif" font-size="11" fill="#7A7A7A" letter-spacing="1">资源</text>
  <text x="48" y="325" font-family="Arial, sans-serif" font-size="13" fill="#000000">设计库</text>
  <text x="48" y="360" font-family="Arial, sans-serif" font-size="13" fill="#000000">素材归档</text>
  <text x="48" y="395" font-family="Arial, sans-serif" font-size="13" fill="#000000">系统设置</text>

  <rect x="0" y="610" width="220" height="1" fill="#7A7A7A"/>
  <text x="48" y="640" font-family="Arial, sans-serif" font-size="12" fill="#000000">切换角色</text>
  <rect x="20" y="662" width="36" height="36" fill="#D0D0D0"/>
  <line x1="20" y1="662" x2="56" y2="698" stroke="#FFFFFF" stroke-width="2"/>
  <line x1="56" y1="662" x2="20" y2="698" stroke="#FFFFFF" stroke-width="2"/>
  <text x="68" y="677" font-family="Arial, sans-serif" font-size="12" fill="#000000">xxx设计师</text>
  <text x="68" y="693" font-family="Arial, sans-serif" font-size="10" fill="#7A7A7A">xxxxxxx</text>
  <rect x="220" y="0" width="942" height="56" fill="#FFFFFF"/>
  <text x="252" y="34" font-family="Arial, sans-serif" font-size="12" fill="#7A7A7A">GripFit  ›  xxxxxxx</text>
  <rect x="1112" y="18" width="20" height="20" fill="#D9D9D9"/>
  <text x="252" y="90" font-family="Arial, sans-serif" font-size="22" font-weight="700" fill="#000000">工作台</text>
  <text x="252" y="112" font-family="Arial, sans-serif" font-size="11" fill="#7A7A7A">设计参数评估与优化建议</text>
  <!-- Notification area -->
  <rect x="240" y="130" width="900" height="48" fill="#F7F7F7" stroke="#BFBFBF" stroke-width="1"/>
  <text x="264" y="160" font-family="Arial, sans-serif" font-size="12" fill="#7A7A7A">最新通知: xxxxxxxxxxxxxxxxxxxxxxxxxxxxxxxxxxxxxxxxxx</text>
  <text x="1110" y="160" font-family="Arial, sans-serif" font-size="11" fill="#7A7A7A" text-anchor="end">查看全部</text>

  <!-- Main table card -->
  <rect x="240" y="198" width="900" height="490" fill="#FFFFFF" stroke="#BFBFBF" stroke-width="1"/>
  <text x="264" y="230" font-family="Arial, sans-serif" font-size="14" font-weight="700" fill="#000000">设计参数评估</text>

  <!-- Table header -->
  <rect x="264" y="244" width="856" height="30" fill="#D9D9D9"/>
  <text x="280" y="264" font-family="Arial, sans-serif" font-size="11" font-weight="700" fill="#000000">参数维度</text>
  <text x="480" y="264" font-family="Arial, sans-serif" font-size="11" font-weight="700" fill="#000000">当前方案</text>
  <text x="620" y="264" font-family="Arial, sans-serif" font-size="11" font-weight="700" fill="#000000">研究建议值</text>
  <text x="760" y="264" font-family="Arial, sans-serif" font-size="11" font-weight="700" fill="#000000">差异</text>
  <text x="880" y="264" font-family="Arial, sans-serif" font-size="11" font-weight="700" fill="#000000">状态</text>

  <!-- Row 1 EXPANDED -->
  <rect x="264" y="274" width="856" height="32" fill="#BFBFBF" stroke="#BFBFBF" stroke-width="1"/>
  <text x="280" y="295" font-family="Arial, sans-serif" font-size="11" font-weight="700" fill="#000000">整机宽度  ▼</text>
  <text x="480" y="295" font-family="Arial, sans-serif" font-size="11" fill="#000000">xx.x mm</text>
  <text x="620" y="295" font-family="Arial, sans-serif" font-size="11" fill="#000000">xx~xx mm</text>
  <text x="760" y="295" font-family="Arial, sans-serif" font-size="11" fill="#000000">+x.x mm</text>
  <text x="880" y="295" font-family="Arial, sans-serif" font-size="11" fill="#7A7A7A">偏高</text>

  <!-- Expanded detail sub-panel -->
  <rect x="264" y="306" width="856" height="100" fill="#F7F7F7" stroke="#BFBFBF" stroke-width="1"/>
  <text x="284" y="326" font-family="Arial, sans-serif" font-size="11" font-weight="700" fill="#000000">研究依据</text>
  <text x="284" y="344" font-family="Arial, sans-serif" font-size="11" fill="#7A7A7A">根据xx名被试握持实验数据，最优握持宽度区间为xx~xx mm，超出此范围舒适度评分显著下降。</text>
  <text x="284" y="370" font-family="Arial, sans-serif" font-size="11" font-weight="700" fill="#000000">优化建议</text>
  <text x="284" y="388" font-family="Arial, sans-serif" font-size="11" fill="#7A7A7A">建议将宽度调整至xx~xx mm区间，可提升握持舒适度评分约xx%。</text>

  <!-- Remaining rows -->
  <rect x="264" y="406" width="856" height="32" fill="#FFFFFF" stroke="#BFBFBF" stroke-width="1"/>
  <text x="280" y="427" font-family="Arial, sans-serif" font-size="11" fill="#000000">整机长度</text>
  <text x="480" y="427" font-family="Arial, sans-serif" font-size="11" fill="#000000">xxx mm</text>
  <text x="620" y="427" font-family="Arial, sans-serif" font-size="11" fill="#000000">xx~xxx mm</text>
  <text x="760" y="427" font-family="Arial, sans-serif" font-size="11" fill="#000000">+x mm</text>
  <text x="880" y="427" font-family="Arial, sans-serif" font-size="11" fill="#000000">适中</text>

  <rect x="264" y="438" width="856" height="32" fill="#F7F7F7" stroke="#BFBFBF" stroke-width="1"/>
  <text x="280" y="459" font-family="Arial, sans-serif" font-size="11" fill="#000000">整机厚度</text>
  <text x="480" y="459" font-family="Arial, sans-serif" font-size="11" fill="#000000">x.x mm</text>
  <text x="620" y="459" font-family="Arial, sans-serif" font-size="11" fill="#000000">x~x mm</text>
  <text x="760" y="459" font-family="Arial, sans-serif" font-size="11" fill="#000000">-x.x mm</text>
  <text x="880" y="459" font-family="Arial, sans-serif" font-size="11" fill="#000000">适中</text>

  <rect x="264" y="470" width="856" height="32" fill="#FFFFFF" stroke="#BFBFBF" stroke-width="1"/>
  <text x="280" y="491" font-family="Arial, sans-serif" font-size="11" fill="#000000">重量</text>
  <text x="480" y="491" font-family="Arial, sans-serif" font-size="11" fill="#000000">xxx g</text>
  <text x="620" y="491" font-family="Arial, sans-serif" font-size="11" fill="#000000">xxx~xxx g</text>
  <text x="760" y="491" font-family="Arial, sans-serif" font-size="11" fill="#000000">+xx g</text>
  <text x="880" y="491" font-family="Arial, sans-serif" font-size="11" fill="#7A7A7A">偏高</text>

  <rect x="264" y="502" width="856" height="32" fill="#F7F7F7" stroke="#BFBFBF" stroke-width="1"/>
  <text x="280" y="523" font-family="Arial, sans-serif" font-size="11" fill="#000000">按键布局高度</text>
  <text x="480" y="523" font-family="Arial, sans-serif" font-size="11" fill="#000000">xx.x mm</text>
  <text x="620" y="523" font-family="Arial, sans-serif" font-size="11" fill="#000000">xx~xx mm</text>
  <text x="760" y="523" font-family="Arial, sans-serif" font-size="11" fill="#000000">0 mm</text>
  <text x="880" y="523" font-family="Arial, sans-serif" font-size="11" fill="#000000">达标</text>

  <rect x="264" y="534" width="856" height="32" fill="#FFFFFF" stroke="#BFBFBF" stroke-width="1"/>
  <text x="280" y="555" font-family="Arial, sans-serif" font-size="11" fill="#000000">握持区域弧度</text>
  <text x="480" y="555" font-family="Arial, sans-serif" font-size="11" fill="#000000">x.x mm</text>
  <text x="620" y="555" font-family="Arial, sans-serif" font-size="11" fill="#000000">x~x mm</text>
  <text x="760" y="555" font-family="Arial, sans-serif" font-size="11" fill="#000000">-x.x mm</text>
  <text x="880" y="555" font-family="Arial, sans-serif" font-size="11" fill="#000000">适中</text>
</svg>