<svg xmlns="http://www.w3.org/2000/svg" viewBox="0 0 1166 1099" width="1166" height="1099">
  <!-- Background -->
  <rect x="0" y="0" width="1166" height="1099" fill="#FFFFFF"/>

  <!-- Left sidebar (gray banner) -->
  <rect x="0" y="0" width="220" height="1099" fill="#D9D9D9"/>
  <!-- Logo block: image placeholder -->
  <rect x="20" y="20" width="48" height="48" fill="#D0D0D0"/>
  <line x1="20" y1="20" x2="68" y2="68" stroke="#FFFFFF" stroke-width="2"/>
  <line x1="68" y1="20" x2="20" y2="68" stroke="#FFFFFF" stroke-width="2"/>
  <text x="80" y="40" font-family="Arial, sans-serif" font-size="16" font-weight="700" fill="#000000">GripFit ToB</text>
  <text x="80" y="58" font-family="Arial, sans-serif" font-size="11" fill="#7A7A7A">xxxxxxx</text>

  <!-- Sidebar section header -->
  <text x="20" y="120" font-family="Arial, sans-serif" font-size="11" fill="#7A7A7A" letter-spacing="1">工作区</text>
  <!-- Menu items -->
  <rect x="0" y="140" width="220" height="36" fill="#BFBFBF"/>
  <text x="48" y="163" font-family="Arial, sans-serif" font-size="13" fill="#000000">工作看板</text>
  <text x="48" y="200" font-family="Arial, sans-serif" font-size="13" fill="#000000">xxxxx</text>
  <text x="48" y="235" font-family="Arial, sans-serif" font-size="13" fill="#000000">xxxxx</text>

  <!-- Section header 2 -->
  <text x="20" y="290" font-family="Arial, sans-serif" font-size="11" fill="#7A7A7A" letter-spacing="1">资源</text>
  <text x="48" y="325" font-family="Arial, sans-serif" font-size="13" fill="#000000">xxxxx</text>
  <text x="48" y="360" font-family="Arial, sans-serif" font-size="13" fill="#000000">xxxxx</text>
  <text x="48" y="395" font-family="Arial, sans-serif" font-size="13" fill="#000000">xxxxx</text>

  <!-- Bottom user area -->
  <rect x="0" y="980" width="220" height="1" fill="#7A7A7A"/>
  <text x="48" y="1010" font-family="Arial, sans-serif" font-size="12" fill="#000000">切换角色</text>
  <rect x="20" y="1040" width="36" height="36" fill="#7A7A7A"/>
  <text x="38" y="1063" font-family="Arial, sans-serif" font-size="12" fill="#FFFFFF" text-anchor="middle">XX</text>
  <text x="68" y="1058" font-family="Arial, sans-serif" font-size="12" fill="#000000">xxx研究员</text>
  <text x="68" y="1074" font-family="Arial, sans-serif" font-size="10" fill="#7A7A7A">xxxxxxx</text>

  <!-- Top breadcrumb area -->
  <rect x="220" y="0" width="946" height="56" fill="#FFFFFF"/>
  <text x="252" y="34" font-family="Arial, sans-serif" font-size="12" fill="#7A7A7A">GripFit  ›  xxxxxxx</text>
  <!-- Notification bell placeholder -->
  <rect x="1116" y="18" width="20" height="20" fill="#D9D9D9"/>

  <!-- Page title -->
  <text x="252" y="100" font-family="Arial, sans-serif" font-size="22" font-weight="700" fill="#000000">工作看板</text>
  <text x="252" y="122" font-family="Arial, sans-serif" font-size="11" fill="#7A7A7A">xxxxxxxxxxxxxxxxxxxx</text>
  <!-- New project button -->
  <rect x="1014" y="86" width="120" height="34" fill="#D9D9D9" stroke="#000000" stroke-width="1"/>
  <text x="1074" y="108" font-family="Arial, sans-serif" font-size="12" fill="#000000" text-anchor="middle">+ 新建项目</text>

  <!-- 4 Stat cards row -->
  <g>
    <rect x="252" y="150" width="208" height="100" fill="#FFFFFF" stroke="#000000" stroke-width="1"/>
    <rect x="272" y="170" width="20" height="20" fill="#D9D9D9"/>
    <text x="272" y="220" font-family="Arial, sans-serif" font-size="32" font-weight="700" fill="#000000">xxx</text>
    <text x="272" y="240" font-family="Arial, sans-serif" font-size="11" fill="#7A7A7A">xxxxxxxxxx</text>

    <rect x="476" y="150" width="208" height="100" fill="#FFFFFF" stroke="#000000" stroke-width="1"/>
    <rect x="496" y="170" width="20" height="20" fill="#D9D9D9"/>
    <text x="496" y="220" font-family="Arial, sans-serif" font-size="32" font-weight="700" fill="#000000">xxx</text>
    <text x="496" y="240" font-family="Arial, sans-serif" font-size="11" fill="#7A7A7A">xxxxxxxxxx</text>

    <rect x="700" y="150" width="208" height="100" fill="#FFFFFF" stroke="#000000" stroke-width="1"/>
    <rect x="720" y="170" width="20" height="20" fill="#D9D9D9"/>
    <text x="720" y="220" font-family="Arial, sans-serif" font-size="32" font-weight="700" fill="#000000">xxx</text>
    <text x="720" y="240" font-family="Arial, sans-serif" font-size="11" fill="#7A7A7A">xxxxxxxxxx</text>

    <rect x="924" y="150" width="208" height="100" fill="#FFFFFF" stroke="#000000" stroke-width="1"/>
    <rect x="944" y="170" width="20" height="20" fill="#D9D9D9"/>
    <text x="944" y="220" font-family="Arial, sans-serif" font-size="32" font-weight="700" fill="#000000">xxx</text>
    <text x="944" y="240" font-family="Arial, sans-serif" font-size="11" fill="#7A7A7A">xxxxxxxxxx</text>
  </g>

  <!-- Project progress section title -->
  <text x="252" y="298" font-family="Arial, sans-serif" font-size="16" font-weight="700" fill="#000000">项目进度卡看</text>
  <!-- Recent activity title -->
  <text x="924" y="298" font-family="Arial, sans-serif" font-size="16" font-weight="700" fill="#000000">近期动态</text>

  <!-- Project progress kanban (3 columns of cards) -->
  <g>
    <!-- Column headers -->
    <text x="262" y="332" font-family="Arial, sans-serif" font-size="12" fill="#000000">xxxx xx</text>
    <text x="486" y="332" font-family="Arial, sans-serif" font-size="12" fill="#000000">xxxx xx</text>
    <text x="710" y="332" font-family="Arial, sans-serif" font-size="12" fill="#000000">xxxx xx</text>

    <!-- Cards col 1 -->
    <rect x="252" y="350" width="208" height="120" fill="#FFFFFF" stroke="#000000" stroke-width="1"/>
    <text x="268" y="378" font-family="Arial, sans-serif" font-size="13" font-weight="700" fill="#000000">xxxxxxxxxxxx</text>
    <text x="268" y="400" font-family="Arial, sans-serif" font-size="11" fill="#7A7A7A">xxxxxxxxxxxxxx</text>
    <rect x="268" y="420" width="176" height="6" fill="#D9D9D9"/>
    <rect x="268" y="420" width="100" height="6" fill="#7A7A7A"/>
    <text x="268" y="450" font-family="Arial, sans-serif" font-size="10" fill="#7A7A7A">xxx-xx-xx</text>

    <rect x="252" y="486" width="208" height="120" fill="#FFFFFF" stroke="#000000" stroke-width="1"/>
    <text x="268" y="514" font-family="Arial, sans-serif" font-size="13" font-weight="700" fill="#000000">xxxxxxxxxxxx</text>
    <text x="268" y="536" font-family="Arial, sans-serif" font-size="11" fill="#7A7A7A">xxxxxxxxxxxxxx</text>
    <rect x="268" y="556" width="176" height="6" fill="#D9D9D9"/>
    <rect x="268" y="556" width="60" height="6" fill="#7A7A7A"/>
    <text x="268" y="586" font-family="Arial, sans-serif" font-size="10" fill="#7A7A7A">xxx-xx-xx</text>

    <!-- Cards col 2 -->
    <rect x="476" y="350" width="208" height="120" fill="#FFFFFF" stroke="#000000" stroke-width="1"/>
    <text x="492" y="378" font-family="Arial, sans-serif" font-size="13" font-weight="700" fill="#000000">xxxxxxxxxxxx</text>
    <text x="492" y="400" font-family="Arial, sans-serif" font-size="11" fill="#7A7A7A">xxxxxxxxxxxxxx</text>
    <rect x="492" y="420" width="176" height="6" fill="#D9D9D9"/>
    <rect x="492" y="420" width="140" height="6" fill="#7A7A7A"/>
    <text x="492" y="450" font-family="Arial, sans-serif" font-size="10" fill="#7A7A7A">xxx-xx-xx</text>

    <rect x="476" y="486" width="208" height="120" fill="#FFFFFF" stroke="#000000" stroke-width="1"/>
    <text x="492" y="514" font-family="Arial, sans-serif" font-size="13" font-weight="700" fill="#000000">xxxxxxxxxxxx</text>
    <text x="492" y="536" font-family="Arial, sans-serif" font-size="11" fill="#7A7A7A">xxxxxxxxxxxxxx</text>
    <rect x="492" y="556" width="176" height="6" fill="#D9D9D9"/>
    <rect x="492" y="556" width="80" height="6" fill="#7A7A7A"/>
    <text x="492" y="586" font-family="Arial, sans-serif" font-size="10" fill="#7A7A7A">xxx-xx-xx</text>

    <!-- Cards col 3 -->
    <rect x="700" y="350" width="208" height="120" fill="#FFFFFF" stroke="#000000" stroke-width="1"/>
    <text x="716" y="378" font-family="Arial, sans-serif" font-size="13" font-weight="700" fill="#000000">xxxxxxxxxxxx</text>
    <text x="716" y="400" font-family="Arial, sans-serif" font-size="11" fill="#7A7A7A">xxxxxxxxxxxxxx</text>
    <rect x="716" y="420" width="176" height="6" fill="#D9D9D9"/>
    <rect x="716" y="420" width="170" height="6" fill="#7A7A7A"/>
    <text x="716" y="450" font-family="Arial, sans-serif" font-size="10" fill="#7A7A7A">xxx-xx-xx</text>

    <rect x="700" y="486" width="208" height="120" fill="#FFFFFF" stroke="#000000" stroke-width="1"/>
    <text x="716" y="514" font-family="Arial, sans-serif" font-size="13" font-weight="700" fill="#000000">xxxxxxxxxxxx</text>
    <text x="716" y="536" font-family="Arial, sans-serif" font-size="11" fill="#7A7A7A">xxxxxxxxxxxxxx</text>
    <rect x="716" y="556" width="176" height="6" fill="#D9D9D9"/>
    <rect x="716" y="556" width="120" height="6" fill="#7A7A7A"/>
    <text x="716" y="586" font-family="Arial, sans-serif" font-size="10" fill="#7A7A7A">xxx-xx-xx</text>
  </g>

  <!-- Recent activity panel -->
  <rect x="924" y="318" width="208" height="288" fill="#FFFFFF" stroke="#000000" stroke-width="1"/>
  <g font-family="Arial, sans-serif" font-size="11" fill="#000000">
    <text x="940" y="346">• xxxxxxxxxx</text>
    <text x="956" y="362" fill="#7A7A7A">xxx-xx-xx xx:xx</text>
    <text x="940" y="392">• xxxxxxxxxx</text>
    <text x="956" y="408" fill="#7A7A7A">xxx-xx-xx xx:xx</text>
    <text x="940" y="438">• xxxxxxxxxx</text>
    <text x="956" y="454" fill="#7A7A7A">xxx-xx-xx xx:xx</text>
    <text x="940" y="484">• xxxxxxxxxx</text>
    <text x="956" y="500" fill="#7A7A7A">xxx-xx-xx xx:xx</text>
    <text x="940" y="530">• xxxxxxxxxx</text>
    <text x="956" y="546" fill="#7A7A7A">xxx-xx-xx xx:xx</text>
    <text x="940" y="576">• xxxxxxxxxx</text>
    <text x="956" y="592" fill="#7A7A7A">xxx-xx-xx xx:xx</text>
  </g>

  <!-- Bottom chart section -->
  <text x="252" y="668" font-family="Arial, sans-serif" font-size="16" font-weight="700" fill="#000000">实验数据趋势</text>
  <text x="370" y="668" font-family="Arial, sans-serif" font-size="11" fill="#7A7A7A">（近 7 天）</text>
  <rect x="252" y="690" width="880" height="320" fill="#FFFFFF" stroke="#000000" stroke-width="1"/>
  <!-- Chart placeholder -->
  <rect x="282" y="720" width="820" height="240" fill="#F0F0F0"/>
  <line x1="282" y1="720" x2="1102" y2="960" stroke="#BFBFBF" stroke-width="1"/>
  <line x1="1102" y1="720" x2="282" y2="960" stroke="#BFBFBF" stroke-width="1"/>
  <text x="692" y="845" font-family="Arial, sans-serif" font-size="14" fill="#7A7A7A" text-anchor="middle">xxxxxxxxxxx</text>
  <!-- Chart legend -->
  <rect x="282" y="980" width="10" height="10" fill="#7A7A7A"/>
  <text x="298" y="989" font-family="Arial, sans-serif" font-size="10" fill="#000000">xxxxx</text>
  <rect x="362" y="980" width="10" height="10" fill="#BFBFBF"/>
  <text x="378" y="989" font-family="Arial, sans-serif" font-size="10" fill="#000000">xxxxx</text>
  <rect x="442" y="980" width="10" height="10" fill="#D9D9D9"/>
  <text x="458" y="989" font-family="Arial, sans-serif" font-size="10" fill="#000000">xxxxx</text>

</svg>
