<svg xmlns="http://www.w3.org/2000/svg" viewBox="0 0 1162 730" width="1162" height="730">
  <rect x="0" y="0" width="1162" height="730" fill="#FFFFFF"/>
  <rect x="0" y="0" width="220" height="730" fill="#D9D9D9"/>
  <rect x="20" y="20" width="48" height="48" fill="#D0D0D0"/>
  <line x1="20" y1="20" x2="68" y2="68" stroke="#FFFFFF" stroke-width="2"/>
  <line x1="68" y1="20" x2="20" y2="68" stroke="#FFFFFF" stroke-width="2"/>
  <text x="80" y="40" font-family="Arial, sans-serif" font-size="16" font-weight="700" fill="#000000">GripFit ToB</text>
  <text x="80" y="58" font-family="Arial, sans-serif" font-size="11" fill="#7A7A7A">人因工程师</text>
  <text x="20" y="116" font-family="Arial, sans-serif" font-size="11" fill="#7A7A7A">工作区</text>
  <rect x="0" y="162" width="220" height="30" fill="#BFBFBF"/>
  <text x="48" y="144" font-family="Arial, sans-serif" font-size="13" fill="#000000">工作看板</text>
  <text x="48" y="180" font-family="Arial, sans-serif" font-size="13" fill="#000000">我的项目</text>
  <text x="48" y="216" font-family="Arial, sans-serif" font-size="13" fill="#000000">+ 新建项目</text>
  <text x="20" y="258" font-family="Arial, sans-serif" font-size="11" fill="#7A7A7A">资源</text>
  <text x="48" y="285" font-family="Arial, sans-serif" font-size="13" fill="#000000">被试库</text>
  <text x="48" y="317" font-family="Arial, sans-serif" font-size="13" fill="#000000">数据归档</text>
  <text x="48" y="349" font-family="Arial, sans-serif" font-size="13" fill="#000000">系统设置</text>
  <rect x="0" y="648" width="220" height="1" fill="#7A7A7A"/>
  <text x="48" y="672" font-family="Arial, sans-serif" font-size="12" fill="#000000">切换角色</text>
  <rect x="20" y="682" width="36" height="36" fill="#D0D0D0"/>
  <line x1="20" y1="682" x2="56" y2="718" stroke="#FFFFFF" stroke-width="1.5"/>
  <line x1="56" y1="682" x2="20" y2="718" stroke="#FFFFFF" stroke-width="1.5"/>
  <text x="68" y="700" font-family="Arial, sans-serif" font-size="12" fill="#000000">张研究员</text>
  <text x="68" y="716" font-family="Arial, sans-serif" font-size="10" fill="#7A7A7A">人因工程师</text>
  <text x="240" y="30" font-family="Arial, sans-serif" font-size="12" fill="#7A7A7A">GripFit  ›  人因工程师</text>
  <text x="240" y="50" font-family="Arial, sans-serif" font-size="11" fill="#7A7A7A">← 旗舰机握持舒适度研究 A2026  /  方案执行</text>
  <rect x="1122" y="14" width="20" height="20" fill="#D9D9D9"/>
  <rect x="240" y="58" width="26" height="26" fill="#7A7A7A"/>
  <text x="253" y="76" font-family="Arial, sans-serif" font-size="9" fill="#FFFFFF" text-anchor="middle">1</text>
  <text x="253" y="99" font-family="Arial, sans-serif" font-size="9" fill="#7A7A7A" text-anchor="middle">量表设计</text>
  <line x1="266" y1="71" x2="372" y2="71" stroke="#BFBFBF" stroke-width="1"/>
  <rect x="372" y="58" width="26" height="26" fill="#7A7A7A"/>
  <text x="385" y="76" font-family="Arial, sans-serif" font-size="11" font-weight="700" fill="#FFFFFF" text-anchor="middle">2</text>
  <text x="385" y="99" font-family="Arial, sans-serif" font-size="10" font-weight="700" fill="#000000" text-anchor="middle">被试方案</text>
  <line x1="398" y1="71" x2="504" y2="71" stroke="#BFBFBF" stroke-width="1"/>
  <rect x="504" y="58" width="26" height="26" fill="#FFFFFF" stroke="#BFBFBF" stroke-width="1"/>
  <text x="517" y="76" font-family="Arial, sans-serif" font-size="9" fill="#BFBFBF" text-anchor="middle">3</text>
  <text x="517" y="99" font-family="Arial, sans-serif" font-size="9" fill="#BFBFBF" text-anchor="middle">场地安排</text>
  <line x1="530" y1="71" x2="636" y2="71" stroke="#BFBFBF" stroke-width="1"/>
  <rect x="636" y="58" width="26" height="26" fill="#FFFFFF" stroke="#BFBFBF" stroke-width="1"/>
  <text x="649" y="76" font-family="Arial, sans-serif" font-size="9" fill="#BFBFBF" text-anchor="middle">4</text>
  <text x="649" y="99" font-family="Arial, sans-serif" font-size="9" fill="#BFBFBF" text-anchor="middle">设备准备</text>
  <line x1="662" y1="71" x2="768" y2="71" stroke="#BFBFBF" stroke-width="1"/>
  <rect x="768" y="58" width="26" height="26" fill="#FFFFFF" stroke="#BFBFBF" stroke-width="1"/>
  <text x="781" y="76" font-family="Arial, sans-serif" font-size="9" fill="#BFBFBF" text-anchor="middle">5</text>
  <text x="781" y="99" font-family="Arial, sans-serif" font-size="9" fill="#BFBFBF" text-anchor="middle">数据采集</text>
  <line x1="794" y1="71" x2="900" y2="71" stroke="#BFBFBF" stroke-width="1"/>
  <rect x="900" y="58" width="26" height="26" fill="#FFFFFF" stroke="#BFBFBF" stroke-width="1"/>
  <text x="913" y="76" font-family="Arial, sans-serif" font-size="9" fill="#BFBFBF" text-anchor="middle">6</text>
  <text x="913" y="99" font-family="Arial, sans-serif" font-size="9" fill="#BFBFBF" text-anchor="middle">分析报告</text>
  <text x="240" y="122" font-family="Arial, sans-serif" font-size="18" font-weight="700" fill="#000000">被试方案规划</text>
  <text x="1060" y="122" font-family="Arial, sans-serif" font-size="11" fill="#7A7A7A">步骤 2/6</text>
  <rect x="240" y="136" width="260" height="30" fill="#FFFFFF" stroke="#BFBFBF" stroke-width="1"/>
  <text x="370" y="156" font-family="Arial, sans-serif" font-size="12" fill="#7A7A7A" text-anchor="middle">① 被试筛选标准</text>
  <rect x="502" y="136" width="260" height="30" fill="#D9D9D9" stroke="#000000" stroke-width="1"/>
  <text x="632" y="156" font-family="Arial, sans-serif" font-size="12" fill="#000000" text-anchor="middle">② 招募与管理</text>
  <text x="800" y="134" font-family="Arial, sans-serif" font-size="22" font-weight="700" fill="#000000">5</text>
  <text x="800" y="150" font-family="Arial, sans-serif" font-size="10" fill="#7A7A7A">已确认</text>
  <text x="892" y="134" font-family="Arial, sans-serif" font-size="22" font-weight="700" fill="#000000">3</text>
  <text x="892" y="150" font-family="Arial, sans-serif" font-size="10" fill="#7A7A7A">已发送</text>
  <text x="984" y="134" font-family="Arial, sans-serif" font-size="22" font-weight="700" fill="#000000">1</text>
  <text x="984" y="150" font-family="Arial, sans-serif" font-size="10" fill="#7A7A7A">已拒绝</text>
  <text x="1076" y="134" font-family="Arial, sans-serif" font-size="22" font-weight="700" fill="#000000">2</text>
  <text x="1076" y="150" font-family="Arial, sans-serif" font-size="10" fill="#7A7A7A">未回复</text>
  <rect x="240" y="180" width="700" height="36" fill="#F5F5F5" stroke="#BFBFBF" stroke-width="1"/>
  <text x="256" y="203" font-family="Arial, sans-serif" font-size="12" fill="#7A7A7A">有 3 位被试已收到邀请，可一键模拟确认</text>
  <rect x="950" y="180" width="170" height="36" fill="#D9D9D9" stroke="#000000" stroke-width="1"/>
  <text x="1035" y="203" font-family="Arial, sans-serif" font-size="11" font-weight="700" fill="#000000" text-anchor="middle">模拟全部确认</text>
  <text x="240" y="252" font-family="Arial, sans-serif" font-size="14" font-weight="700" fill="#000000">招募进度</text>
  <text x="1000" y="252" font-family="Arial, sans-serif" font-size="11" fill="#7A7A7A">已确认 5 / 目标 20 人</text>
  <rect x="240" y="264" width="880" height="10" fill="#D9D9D9"/>
  <rect x="240" y="264" width="220" height="10" fill="#7A7A7A"/>
  <text x="240" y="292" font-family="Arial, sans-serif" font-size="11" fill="#7A7A7A">还需 15 人确认</text>
  <text x="240" y="328" font-family="Arial, sans-serif" font-size="14" font-weight="700" fill="#000000">被试状态跟踪</text>
  <rect x="1050" y="316" width="110" height="28" fill="#D9D9D9" stroke="#000000" stroke-width="1"/>
  <text x="1105" y="335" font-family="Arial, sans-serif" font-size="11" fill="#000000" text-anchor="middle">一键邀请</text>
  <rect x="240" y="354" width="880" height="30" fill="#D9D9D9"/>
  <text x="256" y="374" font-family="Arial, sans-serif" font-size="11" font-weight="700" fill="#000000">编号</text>
  <text x="360" y="374" font-family="Arial, sans-serif" font-size="11" font-weight="700" fill="#000000">手长</text>
  <text x="480" y="374" font-family="Arial, sans-serif" font-size="11" font-weight="700" fill="#000000">手宽</text>
  <text x="600" y="374" font-family="Arial, sans-serif" font-size="11" font-weight="700" fill="#000000">握持</text>
  <text x="720" y="374" font-family="Arial, sans-serif" font-size="11" font-weight="700" fill="#000000">年龄段</text>
  <text x="860" y="374" font-family="Arial, sans-serif" font-size="11" font-weight="700" fill="#000000">邀请状态</text>
  <rect x="240" y="384" width="880" height="42" fill="#F5F5F5" stroke="#BFBFBF" stroke-width="1"/>
  <text x="256" y="410" font-family="Arial, sans-serif" font-size="12" fill="#000000">P001</text>
  <text x="360" y="410" font-family="Arial, sans-serif" font-size="12" fill="#000000">178mm</text>
  <text x="480" y="410" font-family="Arial, sans-serif" font-size="12" fill="#000000">80mm</text>
  <text x="600" y="410" font-family="Arial, sans-serif" font-size="12" fill="#000000">单手</text>
  <text x="720" y="410" font-family="Arial, sans-serif" font-size="12" fill="#000000">26-35</text>
  <rect x="850" y="396" width="60" height="18" fill="#D9D9D9" stroke="#7A7A7A" stroke-width="1"/>
  <text x="880" y="409" font-family="Arial, sans-serif" font-size="9" fill="#000000" text-anchor="middle">已确认</text>
  <rect x="240" y="436" width="880" height="42" fill="#FFFFFF" stroke="#BFBFBF" stroke-width="1"/>
  <text x="256" y="462" font-family="Arial, sans-serif" font-size="12" fill="#000000">P002</text>
  <text x="360" y="462" font-family="Arial, sans-serif" font-size="12" fill="#000000">165mm</text>
  <text x="480" y="462" font-family="Arial, sans-serif" font-size="12" fill="#000000">74mm</text>
  <text x="600" y="462" font-family="Arial, sans-serif" font-size="12" fill="#000000">单手</text>
  <text x="720" y="462" font-family="Arial, sans-serif" font-size="12" fill="#000000">18-25</text>
  <rect x="850" y="448" width="60" height="18" fill="#D9D9D9" stroke="#7A7A7A" stroke-width="1"/>
  <text x="880" y="461" font-family="Arial, sans-serif" font-size="9" fill="#000000" text-anchor="middle">已确认</text>
  <rect x="240" y="488" width="880" height="42" fill="#F5F5F5" stroke="#BFBFBF" stroke-width="1"/>
  <text x="256" y="514" font-family="Arial, sans-serif" font-size="12" fill="#000000">P003</text>
  <text x="360" y="514" font-family="Arial, sans-serif" font-size="12" fill="#000000">182mm</text>
  <text x="480" y="514" font-family="Arial, sans-serif" font-size="12" fill="#000000">84mm</text>
  <text x="600" y="514" font-family="Arial, sans-serif" font-size="12" fill="#000000">双手</text>
  <text x="720" y="514" font-family="Arial, sans-serif" font-size="12" fill="#000000">26-35</text>
  <rect x="850" y="500" width="60" height="18" fill="#D9D9D9" stroke="#7A7A7A" stroke-width="1"/>
  <text x="880" y="513" font-family="Arial, sans-serif" font-size="9" fill="#000000" text-anchor="middle">已确认</text>
  <rect x="240" y="540" width="880" height="42" fill="#FFFFFF" stroke="#BFBFBF" stroke-width="1"/>
  <text x="256" y="566" font-family="Arial, sans-serif" font-size="12" fill="#000000">P004</text>
  <text x="360" y="566" font-family="Arial, sans-serif" font-size="12" fill="#000000">171mm</text>
  <text x="480" y="566" font-family="Arial, sans-serif" font-size="12" fill="#000000">78mm</text>
  <text x="600" y="566" font-family="Arial, sans-serif" font-size="12" fill="#000000">单手</text>
  <text x="720" y="566" font-family="Arial, sans-serif" font-size="12" fill="#000000">36-45</text>
  <rect x="850" y="552" width="60" height="18" fill="#D9D9D9" stroke="#7A7A7A" stroke-width="1"/>
  <text x="880" y="565" font-family="Arial, sans-serif" font-size="9" fill="#000000" text-anchor="middle">已确认</text>
</svg>