<svg xmlns="http://www.w3.org/2000/svg" viewBox="0 0 1162 730" width="1162" height="730">
  <rect x="0" y="0" width="1162" height="730" fill="#FFFFFF"/>
  <rect x="0" y="0" width="220" height="730" fill="#D9D9D9"/>
  <rect x="20" y="20" width="48" height="48" fill="#D0D0D0"/>
  <line x1="20" y1="20" x2="68" y2="68" stroke="#FFFFFF" stroke-width="2"/>
  <line x1="68" y1="20" x2="20" y2="68" stroke="#FFFFFF" stroke-width="2"/>
  <text x="80" y="40" font-family="Arial, sans-serif" font-size="16" font-weight="700" fill="#000000">GripFit ToB</text>
  <text x="80" y="58" font-family="Arial, sans-serif" font-size="11" fill="#7A7A7A">人因工程师</text>
  <text x="20" y="116" font-family="Arial, sans-serif" font-size="11" fill="#7A7A7A">工作区</text>
  <rect x="0" y="162" width="220" height="30" fill="#BFBFBF"/>
  <text x="48" y="144" font-family="Arial, sans-serif" font-size="13" fill="#000000">工作看板</text>
  <text x="48" y="180" font-family="Arial, sans-serif" font-size="13" fill="#000000">我的项目</text>
  <text x="48" y="216" font-family="Arial, sans-serif" font-size="13" fill="#000000">+ 新建项目</text>
  <text x="20" y="258" font-family="Arial, sans-serif" font-size="11" fill="#7A7A7A">资源</text>
  <text x="48" y="285" font-family="Arial, sans-serif" font-size="13" fill="#000000">被试库</text>
  <text x="48" y="317" font-family="Arial, sans-serif" font-size="13" fill="#000000">数据归档</text>
  <text x="48" y="349" font-family="Arial, sans-serif" font-size="13" fill="#000000">系统设置</text>
  <rect x="0" y="648" width="220" height="1" fill="#7A7A7A"/>
  <text x="48" y="672" font-family="Arial, sans-serif" font-size="12" fill="#000000">切换角色</text>
  <rect x="20" y="682" width="36" height="36" fill="#D0D0D0"/>
  <line x1="20" y1="682" x2="56" y2="718" stroke="#FFFFFF" stroke-width="1.5"/>
  <line x1="56" y1="682" x2="20" y2="718" stroke="#FFFFFF" stroke-width="1.5"/>
  <text x="68" y="700" font-family="Arial, sans-serif" font-size="12" fill="#000000">张研究员</text>
  <text x="68" y="716" font-family="Arial, sans-serif" font-size="10" fill="#7A7A7A">人因工程师</text>
  <text x="240" y="30" font-family="Arial, sans-serif" font-size="12" fill="#7A7A7A">GripFit  ›  人因工程师</text>
  <rect x="1122" y="14" width="20" height="20" fill="#D9D9D9"/>
  <text x="240" y="76" font-family="Arial, sans-serif" font-size="22" font-weight="700" fill="#000000">我的项目</text>
  <text x="240" y="96" font-family="Arial, sans-serif" font-size="11" fill="#7A7A7A">共 x 个项目</text>
  <rect x="900" y="60" width="120" height="32" fill="#D9D9D9" stroke="#000000" stroke-width="1"/>
  <text x="960" y="81" font-family="Arial, sans-serif" font-size="12" font-weight="700" fill="#000000" text-anchor="middle">+ 新建项目</text>
  <rect x="240" y="108" width="240" height="32" fill="#FFFFFF" stroke="#7A7A7A" stroke-width="1"/>
  <text x="254" y="129" font-family="Arial, sans-serif" font-size="11" fill="#BFBFBF">搜索项目名称、研究类型...</text>
  <rect x="240" y="150" width="100" height="28" fill="#D9D9D9" stroke="#000000" stroke-width="1"/>
  <text x="290" y="169" font-family="Arial, sans-serif" font-size="11" fill="#000000" text-anchor="middle">全部</text>
  <rect x="342" y="150" width="100" height="28" fill="#FFFFFF" stroke="#BFBFBF" stroke-width="1"/>
  <text x="392" y="169" font-family="Arial, sans-serif" font-size="11" fill="#7A7A7A" text-anchor="middle">规划中</text>
  <rect x="444" y="150" width="100" height="28" fill="#FFFFFF" stroke="#BFBFBF" stroke-width="1"/>
  <text x="494" y="169" font-family="Arial, sans-serif" font-size="11" fill="#7A7A7A" text-anchor="middle">招募被试</text>
  <rect x="546" y="150" width="100" height="28" fill="#FFFFFF" stroke="#BFBFBF" stroke-width="1"/>
  <text x="596" y="169" font-family="Arial, sans-serif" font-size="11" fill="#7A7A7A" text-anchor="middle">实验进行中</text>
  <rect x="648" y="150" width="100" height="28" fill="#FFFFFF" stroke="#BFBFBF" stroke-width="1"/>
  <text x="698" y="169" font-family="Arial, sans-serif" font-size="11" fill="#7A7A7A" text-anchor="middle">数据分析中</text>
  <rect x="750" y="150" width="100" height="28" fill="#FFFFFF" stroke="#BFBFBF" stroke-width="1"/>
  <text x="800" y="169" font-family="Arial, sans-serif" font-size="11" fill="#7A7A7A" text-anchor="middle">已完成</text>
  <rect x="852" y="150" width="100" height="28" fill="#FFFFFF" stroke="#BFBFBF" stroke-width="1"/>
  <text x="902" y="169" font-family="Arial, sans-serif" font-size="11" fill="#7A7A7A" text-anchor="middle">已归档</text>
  <rect x="240" y="190" width="880" height="140" fill="#FFFFFF" stroke="#000000" stroke-width="1"/>
  <text x="260" y="218" font-family="Arial, sans-serif" font-size="14" font-weight="700" fill="#000000">旗舰机握持舒适度研究 A2026</text>
  <rect x="408" y="202" width="64" height="18" fill="#D9D9D9" stroke="#7A7A7A" stroke-width="1"/>
  <text x="440" y="215" font-family="Arial, sans-serif" font-size="9" fill="#000000" text-anchor="middle">招募被试</text>
  <text x="260" y="242" font-family="Arial, sans-serif" font-size="11" fill="#7A7A7A">握持舒适度  形态适配性</text>
  <text x="260" y="264" font-family="Arial, sans-serif" font-size="11" fill="#7A7A7A">xxxxxxxxxxxxxxxxxxxxxxxxxxxxxxxxxxxxxxxx</text>
  <rect x="260" y="286" width="600" height="6" fill="#D9D9D9"/>
  <rect x="260" y="286" width="107" height="6" fill="#7A7A7A"/>
  <text x="260" y="308" font-family="Arial, sans-serif" font-size="10" fill="#7A7A7A">实验进度 18%    截止 xxxx-xx-xx</text>
  <rect x="240" y="350" width="880" height="140" fill="#FFFFFF" stroke="#000000" stroke-width="1"/>
  <text x="260" y="378" font-family="Arial, sans-serif" font-size="14" font-weight="700" fill="#000000">Fold Z4 热控制体验研究</text>
  <rect x="408" y="362" width="64" height="18" fill="#D9D9D9" stroke="#7A7A7A" stroke-width="1"/>
  <text x="440" y="375" font-family="Arial, sans-serif" font-size="9" fill="#000000" text-anchor="middle">实验进行中</text>
  <text x="260" y="402" font-family="Arial, sans-serif" font-size="11" fill="#7A7A7A">握持舒适度  形态适配性</text>
  <text x="260" y="424" font-family="Arial, sans-serif" font-size="11" fill="#7A7A7A">xxxxxxxxxxxxxxxxxxxxxxxxxxxxxxxxxxxxxxxx</text>
  <rect x="260" y="446" width="600" height="6" fill="#D9D9D9"/>
  <rect x="260" y="446" width="390" height="6" fill="#7A7A7A"/>
  <text x="260" y="468" font-family="Arial, sans-serif" font-size="10" fill="#7A7A7A">实验进度 65%    截止 xxxx-xx-xx</text>
  <rect x="240" y="510" width="880" height="140" fill="#FFFFFF" stroke="#000000" stroke-width="1"/>
  <text x="260" y="538" font-family="Arial, sans-serif" font-size="14" font-weight="700" fill="#000000">X Ultra 振动感知量化实验</text>
  <rect x="408" y="522" width="64" height="18" fill="#D9D9D9" stroke="#7A7A7A" stroke-width="1"/>
  <text x="440" y="535" font-family="Arial, sans-serif" font-size="9" fill="#000000" text-anchor="middle">数据分析中</text>
  <text x="260" y="562" font-family="Arial, sans-serif" font-size="11" fill="#7A7A7A">握持舒适度  形态适配性</text>
  <text x="260" y="584" font-family="Arial, sans-serif" font-size="11" fill="#7A7A7A">xxxxxxxxxxxxxxxxxxxxxxxxxxxxxxxxxxxxxxxx</text>
  <rect x="260" y="606" width="600" height="6" fill="#D9D9D9"/>
  <rect x="260" y="606" width="527" height="6" fill="#7A7A7A"/>
  <text x="260" y="628" font-family="Arial, sans-serif" font-size="10" fill="#7A7A7A">实验进度 88%    截止 xxxx-xx-xx</text>
</svg>