<svg xmlns="http://www.w3.org/2000/svg" viewBox="0 0 1162 730" width="1162" height="730">
  <rect x="0" y="0" width="1162" height="730" fill="#FFFFFF"/>
  <rect x="0" y="0" width="220" height="730" fill="#D9D9D9"/>
  <rect x="20" y="20" width="48" height="48" fill="#D0D0D0"/>
  <line x1="20" y1="20" x2="68" y2="68" stroke="#FFFFFF" stroke-width="2"/>
  <line x1="68" y1="20" x2="20" y2="68" stroke="#FFFFFF" stroke-width="2"/>
  <text x="80" y="40" font-family="Arial, sans-serif" font-size="16" font-weight="700" fill="#000000">GripFit ToB</text>
  <text x="80" y="58" font-family="Arial, sans-serif" font-size="11" fill="#7A7A7A">人因工程师</text>
  <text x="20" y="116" font-family="Arial, sans-serif" font-size="11" fill="#7A7A7A">工作区</text>
  <rect x="0" y="162" width="220" height="30" fill="#BFBFBF"/>
  <text x="48" y="144" font-family="Arial, sans-serif" font-size="13" fill="#000000">工作看板</text>
  <text x="48" y="180" font-family="Arial, sans-serif" font-size="13" fill="#000000">我的项目</text>
  <text x="48" y="216" font-family="Arial, sans-serif" font-size="13" fill="#000000">+ 新建项目</text>
  <text x="20" y="258" font-family="Arial, sans-serif" font-size="11" fill="#7A7A7A">资源</text>
  <text x="48" y="285" font-family="Arial, sans-serif" font-size="13" fill="#000000">被试库</text>
  <text x="48" y="317" font-family="Arial, sans-serif" font-size="13" fill="#000000">数据归档</text>
  <text x="48" y="349" font-family="Arial, sans-serif" font-size="13" fill="#000000">系统设置</text>
  <rect x="0" y="648" width="220" height="1" fill="#7A7A7A"/>
  <text x="48" y="672" font-family="Arial, sans-serif" font-size="12" fill="#000000">切换角色</text>
  <rect x="20" y="682" width="36" height="36" fill="#D0D0D0"/>
  <line x1="20" y1="682" x2="56" y2="718" stroke="#FFFFFF" stroke-width="1.5"/>
  <line x1="56" y1="682" x2="20" y2="718" stroke="#FFFFFF" stroke-width="1.5"/>
  <text x="68" y="700" font-family="Arial, sans-serif" font-size="12" fill="#000000">张研究员</text>
  <text x="68" y="716" font-family="Arial, sans-serif" font-size="10" fill="#7A7A7A">人因工程师</text>
  <text x="240" y="30" font-family="Arial, sans-serif" font-size="12" fill="#7A7A7A">GripFit  ›  人因工程师</text>
  <text x="240" y="50" font-family="Arial, sans-serif" font-size="11" fill="#7A7A7A">← 旗舰机握持舒适度研究 A2026  /  方案执行</text>
  <rect x="1122" y="14" width="20" height="20" fill="#D9D9D9"/>
  <rect x="240" y="58" width="26" height="26" fill="#7A7A7A"/>
  <text x="253" y="76" font-family="Arial, sans-serif" font-size="9" fill="#FFFFFF" text-anchor="middle">1</text>
  <text x="253" y="99" font-family="Arial, sans-serif" font-size="9" fill="#7A7A7A" text-anchor="middle">量表设计</text>
  <line x1="266" y1="71" x2="372" y2="71" stroke="#BFBFBF" stroke-width="1"/>
  <rect x="372" y="58" width="26" height="26" fill="#7A7A7A"/>
  <text x="385" y="76" font-family="Arial, sans-serif" font-size="9" fill="#FFFFFF" text-anchor="middle">2</text>
  <text x="385" y="99" font-family="Arial, sans-serif" font-size="9" fill="#7A7A7A" text-anchor="middle">被试方案</text>
  <line x1="398" y1="71" x2="504" y2="71" stroke="#BFBFBF" stroke-width="1"/>
  <rect x="504" y="58" width="26" height="26" fill="#7A7A7A"/>
  <text x="517" y="76" font-family="Arial, sans-serif" font-size="11" font-weight="700" fill="#FFFFFF" text-anchor="middle">3</text>
  <text x="517" y="99" font-family="Arial, sans-serif" font-size="10" font-weight="700" fill="#000000" text-anchor="middle">场地安排</text>
  <line x1="530" y1="71" x2="636" y2="71" stroke="#BFBFBF" stroke-width="1"/>
  <rect x="636" y="58" width="26" height="26" fill="#FFFFFF" stroke="#BFBFBF" stroke-width="1"/>
  <text x="649" y="76" font-family="Arial, sans-serif" font-size="9" fill="#BFBFBF" text-anchor="middle">4</text>
  <text x="649" y="99" font-family="Arial, sans-serif" font-size="9" fill="#BFBFBF" text-anchor="middle">设备准备</text>
  <line x1="662" y1="71" x2="768" y2="71" stroke="#BFBFBF" stroke-width="1"/>
  <rect x="768" y="58" width="26" height="26" fill="#FFFFFF" stroke="#BFBFBF" stroke-width="1"/>
  <text x="781" y="76" font-family="Arial, sans-serif" font-size="9" fill="#BFBFBF" text-anchor="middle">5</text>
  <text x="781" y="99" font-family="Arial, sans-serif" font-size="9" fill="#BFBFBF" text-anchor="middle">数据采集</text>
  <line x1="794" y1="71" x2="900" y2="71" stroke="#BFBFBF" stroke-width="1"/>
  <rect x="900" y="58" width="26" height="26" fill="#FFFFFF" stroke="#BFBFBF" stroke-width="1"/>
  <text x="913" y="76" font-family="Arial, sans-serif" font-size="9" fill="#BFBFBF" text-anchor="middle">6</text>
  <text x="913" y="99" font-family="Arial, sans-serif" font-size="9" fill="#BFBFBF" text-anchor="middle">分析报告</text>
  <text x="240" y="122" font-family="Arial, sans-serif" font-size="18" font-weight="700" fill="#000000">场地安排</text>
  <text x="1060" y="122" font-family="Arial, sans-serif" font-size="11" fill="#7A7A7A">步骤 3/6</text>
  <rect x="240" y="136" width="220" height="30" fill="#FFFFFF" stroke="#BFBFBF" stroke-width="1"/>
  <text x="350" y="156" font-family="Arial, sans-serif" font-size="12" fill="#7A7A7A" text-anchor="middle">① 实验室预约</text>
  <rect x="462" y="136" width="220" height="30" fill="#D9D9D9" stroke="#000000" stroke-width="1"/>
  <text x="572" y="156" font-family="Arial, sans-serif" font-size="12" fill="#000000" text-anchor="middle">② 场地准备核查</text>
  <text x="240" y="198" font-family="Arial, sans-serif" font-size="14" font-weight="700" fill="#000000">实验前</text>
  <rect x="240" y="208" width="880" height="240" fill="#FFFFFF" stroke="#BFBFBF" stroke-width="1"/>
  <rect x="256" y="218" width="18" height="18" fill="#FFFFFF" stroke="#7A7A7A" stroke-width="1"/>
  <text x="284" y="232" font-family="Arial, sans-serif" font-size="12" fill="#000000">检查室内温度并记录</text>
  <rect x="256" y="264" width="18" height="18" fill="#FFFFFF" stroke="#7A7A7A" stroke-width="1"/>
  <text x="284" y="278" font-family="Arial, sans-serif" font-size="12" fill="#000000">校准压力测量设备</text>
  <rect x="256" y="310" width="18" height="18" fill="#FFFFFF" stroke="#7A7A7A" stroke-width="1"/>
  <text x="284" y="324" font-family="Arial, sans-serif" font-size="12" fill="#000000">启动录音录像设备并测试</text>
  <rect x="256" y="356" width="18" height="18" fill="#FFFFFF" stroke="#7A7A7A" stroke-width="1"/>
  <text x="284" y="370" font-family="Arial, sans-serif" font-size="12" fill="#000000">在桌面摆放知情同意书与指导语</text>
  <rect x="256" y="402" width="18" height="18" fill="#FFFFFF" stroke="#7A7A7A" stroke-width="1"/>
  <text x="284" y="416" font-family="Arial, sans-serif" font-size="12" fill="#000000">准备样机并确认编号与状态</text>
  <text x="240" y="492" font-family="Arial, sans-serif" font-size="14" font-weight="700" fill="#000000">被试到达时</text>
  <rect x="240" y="502" width="880" height="194" fill="#FFFFFF" stroke="#BFBFBF" stroke-width="1"/>
  <rect x="256" y="512" width="18" height="18" fill="#FFFFFF" stroke="#7A7A7A" stroke-width="1"/>
  <text x="284" y="526" font-family="Arial, sans-serif" font-size="12" fill="#000000">引导被试阅读并签署知情同意书</text>
  <rect x="256" y="558" width="18" height="18" fill="#FFFFFF" stroke="#7A7A7A" stroke-width="1"/>
  <text x="284" y="572" font-family="Arial, sans-serif" font-size="12" fill="#000000">简要说明实验流程（≤5分钟）</text>
  <rect x="256" y="604" width="18" height="18" fill="#FFFFFF" stroke="#7A7A7A" stroke-width="1"/>
  <text x="284" y="618" font-family="Arial, sans-serif" font-size="12" fill="#000000">确认被试已理解评分规则</text>
  <rect x="256" y="650" width="18" height="18" fill="#FFFFFF" stroke="#7A7A7A" stroke-width="1"/>
  <text x="284" y="664" font-family="Arial, sans-serif" font-size="12" fill="#000000">记录被试手型参数（手长/手宽/虎口）</text>
  <text x="240" y="740" font-family="Arial, sans-serif" font-size="14" font-weight="700" fill="#000000">实验进行中</text>
  <rect x="240" y="750" width="880" height="148" fill="#FFFFFF" stroke="#BFBFBF" stroke-width="1"/>
  <rect x="256" y="760" width="18" height="18" fill="#FFFFFF" stroke="#7A7A7A" stroke-width="1"/>
  <text x="284" y="774" font-family="Arial, sans-serif" font-size="12" fill="#000000">启动录像并确认拍摄角度</text>
  <rect x="256" y="806" width="18" height="18" fill="#FFFFFF" stroke="#7A7A7A" stroke-width="1"/>
  <text x="284" y="820" font-family="Arial, sans-serif" font-size="12" fill="#000000">计时并记录关键节点</text>
  <rect x="256" y="852" width="18" height="18" fill="#FFFFFF" stroke="#7A7A7A" stroke-width="1"/>
  <text x="284" y="866" font-family="Arial, sans-serif" font-size="12" fill="#000000">观察并记录异常行为</text>
</svg>