<svg xmlns="http://www.w3.org/2000/svg" viewBox="0 0 1162 730" width="1162" height="730">
  <rect x="0" y="0" width="1162" height="730" fill="#FFFFFF"/>
  <rect x="0" y="0" width="220" height="730" fill="#D9D9D9"/>
  <rect x="20" y="20" width="48" height="48" fill="#D0D0D0"/>
  <line x1="20" y1="20" x2="68" y2="68" stroke="#FFFFFF" stroke-width="2"/>
  <line x1="68" y1="20" x2="20" y2="68" stroke="#FFFFFF" stroke-width="2"/>
  <text x="80" y="40" font-family="Arial, sans-serif" font-size="16" font-weight="700" fill="#000000">GripFit ToB</text>
  <text x="80" y="58" font-family="Arial, sans-serif" font-size="11" fill="#7A7A7A">人因工程师</text>
  <text x="20" y="116" font-family="Arial, sans-serif" font-size="11" fill="#7A7A7A">工作区</text>
  <rect x="0" y="162" width="220" height="30" fill="#BFBFBF"/>
  <text x="48" y="144" font-family="Arial, sans-serif" font-size="13" fill="#000000">工作看板</text>
  <text x="48" y="180" font-family="Arial, sans-serif" font-size="13" fill="#000000">我的项目</text>
  <text x="48" y="216" font-family="Arial, sans-serif" font-size="13" fill="#000000">+ 新建项目</text>
  <text x="20" y="258" font-family="Arial, sans-serif" font-size="11" fill="#7A7A7A">资源</text>
  <text x="48" y="285" font-family="Arial, sans-serif" font-size="13" fill="#000000">被试库</text>
  <text x="48" y="317" font-family="Arial, sans-serif" font-size="13" fill="#000000">数据归档</text>
  <text x="48" y="349" font-family="Arial, sans-serif" font-size="13" fill="#000000">系统设置</text>
  <rect x="0" y="648" width="220" height="1" fill="#7A7A7A"/>
  <text x="48" y="672" font-family="Arial, sans-serif" font-size="12" fill="#000000">切换角色</text>
  <rect x="20" y="682" width="36" height="36" fill="#D0D0D0"/>
  <line x1="20" y1="682" x2="56" y2="718" stroke="#FFFFFF" stroke-width="1.5"/>
  <line x1="56" y1="682" x2="20" y2="718" stroke="#FFFFFF" stroke-width="1.5"/>
  <text x="68" y="700" font-family="Arial, sans-serif" font-size="12" fill="#000000">张研究员</text>
  <text x="68" y="716" font-family="Arial, sans-serif" font-size="10" fill="#7A7A7A">人因工程师</text>
  <text x="240" y="30" font-family="Arial, sans-serif" font-size="12" fill="#7A7A7A">GripFit  ›  人因工程师</text>
  <text x="240" y="50" font-family="Arial, sans-serif" font-size="11" fill="#7A7A7A">← 旗舰机握持舒适度研究 A2026  /  方案执行</text>
  <rect x="1122" y="14" width="20" height="20" fill="#D9D9D9"/>
  <rect x="240" y="58" width="26" height="26" fill="#7A7A7A"/>
  <text x="253" y="76" font-family="Arial, sans-serif" font-size="9" fill="#FFFFFF" text-anchor="middle">1</text>
  <text x="253" y="99" font-family="Arial, sans-serif" font-size="9" fill="#7A7A7A" text-anchor="middle">量表设计</text>
  <line x1="266" y1="71" x2="372" y2="71" stroke="#BFBFBF" stroke-width="1"/>
  <rect x="372" y="58" width="26" height="26" fill="#7A7A7A"/>
  <text x="385" y="76" font-family="Arial, sans-serif" font-size="11" font-weight="700" fill="#FFFFFF" text-anchor="middle">2</text>
  <text x="385" y="99" font-family="Arial, sans-serif" font-size="10" font-weight="700" fill="#000000" text-anchor="middle">被试方案</text>
  <line x1="398" y1="71" x2="504" y2="71" stroke="#BFBFBF" stroke-width="1"/>
  <rect x="504" y="58" width="26" height="26" fill="#FFFFFF" stroke="#BFBFBF" stroke-width="1"/>
  <text x="517" y="76" font-family="Arial, sans-serif" font-size="9" fill="#BFBFBF" text-anchor="middle">3</text>
  <text x="517" y="99" font-family="Arial, sans-serif" font-size="9" fill="#BFBFBF" text-anchor="middle">场地安排</text>
  <line x1="530" y1="71" x2="636" y2="71" stroke="#BFBFBF" stroke-width="1"/>
  <rect x="636" y="58" width="26" height="26" fill="#FFFFFF" stroke="#BFBFBF" stroke-width="1"/>
  <text x="649" y="76" font-family="Arial, sans-serif" font-size="9" fill="#BFBFBF" text-anchor="middle">4</text>
  <text x="649" y="99" font-family="Arial, sans-serif" font-size="9" fill="#BFBFBF" text-anchor="middle">设备准备</text>
  <line x1="662" y1="71" x2="768" y2="71" stroke="#BFBFBF" stroke-width="1"/>
  <rect x="768" y="58" width="26" height="26" fill="#FFFFFF" stroke="#BFBFBF" stroke-width="1"/>
  <text x="781" y="76" font-family="Arial, sans-serif" font-size="9" fill="#BFBFBF" text-anchor="middle">5</text>
  <text x="781" y="99" font-family="Arial, sans-serif" font-size="9" fill="#BFBFBF" text-anchor="middle">数据采集</text>
  <line x1="794" y1="71" x2="900" y2="71" stroke="#BFBFBF" stroke-width="1"/>
  <rect x="900" y="58" width="26" height="26" fill="#FFFFFF" stroke="#BFBFBF" stroke-width="1"/>
  <text x="913" y="76" font-family="Arial, sans-serif" font-size="9" fill="#BFBFBF" text-anchor="middle">6</text>
  <text x="913" y="99" font-family="Arial, sans-serif" font-size="9" fill="#BFBFBF" text-anchor="middle">分析报告</text>
  <text x="240" y="122" font-family="Arial, sans-serif" font-size="18" font-weight="700" fill="#000000">被试方案规划</text>
  <text x="240" y="142" font-family="Arial, sans-serif" font-size="11" fill="#7A7A7A">目标 20 人  已确认 5 人</text>
  <text x="1060" y="122" font-family="Arial, sans-serif" font-size="11" fill="#7A7A7A">步骤 2/6</text>
  <rect x="240" y="152" width="260" height="30" fill="#D9D9D9" stroke="#000000" stroke-width="1"/>
  <text x="370" y="172" font-family="Arial, sans-serif" font-size="12" fill="#000000" text-anchor="middle">① 被试筛选标准</text>
  <rect x="502" y="152" width="260" height="30" fill="#FFFFFF" stroke="#BFBFBF" stroke-width="1"/>
  <text x="632" y="172" font-family="Arial, sans-serif" font-size="12" fill="#7A7A7A" text-anchor="middle">② 招募与管理</text>
  <rect x="240" y="194" width="420" height="440" fill="#FFFFFF" stroke="#000000" stroke-width="1"/>
  <text x="260" y="222" font-family="Arial, sans-serif" font-size="14" font-weight="700" fill="#000000">纳入标准</text>
  <rect x="256" y="240" width="388" height="60" fill="#F5F5F5" stroke="#BFBFBF" stroke-width="1"/>
  <text x="272" y="264" font-family="Arial, sans-serif" font-size="13" fill="#000000">年龄范围</text>
  <text x="272" y="284" font-family="Arial, sans-serif" font-size="11" fill="#7A7A7A">xxxxxxxxxx</text>
  <rect x="520" y="250" width="108" height="22" fill="#D9D9D9" stroke="#7A7A7A" stroke-width="1"/>
  <text x="574" y="265" font-family="Arial, sans-serif" font-size="10" fill="#000000" text-anchor="middle">18-45 岁</text>
  <rect x="256" y="316" width="388" height="60" fill="#F5F5F5" stroke="#BFBFBF" stroke-width="1"/>
  <text x="272" y="340" font-family="Arial, sans-serif" font-size="13" fill="#000000">手长范围</text>
  <text x="272" y="360" font-family="Arial, sans-serif" font-size="11" fill="#7A7A7A">xxxxxxxxxx</text>
  <rect x="520" y="326" width="108" height="22" fill="#D9D9D9" stroke="#7A7A7A" stroke-width="1"/>
  <text x="574" y="341" font-family="Arial, sans-serif" font-size="10" fill="#000000" text-anchor="middle">160-195 mm</text>
  <rect x="256" y="392" width="388" height="60" fill="#F5F5F5" stroke="#BFBFBF" stroke-width="1"/>
  <text x="272" y="416" font-family="Arial, sans-serif" font-size="13" fill="#000000">握持习惯</text>
  <text x="272" y="436" font-family="Arial, sans-serif" font-size="11" fill="#7A7A7A">xxxxxxxxxx</text>
  <rect x="520" y="402" width="108" height="22" fill="#D9D9D9" stroke="#7A7A7A" stroke-width="1"/>
  <text x="574" y="417" font-family="Arial, sans-serif" font-size="10" fill="#000000" text-anchor="middle">单手/双手均可</text>
  <rect x="256" y="468" width="388" height="60" fill="#F5F5F5" stroke="#BFBFBF" stroke-width="1"/>
  <text x="272" y="492" font-family="Arial, sans-serif" font-size="13" fill="#000000">视力</text>
  <text x="272" y="512" font-family="Arial, sans-serif" font-size="11" fill="#7A7A7A">xxxxxxxxxx</text>
  <rect x="520" y="478" width="108" height="22" fill="#D9D9D9" stroke="#7A7A7A" stroke-width="1"/>
  <text x="574" y="493" font-family="Arial, sans-serif" font-size="10" fill="#000000" text-anchor="middle">矫正后 1.0 以上</text>
  <rect x="256" y="544" width="388" height="60" fill="#F5F5F5" stroke="#BFBFBF" stroke-width="1"/>
  <text x="272" y="568" font-family="Arial, sans-serif" font-size="13" fill="#000000">无手部疾病</text>
  <text x="272" y="588" font-family="Arial, sans-serif" font-size="11" fill="#7A7A7A">xxxxxxxxxx</text>
  <rect x="520" y="554" width="108" height="22" fill="#D9D9D9" stroke="#7A7A7A" stroke-width="1"/>
  <text x="574" y="569" font-family="Arial, sans-serif" font-size="10" fill="#000000" text-anchor="middle">关节炎等排除</text>
  <rect x="676" y="194" width="444" height="200" fill="#FFFFFF" stroke="#000000" stroke-width="1"/>
  <text x="696" y="222" font-family="Arial, sans-serif" font-size="14" font-weight="700" fill="#000000">排除标准</text>
  <text x="696" y="252" font-family="Arial, sans-serif" font-size="12" fill="#000000">3 个月内参与过同类研究</text>
  <text x="696" y="278" font-family="Arial, sans-serif" font-size="12" fill="#000000">手部存在活动性损伤</text>
  <text x="696" y="304" font-family="Arial, sans-serif" font-size="12" fill="#000000">对实验任务存在明显偏见</text>
  <rect x="676" y="406" width="444" height="120" fill="#FFFFFF" stroke="#000000" stroke-width="1"/>
  <text x="696" y="432" font-family="Arial, sans-serif" font-size="14" font-weight="700" fill="#000000">样本量依据</text>
  <text x="696" y="456" font-family="Arial, sans-serif" font-size="11" fill="#7A7A7A">推荐样本 20 人。Power=0.80, α=0.05</text>
  <text x="696" y="476" font-family="Arial, sans-serif" font-size="11" fill="#7A7A7A">中等效应量 d=0.5，建议招募 23 人</text>
  <rect x="676" y="538" width="444" height="96" fill="#FFFFFF" stroke="#000000" stroke-width="1"/>
  <text x="696" y="564" font-family="Arial, sans-serif" font-size="14" font-weight="700" fill="#000000">被试分组方案（DOE）</text>
  <text x="696" y="590" font-family="Arial, sans-serif" font-size="12" fill="#000000">A 组  手长 160-175mm · 单手握持 · 7 人</text>
  <text x="696" y="612" font-family="Arial, sans-serif" font-size="12" fill="#000000">B 组  手长 175-190mm · 混合握持 · 8 人</text>
</svg>