<svg xmlns="http://www.w3.org/2000/svg" viewBox="0 0 1280 851" width="1280" height="851">
  <rect x="0" y="0" width="1280" height="851" fill="#FFFFFF"/>
  <rect x="0" y="0" width="1280" height="48" fill="#FFFFFF" stroke="#D9D9D9" stroke-width="1"/>
  <text x="56" y="30" font-family="Arial, sans-serif" font-size="13" font-weight="700" fill="#000000" letter-spacing="2">GRIPFIT</text>
  <rect x="1220" y="10" width="32" height="32" fill="#D0D0D0"/>
  <line x1="1220" y1="10" x2="1252" y2="42" stroke="#FFFFFF" stroke-width="1"/>
  <line x1="1252" y1="10" x2="1220" y2="42" stroke="#FFFFFF" stroke-width="1"/>
  <text x="220" y="30" font-family="Arial, sans-serif" font-size="12" font-weight="400" fill="#7A7A7A">仪表盘</text>
  <text x="360" y="30" font-family="Arial, sans-serif" font-size="12" font-weight="400" fill="#7A7A7A">手部测量</text>
  <text x="500" y="30" font-family="Arial, sans-serif" font-size="12" font-weight="700" fill="#000000">机型库</text>
  <line x1="500" y1="44" x2="524" y2="44" stroke="#000000" stroke-width="2"/>
  <text x="640" y="30" font-family="Arial, sans-serif" font-size="12" font-weight="400" fill="#7A7A7A">报告产出</text>
  <rect x="0" y="48" width="50" height="803" fill="#D9D9D9"/>
  <rect x="13" y="90" width="24" height="24" fill="#BFBFBF"/>
  <rect x="13" y="155" width="24" height="24" fill="#BFBFBF"/>
  <rect x="13" y="220" width="24" height="24" fill="#7A7A7A"/>
  <rect x="13" y="285" width="24" height="24" fill="#BFBFBF"/>
  <rect x="13" y="350" width="24" height="24" fill="#BFBFBF"/>
  <rect x="13" y="415" width="24" height="24" fill="#BFBFBF"/>
  <rect x="50" y="48" width="180" height="803" fill="#FFFFFF" stroke="#D9D9D9" stroke-width="1"/>
  <text x="254" y="78" font-family="Arial, sans-serif" font-size="12" fill="#7A7A7A">D3  -  机型详情页</text>
  <!-- Phone image placeholder -->
  <rect x="254" y="92" width="160" height="200" fill="#D0D0D0"/>
  <line x1="254" y1="92" x2="414" y2="292" stroke="#FFFFFF" stroke-width="2"/>
  <line x1="414" y1="92" x2="254" y2="292" stroke="#FFFFFF" stroke-width="2"/>
  <!-- Phone info -->
  <text x="434" y="120" font-family="Arial, sans-serif" font-size="13" fill="#7A7A7A">Samsung</text>
  <text x="434" y="152" font-family="Arial, sans-serif" font-size="24" font-weight="700" fill="#000000">Galaxy S24 Ultra</text>
  <text x="434" y="178" font-family="Arial, sans-serif" font-size="11" fill="#7A7A7A">2024.01 上市</text>
  <text x="434" y="210" font-family="Arial, sans-serif" font-size="22" font-weight="700" fill="#000000">¥9,699</text>
  <text x="600" y="210" font-family="Arial, sans-serif" font-size="11" fill="#7A7A7A">官方建议零售价</text>
  <!-- Score rings -->
  <circle cx="740" cy="160" r="44" fill="none" stroke="#D9D9D9" stroke-width="8"/>
  <text x="740" y="155" font-family="Arial, sans-serif" font-size="18" font-weight="700" fill="#000000" text-anchor="middle">9.3</text>
  <text x="740" y="173" font-family="Arial, sans-serif" font-size="9" fill="#7A7A7A" text-anchor="middle">握持评分 优秀</text>
  <circle cx="850" cy="160" r="44" fill="none" stroke="#D9D9D9" stroke-width="8"/>
  <text x="850" y="155" font-family="Arial, sans-serif" font-size="18" font-weight="700" fill="#000000" text-anchor="middle">8.8</text>
  <text x="850" y="173" font-family="Arial, sans-serif" font-size="9" fill="#7A7A7A" text-anchor="middle">匹配度 优秀</text>
  <!-- Action buttons -->
  <rect x="434" y="250" width="120" height="32" fill="#D9D9D9" stroke="#000000" stroke-width="1"/>
  <text x="494" y="270" font-family="Arial, sans-serif" font-size="11" fill="#000000" text-anchor="middle">+加入对比</text>
  <rect x="566" y="250" width="120" height="32" fill="#FFFFFF" stroke="#7A7A7A" stroke-width="1"/>
  <text x="626" y="270" font-family="Arial, sans-serif" font-size="11" fill="#7A7A7A" text-anchor="middle">查看风险情况</text>
  <!-- Right: 握持表现概览 -->
  <rect x="900" y="80" width="340" height="200" fill="#FFFFFF" stroke="#D9D9D9" stroke-width="1"/>
  <text x="920" y="108" font-family="Arial, sans-serif" font-size="13" font-weight="700" fill="#000000">握持表现概览</text>
  <text x="920" y="136" font-family="Arial, sans-serif" font-size="11" fill="#7A7A7A">单手握持</text>
  <rect x="1060" y="124" width="160" height="8" fill="#D9D9D9"/>
  <rect x="1060" y="124" width="128" height="8" fill="#7A7A7A"/>
  <text x="920" y="164" font-family="Arial, sans-serif" font-size="11" fill="#7A7A7A">拇指可达性</text>
  <rect x="1060" y="152" width="160" height="8" fill="#D9D9D9"/>
  <rect x="1060" y="152" width="140" height="8" fill="#7A7A7A"/>
  <text x="920" y="192" font-family="Arial, sans-serif" font-size="11" fill="#7A7A7A">长时舒适度</text>
  <rect x="1060" y="180" width="160" height="8" fill="#D9D9D9"/>
  <rect x="1060" y="180" width="100" height="8" fill="#7A7A7A"/>
  <!-- Param comparison table -->
  <text x="254" y="320" font-family="Arial, sans-serif" font-size="14" font-weight="700" fill="#000000">参数对照</text>
  <rect x="254" y="330" width="620" height="28" fill="#D9D9D9"/>
  <text x="272" y="349" font-family="Arial, sans-serif" font-size="11" font-weight="700" fill="#000000">参数</text>
  <text x="420" y="349" font-family="Arial, sans-serif" font-size="11" font-weight="700" fill="#000000">该机型</text>
  <text x="560" y="349" font-family="Arial, sans-serif" font-size="11" font-weight="700" fill="#000000">分类理想值</text>
  <text x="720" y="349" font-family="Arial, sans-serif" font-size="11" font-weight="700" fill="#000000">状态</text>
  param_rows = [
    ('宽度','79.0 mm','76~80 mm','接近'),
    ('重量','232 g','200~230 g','偏重'),
    ('厚度','8.6 mm','8.0~9.0 mm','接近'),
    ('屏幕尺寸','6.8 英寸','6.4~6.8 英寸','偏大'),
    ('周边圆角','12.0 mm','10~14 mm','优秀'),
    ('重心位置','52.2 %','48~52 %','接近'),
  ]
  <rect x="254" y="330" width="620" height="28" fill="#D9D9D9"/>
  <text x="272" y="349" font-family="Arial, sans-serif" font-size="11" font-weight="700" fill="#000000">参数</text>
  <text x="420" y="349" font-family="Arial, sans-serif" font-size="11" font-weight="700" fill="#000000">该机型</text>
  <text x="560" y="349" font-family="Arial, sans-serif" font-size="11" font-weight="700" fill="#000000">分类理想值</text>
  <text x="720" y="349" font-family="Arial, sans-serif" font-size="11" font-weight="700" fill="#000000">状态</text>
  <rect x="254" y="358" width="620" height="28" fill="#FFFFFF" stroke="#D9D9D9" stroke-width="1"/>
  <text x="272" y="376" font-family="Arial, sans-serif" font-size="11" fill="#000000">宽度</text>
  <text x="420" y="376" font-family="Arial, sans-serif" font-size="11" fill="#000000">79.0 mm</text>
  <text x="560" y="376" font-family="Arial, sans-serif" font-size="11" fill="#7A7A7A">76~80 mm</text>
  <text x="720" y="376" font-family="Arial, sans-serif" font-size="11" fill="#000000">接近</text>
  <rect x="254" y="390" width="620" height="28" fill="#F7F7F7" stroke="#D9D9D9" stroke-width="1"/>
  <text x="272" y="408" font-family="Arial, sans-serif" font-size="11" fill="#000000">重量</text>
  <text x="420" y="408" font-family="Arial, sans-serif" font-size="11" fill="#000000">232 g</text>
  <text x="560" y="408" font-family="Arial, sans-serif" font-size="11" fill="#7A7A7A">200~230 g</text>
  <text x="720" y="408" font-family="Arial, sans-serif" font-size="11" fill="#000000">偏重</text>
  <rect x="254" y="422" width="620" height="28" fill="#FFFFFF" stroke="#D9D9D9" stroke-width="1"/>
  <text x="272" y="440" font-family="Arial, sans-serif" font-size="11" fill="#000000">厚度</text>
  <text x="420" y="440" font-family="Arial, sans-serif" font-size="11" fill="#000000">8.6 mm</text>
  <text x="560" y="440" font-family="Arial, sans-serif" font-size="11" fill="#7A7A7A">8.0~9.0 mm</text>
  <text x="720" y="440" font-family="Arial, sans-serif" font-size="11" fill="#000000">接近</text>
  <rect x="254" y="454" width="620" height="28" fill="#F7F7F7" stroke="#D9D9D9" stroke-width="1"/>
  <text x="272" y="472" font-family="Arial, sans-serif" font-size="11" fill="#000000">屏幕尺寸</text>
  <text x="420" y="472" font-family="Arial, sans-serif" font-size="11" fill="#000000">6.8 英寸</text>
  <text x="560" y="472" font-family="Arial, sans-serif" font-size="11" fill="#7A7A7A">6.4~6.8 英寸</text>
  <text x="720" y="472" font-family="Arial, sans-serif" font-size="11" fill="#000000">偏大</text>
  <rect x="254" y="486" width="620" height="28" fill="#FFFFFF" stroke="#D9D9D9" stroke-width="1"/>
  <text x="272" y="504" font-family="Arial, sans-serif" font-size="11" fill="#000000">周边圆角</text>
  <text x="420" y="504" font-family="Arial, sans-serif" font-size="11" fill="#000000">12.0 mm</text>
  <text x="560" y="504" font-family="Arial, sans-serif" font-size="11" fill="#7A7A7A">10~14 mm</text>
  <text x="720" y="504" font-family="Arial, sans-serif" font-size="11" fill="#000000">优秀</text>
  <rect x="254" y="518" width="620" height="28" fill="#F7F7F7" stroke="#D9D9D9" stroke-width="1"/>
  <text x="272" y="536" font-family="Arial, sans-serif" font-size="11" fill="#000000">重心位置</text>
  <text x="420" y="536" font-family="Arial, sans-serif" font-size="11" fill="#000000">52.2 %</text>
  <text x="560" y="536" font-family="Arial, sans-serif" font-size="11" fill="#7A7A7A">48~52 %</text>
  <text x="720" y="536" font-family="Arial, sans-serif" font-size="11" fill="#000000">接近</text>
  <text x="254" y="570" font-family="Arial, sans-serif" font-size="14" font-weight="700" fill="#000000">18维度逐项评分</text>
  <rect x="254" y="580" width="180" height="44" fill="#D9D9D9" stroke="#7A7A7A" stroke-width="1"/>
  <text x="344" y="596" font-family="Arial, sans-serif" font-size="11" font-weight="700" fill="#000000" text-anchor="middle">基本尺寸</text>
  <text x="344" y="614" font-family="Arial, sans-serif" font-size="11" fill="#7A7A7A" text-anchor="middle">6/6  ∧</text>
  <rect x="444" y="580" width="180" height="44" fill="#FFFFFF" stroke="#D9D9D9" stroke-width="1"/>
  <text x="534" y="596" font-family="Arial, sans-serif" font-size="11" fill="#000000" text-anchor="middle">形态曲率</text>
  <text x="534" y="614" font-family="Arial, sans-serif" font-size="11" fill="#7A7A7A" text-anchor="middle">4/4  ∨</text>
  <rect x="634" y="580" width="180" height="44" fill="#FFFFFF" stroke="#D9D9D9" stroke-width="1"/>
  <text x="724" y="596" font-family="Arial, sans-serif" font-size="11" fill="#000000" text-anchor="middle">功能控件</text>
  <text x="724" y="614" font-family="Arial, sans-serif" font-size="11" fill="#7A7A7A" text-anchor="middle">2/2  ∨</text>
  <!-- Expanded 机身宽度 detail -->
  <rect x="254" y="634" width="620" height="100" fill="#F7F7F7" stroke="#D9D9D9" stroke-width="1"/>
  <text x="272" y="656" font-family="Arial, sans-serif" font-size="12" font-weight="700" fill="#000000">机身宽度</text>
  <text x="820" y="656" font-family="Arial, sans-serif" font-size="13" font-weight="700" fill="#000000" text-anchor="end">8.5 / 10  ∧</text>
  <text x="272" y="678" font-family="Arial, sans-serif" font-size="10" fill="#7A7A7A">评分说明</text>
  <text x="272" y="696" font-family="Arial, sans-serif" font-size="10" fill="#7A7A7A">机身宽度主要影响手掌握持与拇指延伸舒适性，宽度72~79mm时评分最优。</text>
  <!-- Mini chart placeholder -->
  <rect x="560" y="660" width="280" height="64" fill="#EBEBEB"/>
  <line x1="560" y1="660" x2="840" y2="724" stroke="#D9D9D9" stroke-width="1"/>
  <line x1="840" y1="660" x2="560" y2="724" stroke="#D9D9D9" stroke-width="1"/>
  <!-- Right: 完整规格参数 -->
  <rect x="900" y="296" width="340" height="510" fill="#FFFFFF" stroke="#D9D9D9" stroke-width="1"/>
  <text x="920" y="322" font-family="Arial, sans-serif" font-size="13" font-weight="700" fill="#000000">完整规格参数</text>
  <text x="920" y="350" font-family="Arial, sans-serif" font-size="11" fill="#7A7A7A">处理器</text>
  <text x="1220" y="350" font-family="Arial, sans-serif" font-size="11" fill="#000000" text-anchor="end">Snapdragon 8 Gen3</text>
  <line x1="920" y1="358" x2="1220" y2="358" stroke="#D9D9D9" stroke-width="1"/>
  <text x="920" y="380" font-family="Arial, sans-serif" font-size="11" fill="#7A7A7A">电池</text>
  <text x="1220" y="380" font-family="Arial, sans-serif" font-size="11" fill="#000000" text-anchor="end">5000 mAh</text>
  <line x1="920" y1="388" x2="1220" y2="388" stroke="#D9D9D9" stroke-width="1"/>
  <text x="920" y="410" font-family="Arial, sans-serif" font-size="11" fill="#7A7A7A">屏幕尺寸</text>
  <text x="1220" y="410" font-family="Arial, sans-serif" font-size="11" fill="#000000" text-anchor="end">6.8 英寸</text>
  <line x1="920" y1="418" x2="1220" y2="418" stroke="#D9D9D9" stroke-width="1"/>
  <text x="920" y="440" font-family="Arial, sans-serif" font-size="11" fill="#7A7A7A">分辨率</text>
  <text x="1220" y="440" font-family="Arial, sans-serif" font-size="11" fill="#000000" text-anchor="end">3120 x 1440 QHD+</text>
  <line x1="920" y1="448" x2="1220" y2="448" stroke="#D9D9D9" stroke-width="1"/>
  <text x="920" y="470" font-family="Arial, sans-serif" font-size="11" fill="#7A7A7A">后置镜组</text>
  <text x="1220" y="470" font-family="Arial, sans-serif" font-size="11" fill="#000000" text-anchor="end">200MP+12MP+50P</text>
  <line x1="920" y1="478" x2="1220" y2="478" stroke="#D9D9D9" stroke-width="1"/>
  <text x="920" y="500" font-family="Arial, sans-serif" font-size="11" fill="#7A7A7A">防护等级</text>
  <text x="1220" y="500" font-family="Arial, sans-serif" font-size="11" fill="#000000" text-anchor="end">IP68</text>
</svg>