<svg xmlns="http://www.w3.org/2000/svg" viewBox="0 0 1280 851" width="1280" height="851">
  <rect x="0" y="0" width="1280" height="851" fill="#FFFFFF"/>
  <rect x="0" y="0" width="1280" height="48" fill="#FFFFFF" stroke="#D9D9D9" stroke-width="1"/>
  <text x="56" y="30" font-family="Arial, sans-serif" font-size="13" font-weight="700" fill="#000000" letter-spacing="2">GRIPFIT</text>
  <rect x="1220" y="10" width="32" height="32" fill="#D0D0D0"/>
  <line x1="1220" y1="10" x2="1252" y2="42" stroke="#FFFFFF" stroke-width="1"/>
  <line x1="1252" y1="10" x2="1220" y2="42" stroke="#FFFFFF" stroke-width="1"/>
  <text x="220" y="30" font-family="Arial, sans-serif" font-size="12" font-weight="400" fill="#7A7A7A">仪表盘</text>
  <text x="360" y="30" font-family="Arial, sans-serif" font-size="12" font-weight="400" fill="#7A7A7A">手部测量</text>
  <text x="500" y="30" font-family="Arial, sans-serif" font-size="12" font-weight="400" fill="#7A7A7A">机型库</text>
  <text x="640" y="30" font-family="Arial, sans-serif" font-size="12" font-weight="700" fill="#000000">报告产出</text>
  <line x1="640" y1="44" x2="672" y2="44" stroke="#000000" stroke-width="2"/>
  <rect x="0" y="48" width="50" height="803" fill="#D9D9D9"/>
  <rect x="13" y="90" width="24" height="24" fill="#BFBFBF"/>
  <rect x="13" y="155" width="24" height="24" fill="#BFBFBF"/>
  <rect x="13" y="220" width="24" height="24" fill="#BFBFBF"/>
  <rect x="13" y="285" width="24" height="24" fill="#7A7A7A"/>
  <rect x="13" y="350" width="24" height="24" fill="#BFBFBF"/>
  <rect x="13" y="415" width="24" height="24" fill="#BFBFBF"/>
  <rect x="50" y="48" width="180" height="803" fill="#FFFFFF" stroke="#D9D9D9" stroke-width="1"/>
  <text x="74" y="94" font-family="Arial, sans-serif" font-size="12" fill="#7A7A7A">最优手机</text>
  <text x="74" y="149" font-family="Arial, sans-serif" font-size="12" fill="#7A7A7A">自定义调参</text>
  <text x="74" y="204" font-family="Arial, sans-serif" font-size="12" fill="#7A7A7A">机型库</text>
  <rect x="50" y="239" width="180" height="32" fill="#D9D9D9"/>
  <text x="74" y="259" font-family="Arial, sans-serif" font-size="12" font-weight="700" fill="#000000">手感报告</text>
  <text x="74" y="314" font-family="Arial, sans-serif" font-size="12" fill="#7A7A7A">我的数据</text>
  <text x="254" y="84" font-family="Arial, sans-serif" font-size="18" font-weight="700" fill="#000000">对比报告</text>
  <rect x="1100" y="68" width="120" height="28" fill="#D9D9D9" stroke="#7A7A7A" stroke-width="1"/>
  <text x="1160" y="86" font-family="Arial, sans-serif" font-size="11" fill="#000000" text-anchor="middle">编辑对比</text>
  <!-- Header row: 你的对比报告 with 3 phone scores -->
  <rect x="254" y="100" width="986" height="80" fill="#F7F7F7" stroke="#D9D9D9" stroke-width="1"/>
  <text x="274" y="126" font-family="Arial, sans-serif" font-size="11" fill="#7A7A7A">你的对比报告</text>
  <!-- My best -->
  <rect x="274" y="136" width="60" height="30" fill="#D0D0D0"/>
  <line x1="274" y1="136" x2="334" y2="166" stroke="#FFFFFF" stroke-width="1"/>
  <line x1="334" y1="136" x2="274" y2="166" stroke="#FFFFFF" stroke-width="1"/>
  <text x="344" y="152" font-family="Arial, sans-serif" font-size="10" fill="#7A7A7A">我的最优</text>
  <text x="344" y="170" font-family="Arial, sans-serif" font-size="16" font-weight="700" fill="#000000">9.1 /10</text>
  <!-- iPhone -->
  <rect x="574" y="120" width="60" height="44" fill="#D0D0D0"/>
  <line x1="574" y1="120" x2="634" y2="164" stroke="#FFFFFF" stroke-width="1"/>
  <line x1="634" y1="120" x2="574" y2="164" stroke="#FFFFFF" stroke-width="1"/>
  <text x="644" y="138" font-family="Arial, sans-serif" font-size="11" fill="#7A7A7A">Apple iPhone 16 Pro</text>
  <text x="644" y="158" font-family="Arial, sans-serif" font-size="16" font-weight="700" fill="#000000">8.6 /10</text>
  <!-- Samsung -->
  <rect x="874" y="120" width="60" height="44" fill="#D0D0D0"/>
  <line x1="874" y1="120" x2="934" y2="164" stroke="#FFFFFF" stroke-width="1"/>
  <line x1="934" y1="120" x2="874" y2="164" stroke="#FFFFFF" stroke-width="1"/>
  <text x="944" y="138" font-family="Arial, sans-serif" font-size="11" fill="#7A7A7A">Samsung Galaxy S24 Ultra</text>
  <text x="944" y="158" font-family="Arial, sans-serif" font-size="16" font-weight="700" fill="#000000">7.8 /10</text>
  <!-- 综合评分对比 bar chart -->
  <rect x="254" y="194" width="460" height="260" fill="#FFFFFF" stroke="#D9D9D9" stroke-width="1"/>
  <text x="274" y="220" font-family="Arial, sans-serif" font-size="12" font-weight="700" fill="#000000">综合评分对比</text>
  <text x="694" y="220" font-family="Arial, sans-serif" font-size="10" fill="#7A7A7A">满分10分</text>
  <!-- 3 bars -->
  <rect x="310" y="360" width="60" height="68" fill="#7A7A7A"/>
  <text x="340" y="354" font-family="Arial, sans-serif" font-size="11" fill="#000000" text-anchor="middle">9.1</text>
  <text x="340" y="444" font-family="Arial, sans-serif" font-size="10" fill="#7A7A7A" text-anchor="middle">我的最优</text>
  <rect x="420" y="374" width="60" height="54" fill="#BFBFBF"/>
  <text x="450" y="368" font-family="Arial, sans-serif" font-size="11" fill="#000000" text-anchor="middle">8.6</text>
  <text x="450" y="444" font-family="Arial, sans-serif" font-size="10" fill="#7A7A7A" text-anchor="middle">iPhone 16 Pro</text>
  <rect x="530" y="390" width="60" height="38" fill="#D9D9D9"/>
  <text x="560" y="384" font-family="Arial, sans-serif" font-size="11" fill="#000000" text-anchor="middle">7.8</text>
  <text x="560" y="444" font-family="Arial, sans-serif" font-size="10" fill="#7A7A7A" text-anchor="middle">Galaxy S24 Ultra</text>
  <!-- 速维度评分 table -->
  <rect x="254" y="464" width="460" height="340" fill="#FFFFFF" stroke="#D9D9D9" stroke-width="1"/>
  <text x="274" y="490" font-family="Arial, sans-serif" font-size="12" font-weight="700" fill="#000000">速维度评分对比</text>
  <rect x="274" y="500" width="420" height="28" fill="#D9D9D9"/>
  <text x="284" y="519" font-family="Arial, sans-serif" font-size="11" font-weight="700" fill="#000000">维度分类</text>
  <text x="440" y="519" font-family="Arial, sans-serif" font-size="11" font-weight="700" fill="#000000">最佳机型</text>
  <text x="550" y="519" font-family="Arial, sans-serif" font-size="11" font-weight="700" fill="#000000">我的最优</text>
  <text x="620" y="519" font-family="Arial, sans-serif" font-size="11" font-weight="700" fill="#000000">iPhone 16</text>
  <text x="680" y="519" font-family="Arial, sans-serif" font-size="11" font-weight="700" fill="#000000">Galaxy S24</text>
  dim_rows = [('基本尺寸','6项','iPhone 16 Pro','-----','9.1','8.6','7.8'),('形态曲率','4项','iPhone 16 Pro','-----','9.0','8.8','7.6'),('功能部件','2项','iPhone 16 Pro','-----','9.2','8.7','7.4'),('操作便利','4项','iPhone 16 Pro','-----','9.1','8.6','7.8'),('视觉感知','2项','iPhone 16 Pro','-----','9.1','8.4','7.8')]
  <rect x="274" y="528" width="420" height="32" fill="#FFFFFF" stroke="#D9D9D9" stroke-width="1"/>
  <text x="284" y="548" font-family="Arial, sans-serif" font-size="11" fill="#000000">基本尺寸</text>
  <text x="360" y="548" font-family="Arial, sans-serif" font-size="10" fill="#7A7A7A">6项</text>
  <text x="440" y="548" font-family="Arial, sans-serif" font-size="10" fill="#7A7A7A">iPhone 16 Pro</text>
  <text x="556" y="548" font-family="Arial, sans-serif" font-size="11" fill="#000000" text-anchor="middle">9.1</text>
  <text x="630" y="548" font-family="Arial, sans-serif" font-size="11" fill="#000000" text-anchor="middle">8.6</text>
  <text x="696" y="548" font-family="Arial, sans-serif" font-size="11" fill="#000000" text-anchor="middle">7.8</text>
  <rect x="274" y="564" width="420" height="32" fill="#F7F7F7" stroke="#D9D9D9" stroke-width="1"/>
  <text x="284" y="584" font-family="Arial, sans-serif" font-size="11" fill="#000000">形态曲率</text>
  <text x="360" y="584" font-family="Arial, sans-serif" font-size="10" fill="#7A7A7A">4项</text>
  <text x="440" y="584" font-family="Arial, sans-serif" font-size="10" fill="#7A7A7A">iPhone 16 Pro</text>
  <text x="556" y="584" font-family="Arial, sans-serif" font-size="11" fill="#000000" text-anchor="middle">9.0</text>
  <text x="630" y="584" font-family="Arial, sans-serif" font-size="11" fill="#000000" text-anchor="middle">8.8</text>
  <text x="696" y="584" font-family="Arial, sans-serif" font-size="11" fill="#000000" text-anchor="middle">7.6</text>
  <rect x="274" y="600" width="420" height="32" fill="#FFFFFF" stroke="#D9D9D9" stroke-width="1"/>
  <text x="284" y="620" font-family="Arial, sans-serif" font-size="11" fill="#000000">功能部件</text>
  <text x="360" y="620" font-family="Arial, sans-serif" font-size="10" fill="#7A7A7A">2项</text>
  <text x="440" y="620" font-family="Arial, sans-serif" font-size="10" fill="#7A7A7A">iPhone 16 Pro</text>
  <text x="556" y="620" font-family="Arial, sans-serif" font-size="11" fill="#000000" text-anchor="middle">9.2</text>
  <text x="630" y="620" font-family="Arial, sans-serif" font-size="11" fill="#000000" text-anchor="middle">8.7</text>
  <text x="696" y="620" font-family="Arial, sans-serif" font-size="11" fill="#000000" text-anchor="middle">7.4</text>
  <rect x="274" y="636" width="420" height="32" fill="#F7F7F7" stroke="#D9D9D9" stroke-width="1"/>
  <text x="284" y="656" font-family="Arial, sans-serif" font-size="11" fill="#000000">操作便利</text>
  <text x="360" y="656" font-family="Arial, sans-serif" font-size="10" fill="#7A7A7A">4项</text>
  <text x="440" y="656" font-family="Arial, sans-serif" font-size="10" fill="#7A7A7A">iPhone 16 Pro</text>
  <text x="556" y="656" font-family="Arial, sans-serif" font-size="11" fill="#000000" text-anchor="middle">9.1</text>
  <text x="630" y="656" font-family="Arial, sans-serif" font-size="11" fill="#000000" text-anchor="middle">8.6</text>
  <text x="696" y="656" font-family="Arial, sans-serif" font-size="11" fill="#000000" text-anchor="middle">7.8</text>
  <rect x="274" y="672" width="420" height="32" fill="#FFFFFF" stroke="#D9D9D9" stroke-width="1"/>
  <text x="284" y="692" font-family="Arial, sans-serif" font-size="11" fill="#000000">视觉感知</text>
  <text x="360" y="692" font-family="Arial, sans-serif" font-size="10" fill="#7A7A7A">2项</text>
  <text x="440" y="692" font-family="Arial, sans-serif" font-size="10" fill="#7A7A7A">iPhone 16 Pro</text>
  <text x="556" y="692" font-family="Arial, sans-serif" font-size="11" fill="#000000" text-anchor="middle">9.1</text>
  <text x="630" y="692" font-family="Arial, sans-serif" font-size="11" fill="#000000" text-anchor="middle">8.4</text>
  <text x="696" y="692" font-family="Arial, sans-serif" font-size="11" fill="#000000" text-anchor="middle">7.8</text>
  <!-- 核心分数对比 horizontal bars -->
  <rect x="730" y="194" width="510" height="260" fill="#FFFFFF" stroke="#D9D9D9" stroke-width="1"/>
  <text x="750" y="220" font-family="Arial, sans-serif" font-size="12" font-weight="700" fill="#000000">核心分数对比</text>
  <text x="750" y="250" font-family="Arial, sans-serif" font-size="11" fill="#7A7A7A">握持感</text>
  <rect x="840" y="238" width="360" height="16" fill="#D9D9D9"/>
  <rect x="840" y="238" width="320" height="16" fill="#7A7A7A"/>
  <text x="1210" y="251" font-family="Arial, sans-serif" font-size="10" fill="#000000" text-anchor="end">8.9</text>
  <text x="750" y="286" font-family="Arial, sans-serif" font-size="11" fill="#7A7A7A">可达性</text>
  <rect x="840" y="274" width="360" height="16" fill="#D9D9D9"/>
  <rect x="840" y="274" width="314" height="16" fill="#BFBFBF"/>
  <text x="1210" y="287" font-family="Arial, sans-serif" font-size="10" fill="#000000" text-anchor="end">8.7</text>
  <text x="750" y="322" font-family="Arial, sans-serif" font-size="11" fill="#7A7A7A">舒适度</text>
  <rect x="840" y="310" width="360" height="16" fill="#D9D9D9"/>
  <rect x="840" y="310" width="306" height="16" fill="#BFBFBF"/>
  <text x="1210" y="323" font-family="Arial, sans-serif" font-size="10" fill="#000000" text-anchor="end">8.5</text>
  <text x="750" y="358" font-family="Arial, sans-serif" font-size="11" fill="#7A7A7A">轻便性</text>
  <rect x="840" y="346" width="360" height="16" fill="#D9D9D9"/>
  <rect x="840" y="346" width="296" height="16" fill="#D9D9D9" stroke="#7A7A7A" stroke-width="1"/>
  <text x="1210" y="359" font-family="Arial, sans-serif" font-size="10" fill="#000000" text-anchor="end">8.2</text>
  <text x="750" y="394" font-family="Arial, sans-serif" font-size="11" fill="#7A7A7A">单手操控</text>
  <rect x="840" y="382" width="360" height="16" fill="#D9D9D9"/>
  <rect x="840" y="382" width="320" height="16" fill="#7A7A7A"/>
  <text x="1210" y="395" font-family="Arial, sans-serif" font-size="10" fill="#000000" text-anchor="end">8.8</text>
  <text x="750" y="430" font-family="Arial, sans-serif" font-size="11" fill="#7A7A7A">稳定性</text>
  <rect x="840" y="418" width="360" height="16" fill="#D9D9D9"/>
  <rect x="840" y="418" width="310" height="16" fill="#BFBFBF"/>
  <text x="1210" y="431" font-family="Arial, sans-serif" font-size="10" fill="#000000" text-anchor="end">8.6</text>
  <!-- 详细参数对照 table -->
  <rect x="730" y="464" width="510" height="340" fill="#FFFFFF" stroke="#D9D9D9" stroke-width="1"/>
  <text x="750" y="490" font-family="Arial, sans-serif" font-size="12" font-weight="700" fill="#000000">详细参数对照</text>
  <rect x="750" y="500" width="470" height="28" fill="#D9D9D9"/>
  <text x="760" y="519" font-family="Arial, sans-serif" font-size="11" font-weight="700" fill="#000000">参数</text>
  <text x="900" y="519" font-family="Arial, sans-serif" font-size="11" font-weight="700" fill="#000000">我的最优</text>
  <text x="1010" y="519" font-family="Arial, sans-serif" font-size="11" font-weight="700" fill="#000000">iPhone 16</text>
  <text x="1130" y="519" font-family="Arial, sans-serif" font-size="11" font-weight="700" fill="#000000">Galaxy S24</text>
  <rect x="750" y="528" width="470" height="28" fill="#FFFFFF" stroke="#D9D9D9" stroke-width="1"/>
  <text x="760" y="546" font-family="Arial, sans-serif" font-size="11" fill="#000000">机身宽度</text>
  <text x="940" y="546" font-family="Arial, sans-serif" font-size="11" fill="#000000" text-anchor="middle">70.6mm</text>
  <text x="1050" y="546" font-family="Arial, sans-serif" font-size="11" fill="#000000" text-anchor="middle">71.5mm</text>
  <text x="1170" y="546" font-family="Arial, sans-serif" font-size="11" fill="#000000" text-anchor="middle">79.0mm</text>
  <rect x="750" y="560" width="470" height="28" fill="#F7F7F7" stroke="#D9D9D9" stroke-width="1"/>
  <text x="760" y="578" font-family="Arial, sans-serif" font-size="11" fill="#000000">机身高度</text>
  <text x="940" y="578" font-family="Arial, sans-serif" font-size="11" fill="#000000" text-anchor="middle">152mm</text>
  <text x="1050" y="578" font-family="Arial, sans-serif" font-size="11" fill="#000000" text-anchor="middle">149.6mm</text>
  <text x="1170" y="578" font-family="Arial, sans-serif" font-size="11" fill="#000000" text-anchor="middle">162.3mm</text>
  <rect x="750" y="592" width="470" height="28" fill="#FFFFFF" stroke="#D9D9D9" stroke-width="1"/>
  <text x="760" y="610" font-family="Arial, sans-serif" font-size="11" fill="#000000">功能厚度</text>
  <text x="940" y="610" font-family="Arial, sans-serif" font-size="11" fill="#000000" text-anchor="middle">7.6mm</text>
  <text x="1050" y="610" font-family="Arial, sans-serif" font-size="11" fill="#000000" text-anchor="middle">8.3mm</text>
  <text x="1170" y="610" font-family="Arial, sans-serif" font-size="11" fill="#000000" text-anchor="middle">8.6mm</text>
  <rect x="750" y="624" width="470" height="28" fill="#F7F7F7" stroke="#D9D9D9" stroke-width="1"/>
  <text x="760" y="642" font-family="Arial, sans-serif" font-size="11" fill="#000000">重量</text>
  <text x="940" y="642" font-family="Arial, sans-serif" font-size="11" fill="#000000" text-anchor="middle">178g</text>
  <text x="1050" y="642" font-family="Arial, sans-serif" font-size="11" fill="#000000" text-anchor="middle">187g</text>
  <text x="1170" y="642" font-family="Arial, sans-serif" font-size="11" fill="#000000" text-anchor="middle">232g</text>
  <rect x="750" y="656" width="470" height="28" fill="#FFFFFF" stroke="#D9D9D9" stroke-width="1"/>
  <text x="760" y="674" font-family="Arial, sans-serif" font-size="11" fill="#000000">屏幕尺寸</text>
  <text x="940" y="674" font-family="Arial, sans-serif" font-size="11" fill="#000000" text-anchor="middle">6.1英寸</text>
  <text x="1050" y="674" font-family="Arial, sans-serif" font-size="11" fill="#000000" text-anchor="middle">6.3英寸</text>
  <text x="1170" y="674" font-family="Arial, sans-serif" font-size="11" fill="#000000" text-anchor="middle">6.8英寸</text>
  <rect x="750" y="688" width="470" height="28" fill="#F7F7F7" stroke="#D9D9D9" stroke-width="1"/>
  <text x="760" y="706" font-family="Arial, sans-serif" font-size="11" fill="#000000">重心位置</text>
  <text x="940" y="706" font-family="Arial, sans-serif" font-size="11" fill="#000000" text-anchor="middle">52.0%</text>
  <text x="1050" y="706" font-family="Arial, sans-serif" font-size="11" fill="#000000" text-anchor="middle">51.5%</text>
  <text x="1170" y="706" font-family="Arial, sans-serif" font-size="11" fill="#000000" text-anchor="middle">52.2%</text>
  <rect x="750" y="720" width="470" height="28" fill="#FFFFFF" stroke="#D9D9D9" stroke-width="1"/>
  <text x="760" y="738" font-family="Arial, sans-serif" font-size="11" fill="#000000">圆角半径</text>
  <text x="940" y="738" font-family="Arial, sans-serif" font-size="11" fill="#000000" text-anchor="middle">12.0mm</text>
  <text x="1050" y="738" font-family="Arial, sans-serif" font-size="11" fill="#000000" text-anchor="middle">12.0mm</text>
  <text x="1170" y="738" font-family="Arial, sans-serif" font-size="11" fill="#000000" text-anchor="middle">12.0mm</text>
</svg>