<svg xmlns="http://www.w3.org/2000/svg" viewBox="0 0 1280 851" width="1280" height="851">
  <rect x="0" y="0" width="1280" height="851" fill="#FFFFFF"/>
  <rect x="0" y="0" width="1280" height="48" fill="#7A7A7A"/>
  <text x="40" y="30" font-family="Arial, sans-serif" font-size="14" font-weight="700" fill="#FFFFFF" letter-spacing="3">GRIPFIT</text>
  <rect x="1170" y="12" width="80" height="28" fill="#D9D9D9" stroke="#7A7A7A" stroke-width="1"/>
  <text x="1210" y="31" font-family="Arial, sans-serif" font-size="12" fill="#000000" text-anchor="middle">登录</text>
  <rect x="0" y="48" width="1280" height="803" fill="#7A7A7A"/>
  <!-- Progress -->
  <text x="640" y="100" font-family="Arial, sans-serif" font-size="10" fill="#BFBFBF" text-anchor="middle" letter-spacing="2">ONBOARDING SEQUENCE   02/02</text>
  <rect x="440" y="112" width="400" height="2" fill="#BFBFBF"/>
  <rect x="440" y="112" width="400" height="2" fill="#FFFFFF"/>
  <!-- Scan frame -->
  <rect x="390" y="180" width="500" height="460" fill="#555555" stroke="#BFBFBF" stroke-width="1"/>
  <!-- Corner brackets -->
  <line x1="390" y1="180" x2="430" y2="180" stroke="#FFFFFF" stroke-width="2"/>
  <line x1="390" y1="180" x2="390" y2="220" stroke="#FFFFFF" stroke-width="2"/>
  <line x1="890" y1="180" x2="850" y2="180" stroke="#FFFFFF" stroke-width="2"/>
  <line x1="890" y1="180" x2="890" y2="220" stroke="#FFFFFF" stroke-width="2"/>
  <line x1="390" y1="640" x2="430" y2="640" stroke="#FFFFFF" stroke-width="2"/>
  <line x1="390" y1="640" x2="390" y2="600" stroke="#FFFFFF" stroke-width="2"/>
  <line x1="890" y1="640" x2="850" y2="640" stroke="#FFFFFF" stroke-width="2"/>
  <line x1="890" y1="640" x2="890" y2="600" stroke="#FFFFFF" stroke-width="2"/>
  <!-- Hand outline placeholder -->
  <rect x="460" y="220" width="360" height="380" fill="#7A7A7A" stroke="#BFBFBF" stroke-width="1"/>
  <line x1="460" y1="220" x2="820" y2="600" stroke="#BFBFBF" stroke-width="1"/>
  <line x1="820" y1="220" x2="460" y2="600" stroke="#BFBFBF" stroke-width="1"/>
  <!-- Instruction text -->
  <text x="640" y="672" font-family="Arial, sans-serif" font-size="13" fill="#FFFFFF" text-anchor="middle">将你的右手与参考对齐</text>
  <text x="640" y="694" font-family="Arial, sans-serif" font-size="10" fill="#BFBFBF" text-anchor="middle">显示距离距离参考: 25CM</text>
  <!-- Scan button -->
  <rect x="440" y="718" width="400" height="48" fill="#D9D9D9"/>
  <text x="640" y="748" font-family="Arial, sans-serif" font-size="14" font-weight="700" fill="#000000" text-anchor="middle">进行扫描</text>
  <text x="640" y="808" font-family="Arial, sans-serif" font-size="11" fill="#BFBFBF" text-anchor="middle">手动输入</text>
</svg>