<svg xmlns="http://www.w3.org/2000/svg" viewBox="0 0 1280 851" width="1280" height="851">
  <rect x="0" y="0" width="1280" height="851" fill="#FFFFFF"/>
  <rect x="0" y="0" width="1280" height="48" fill="#FFFFFF" stroke="#D9D9D9" stroke-width="1"/>
  <text x="56" y="30" font-family="Arial, sans-serif" font-size="13" font-weight="700" fill="#000000" letter-spacing="2">GRIPFIT</text>
  <rect x="1220" y="10" width="32" height="32" fill="#D0D0D0"/>
  <line x1="1220" y1="10" x2="1252" y2="42" stroke="#FFFFFF" stroke-width="1"/>
  <line x1="1252" y1="10" x2="1220" y2="42" stroke="#FFFFFF" stroke-width="1"/>
  <text x="220" y="30" font-family="Arial, sans-serif" font-size="12" font-weight="400" fill="#7A7A7A">仪表盘</text>
  <text x="360" y="30" font-family="Arial, sans-serif" font-size="12" font-weight="400" fill="#7A7A7A">手部测量</text>
  <text x="500" y="30" font-family="Arial, sans-serif" font-size="12" font-weight="400" fill="#7A7A7A">机型库</text>
  <text x="640" y="30" font-family="Arial, sans-serif" font-size="12" font-weight="700" fill="#000000">报告产出</text>
  <line x1="640" y1="44" x2="672" y2="44" stroke="#000000" stroke-width="2"/>
  <rect x="0" y="48" width="50" height="803" fill="#D9D9D9"/>
  <rect x="13" y="90" width="24" height="24" fill="#BFBFBF"/>
  <rect x="13" y="155" width="24" height="24" fill="#BFBFBF"/>
  <rect x="13" y="220" width="24" height="24" fill="#BFBFBF"/>
  <rect x="13" y="285" width="24" height="24" fill="#7A7A7A"/>
  <rect x="13" y="350" width="24" height="24" fill="#BFBFBF"/>
  <rect x="13" y="415" width="24" height="24" fill="#BFBFBF"/>
  <rect x="50" y="48" width="180" height="803" fill="#FFFFFF" stroke="#D9D9D9" stroke-width="1"/>
  <text x="74" y="94" font-family="Arial, sans-serif" font-size="12" fill="#7A7A7A">最优手机</text>
  <text x="74" y="149" font-family="Arial, sans-serif" font-size="12" fill="#7A7A7A">自定义调参</text>
  <text x="74" y="204" font-family="Arial, sans-serif" font-size="12" fill="#7A7A7A">机型库</text>
  <rect x="50" y="239" width="180" height="32" fill="#D9D9D9"/>
  <text x="74" y="259" font-family="Arial, sans-serif" font-size="12" font-weight="700" fill="#000000">手感报告</text>
  <text x="74" y="314" font-family="Arial, sans-serif" font-size="12" fill="#7A7A7A">我的数据</text>
  <!-- Empty state centered -->
  <rect x="390" y="200" width="500" height="400" fill="#FFFFFF" stroke="#D9D9D9" stroke-width="1"/>
  <!-- Phone cards placeholder with + -->
  <rect x="470" y="240" width="100" height="140" fill="#D0D0D0"/>
  <line x1="470" y1="240" x2="570" y2="380" stroke="#FFFFFF" stroke-width="2"/>
  <line x1="570" y1="240" x2="470" y2="380" stroke="#FFFFFF" stroke-width="2"/>
  <rect x="590" y="260" width="100" height="140" fill="#D0D0D0"/>
  <line x1="590" y1="260" x2="690" y2="400" stroke="#FFFFFF" stroke-width="2"/>
  <line x1="690" y1="260" x2="590" y2="400" stroke="#FFFFFF" stroke-width="2"/>
  <!-- Plus sign on middle card -->
  <text x="640" y="345" font-family="Arial, sans-serif" font-size="28" fill="#7A7A7A" text-anchor="middle">+</text>
  <!-- Empty state text -->
  <text x="640" y="430" font-family="Arial, sans-serif" font-size="18" font-weight="700" fill="#000000" text-anchor="middle">还没有要对比的机型</text>
  <text x="640" y="456" font-family="Arial, sans-serif" font-size="12" fill="#7A7A7A" text-anchor="middle">添加2~3款手机，生成基于你手部数据的横向对比报告</text>
  <!-- CTA button -->
  <rect x="516" y="480" width="248" height="44" fill="#D9D9D9" stroke="#000000" stroke-width="1"/>
  <text x="640" y="507" font-family="Arial, sans-serif" font-size="13" font-weight="700" fill="#000000" text-anchor="middle">去探索手机库</text>
</svg>