<svg xmlns="http://www.w3.org/2000/svg" viewBox="0 0 1280 851" width="1280" height="851">
  <rect x="0" y="0" width="1280" height="851" fill="#FFFFFF"/>
  <rect x="0" y="0" width="1280" height="48" fill="#FFFFFF" stroke="#D9D9D9" stroke-width="1"/>
  <text x="56" y="30" font-family="Arial, sans-serif" font-size="13" font-weight="700" fill="#000000" letter-spacing="2">GRIPFIT</text>
  <rect x="1220" y="10" width="32" height="32" fill="#D0D0D0"/>
  <line x1="1220" y1="10" x2="1252" y2="42" stroke="#FFFFFF" stroke-width="1"/>
  <line x1="1252" y1="10" x2="1220" y2="42" stroke="#FFFFFF" stroke-width="1"/>
  <text x="220" y="30" font-family="Arial, sans-serif" font-size="12" font-weight="400" fill="#7A7A7A">仪表盘</text>
  <text x="360" y="30" font-family="Arial, sans-serif" font-size="12" font-weight="400" fill="#7A7A7A">手部测量</text>
  <text x="500" y="30" font-family="Arial, sans-serif" font-size="12" font-weight="400" fill="#7A7A7A">机型库</text>
  <text x="640" y="30" font-family="Arial, sans-serif" font-size="12" font-weight="700" fill="#000000">报告产出</text>
  <line x1="640" y1="44" x2="672" y2="44" stroke="#000000" stroke-width="2"/>
  <rect x="0" y="48" width="50" height="803" fill="#D9D9D9"/>
  <rect x="13" y="90" width="24" height="24" fill="#BFBFBF"/>
  <rect x="13" y="155" width="24" height="24" fill="#BFBFBF"/>
  <rect x="13" y="220" width="24" height="24" fill="#BFBFBF"/>
  <rect x="13" y="285" width="24" height="24" fill="#7A7A7A"/>
  <rect x="13" y="350" width="24" height="24" fill="#BFBFBF"/>
  <rect x="13" y="415" width="24" height="24" fill="#BFBFBF"/>
  <rect x="50" y="48" width="180" height="803" fill="#FFFFFF" stroke="#D9D9D9" stroke-width="1"/>
  <text x="74" y="94" font-family="Arial, sans-serif" font-size="12" fill="#7A7A7A">最优手机</text>
  <text x="74" y="149" font-family="Arial, sans-serif" font-size="12" fill="#7A7A7A">自定义调参</text>
  <text x="74" y="204" font-family="Arial, sans-serif" font-size="12" fill="#7A7A7A">机型库</text>
  <rect x="50" y="239" width="180" height="32" fill="#D9D9D9"/>
  <text x="74" y="259" font-family="Arial, sans-serif" font-size="12" font-weight="700" fill="#000000">手感报告</text>
  <text x="74" y="314" font-family="Arial, sans-serif" font-size="12" fill="#7A7A7A">我的数据</text>
  <text x="254" y="84" font-family="Arial, sans-serif" font-size="18" font-weight="700" fill="#000000">对比清单 2/3</text>
  <text x="254" y="106" font-family="Arial, sans-serif" font-size="11" fill="#7A7A7A">最多支持3款机型对比</text>
  <!-- Phone card 1 -->
  <rect x="254" y="120" width="300" height="260" fill="#FFFFFF" stroke="#D9D9D9" stroke-width="1"/>
  <rect x="280" y="140" width="200" height="160" fill="#D0D0D0"/>
  <line x1="280" y1="140" x2="480" y2="300" stroke="#FFFFFF" stroke-width="2"/>
  <line x1="480" y1="140" x2="280" y2="300" stroke="#FFFFFF" stroke-width="2"/>
  <text x="404" y="328" font-family="Arial, sans-serif" font-size="13" font-weight="700" fill="#000000" text-anchor="middle">Apple iPhone 16 Pro</text>
  <text x="404" y="348" font-family="Arial, sans-serif" font-size="10" fill="#7A7A7A" text-anchor="middle">2024年9月</text>
  <text x="310" y="370" font-family="Arial, sans-serif" font-size="11" fill="#7A7A7A">评分</text>
  <text x="340" y="370" font-family="Arial, sans-serif" font-size="14" font-weight="700" fill="#000000">8.6</text>
  <text x="360" y="370" font-family="Arial, sans-serif" font-size="10" fill="#7A7A7A">/ 10</text>
  <text x="430" y="370" font-family="Arial, sans-serif" font-size="11" fill="#7A7A7A">匹配</text>
  <text x="462" y="370" font-family="Arial, sans-serif" font-size="14" font-weight="700" fill="#000000">9.4</text>
  <text x="482" y="370" font-family="Arial, sans-serif" font-size="10" fill="#7A7A7A">/ 10</text>
  <text x="524" y="138" font-family="Arial, sans-serif" font-size="14" fill="#7A7A7A">x</text>
  <!-- Phone card 2 -->
  <rect x="574" y="120" width="300" height="260" fill="#FFFFFF" stroke="#D9D9D9" stroke-width="1"/>
  <rect x="600" y="140" width="200" height="160" fill="#D0D0D0"/>
  <line x1="600" y1="140" x2="800" y2="300" stroke="#FFFFFF" stroke-width="2"/>
  <line x1="800" y1="140" x2="600" y2="300" stroke="#FFFFFF" stroke-width="2"/>
  <text x="724" y="328" font-family="Arial, sans-serif" font-size="13" font-weight="700" fill="#000000" text-anchor="middle">Samsung Galaxy S24 Ultra</text>
  <text x="724" y="348" font-family="Arial, sans-serif" font-size="10" fill="#7A7A7A" text-anchor="middle">2024年1月</text>
  <text x="630" y="370" font-family="Arial, sans-serif" font-size="11" fill="#7A7A7A">评分</text>
  <text x="660" y="370" font-family="Arial, sans-serif" font-size="14" font-weight="700" fill="#000000">7.8</text>
  <text x="680" y="370" font-family="Arial, sans-serif" font-size="10" fill="#7A7A7A">/ 10</text>
  <text x="750" y="370" font-family="Arial, sans-serif" font-size="11" fill="#7A7A7A">匹配</text>
  <text x="782" y="370" font-family="Arial, sans-serif" font-size="14" font-weight="700" fill="#000000">9.1</text>
  <text x="802" y="370" font-family="Arial, sans-serif" font-size="10" fill="#7A7A7A">/ 10</text>
  <text x="844" y="138" font-family="Arial, sans-serif" font-size="14" fill="#7A7A7A">x</text>
  <!-- Options -->
  <rect x="254" y="428" width="620" height="44" fill="#F7F7F7" stroke="#D9D9D9" stroke-width="1"/>
  <rect x="272" y="444" width="14" height="14" fill="#D9D9D9" stroke="#7A7A7A" stroke-width="1"/>
  <text x="296" y="456" font-family="Arial, sans-serif" font-size="11" fill="#000000">包含我的最优模型作为基准线</text>
  <rect x="254" y="480" width="620" height="44" fill="#FFFFFF" stroke="#D9D9D9" stroke-width="1"/>
  <rect x="272" y="496" width="14" height="14" fill="#D9D9D9" stroke="#7A7A7A" stroke-width="1"/>
  <text x="296" y="508" font-family="Arial, sans-serif" font-size="11" fill="#000000">显示详细18维度评分</text>
  <rect x="254" y="532" width="620" height="44" fill="#F7F7F7" stroke="#D9D9D9" stroke-width="1"/>
  <rect x="272" y="548" width="14" height="14" fill="#D9D9D9" stroke="#7A7A7A" stroke-width="1"/>
  <text x="296" y="560" font-family="Arial, sans-serif" font-size="11" fill="#000000">按你的手型分组单独评分</text>
  <!-- Generate button -->
  <rect x="380" y="610" width="360" height="48" fill="#D9D9D9" stroke="#000000" stroke-width="1"/>
  <text x="560" y="639" font-family="Arial, sans-serif" font-size="14" font-weight="700" fill="#000000" text-anchor="middle">生成对比报告</text>
</svg>